<?xml version="1.0" encoding="iso-8859-1"?>
<!-- Generator: Adobe Illustrator 19.0.0, SVG Export Plug-In . SVG Version: 6.00 Build 0)  -->
<svg version="1.1" id="Capa_1" xmlns="http://www.w3.org/2000/svg" xmlns:xlink="http://www.w3.org/1999/xlink" x="0px" y="0px"
	 viewBox="0 0 468.293 468.293" style="enable-background:new 0 0 468.293 468.293;" xml:space="preserve">
<g>
	<path style="fill:#64798A;" d="M74.138,64.871H21.755c-3.448,0-6.244-2.795-6.244-6.244V6.244C15.511,2.795,18.307,0,21.755,0
		h52.383c3.448,0,6.244,2.795,6.244,6.244v52.383C80.382,62.075,77.586,64.871,74.138,64.871z"/>
	<path style="fill:#64798A;" d="M174.263,64.871H121.88c-3.448,0-6.244-2.795-6.244-6.244V6.244c0-3.448,2.795-6.244,6.244-6.244
		h52.383c3.448,0,6.244,2.795,6.244,6.244v52.383C180.507,62.075,177.711,64.871,174.263,64.871z"/>
	<path style="fill:#64798A;" d="M274.388,64.871h-52.383c-3.448,0-6.244-2.795-6.244-6.244V6.244c0-3.448,2.796-6.244,6.244-6.244
		h52.383c3.448,0,6.244,2.795,6.244,6.244v52.383C280.632,62.075,277.837,64.871,274.388,64.871z"/>
	<path style="fill:#64798A;" d="M74.138,164.996H21.755c-3.448,0-6.244-2.795-6.244-6.244v-52.383c0-3.448,2.795-6.244,6.244-6.244
		h52.383c3.448,0,6.244,2.795,6.244,6.244v52.383C80.382,162.2,77.586,164.996,74.138,164.996z"/>
	<path style="fill:#64798A;" d="M174.263,164.996H121.88c-3.448,0-6.244-2.795-6.244-6.244v-52.383c0-3.448,2.795-6.244,6.244-6.244
		h52.383c3.448,0,6.244,2.795,6.244,6.244v52.383C180.507,162.2,177.711,164.996,174.263,164.996z"/>
	<path style="fill:#64798A;" d="M274.388,164.996h-52.383c-3.448,0-6.244-2.795-6.244-6.244v-52.383
		c0-3.448,2.796-6.244,6.244-6.244h52.383c3.448,0,6.244,2.795,6.244,6.244v52.383C280.632,162.2,277.837,164.996,274.388,164.996z"
		/>
	<path style="fill:#64798A;" d="M74.138,265.121H21.755c-3.448,0-6.244-2.795-6.244-6.244v-52.383c0-3.448,2.795-6.244,6.244-6.244
		h52.383c3.448,0,6.244,2.796,6.244,6.244v52.383C80.382,262.326,77.586,265.121,74.138,265.121z"/>
	<path style="fill:#64798A;" d="M174.263,265.121H121.88c-3.448,0-6.244-2.795-6.244-6.244v-52.383c0-3.448,2.795-6.244,6.244-6.244
		h52.383c3.448,0,6.244,2.796,6.244,6.244v52.383C180.507,262.326,177.711,265.121,174.263,265.121z"/>
</g>
<path style="fill:#F6C358;" d="M426.289,241.09c-17.522-1.671-32.265,12.063-32.265,29.241l0-16.364
	c0-15.344-11.218-29.047-26.493-30.504c-17.522-1.671-32.265,12.063-32.265,29.241l0-22.24c0-15.344-11.218-29.047-26.493-30.504
	c-17.522-1.671-32.265,12.063-32.265,29.241l0-72.919c0-15.344-11.218-29.047-26.493-30.504
	c-17.522-1.671-32.265,12.063-32.265,29.241v232.036l-75.544-70.263c-11.236-10.45-28.909-11.567-40.378-1.374
	c-13.157,11.693-13.14,31.841-0.562,43.54l112.576,104.62c3.261,3.031,7.548,4.715,12,4.715h191.684
	c19.471,0,35.255-15.784,35.255-35.255V317.337v-19.612l0-26.131C452.782,256.249,441.564,242.547,426.289,241.09z"/>
<g>
</g>
<g>
</g>
<g>
</g>
<g>
</g>
<g>
</g>
<g>
</g>
<g>
</g>
<g>
</g>
<g>
</g>
<g>
</g>
<g>
</g>
<g>
</g>
<g>
</g>
<g>
</g>
<g>
</g>
</svg>
