<?xml version="1.0" encoding="iso-8859-1"?>
<!-- Generator: Adobe Illustrator 19.0.0, SVG Export Plug-In . SVG Version: 6.00 Build 0)  -->
<svg version="1.1" id="Capa_1" xmlns="http://www.w3.org/2000/svg" xmlns:xlink="http://www.w3.org/1999/xlink" x="0px" y="0px"
	 viewBox="0 0 512 512" style="enable-background:new 0 0 512 512;" xml:space="preserve">
<path style="fill:#EFC9AE;" d="M256,23.273c-58.182,0-104.727,46.545-104.727,104.727v23.273c-6.982,0-11.636,4.655-11.636,11.636
	v18.618c0,3.491,1.164,5.818,3.491,8.145l8.145,8.145v6.982c0,10.473,3.491,20.945,10.473,29.091l43.055,55.855
	c6.982,8.145,16.291,12.8,27.927,12.8h46.545c10.473,0,20.945-4.655,27.927-12.8l43.055-55.855
	c6.982-8.145,10.473-18.618,10.473-29.091V128C360.727,69.818,314.182,23.273,256,23.273z"/>
<path style="fill:#E2B698;" d="M307.2,289.745c-6.982,8.145-16.291,12.8-27.927,12.8h-46.545c-10.473,0-20.945-4.655-27.927-12.8
	l-18.618-23.273v59.345L256,384l69.818-58.182v-60.509L307.2,289.745z"/>
<path style="fill:#D8A984;" d="M325.818,265.309L307.2,288.582c-6.982,9.309-16.291,13.964-27.927,13.964h-46.545
	c-10.473,0-20.945-4.655-27.927-12.8l-18.618-23.273v11.636l18.618,23.273c6.982,8.145,16.291,12.8,27.927,12.8H256
	c6.982,0,11.636,4.655,11.636,11.636v46.545l58.182-58.182v-34.909h-1.164l1.164-2.327V265.309z"/>
<g>
	<path style="fill:#6F707E;" d="M23.273,442.182c-6.982,0-11.636-4.655-11.636-11.636V323.491c0-9.309,3.491-18.618,10.473-24.436
		l27.927-27.927c4.655-4.655,11.636-4.655,16.291,0s4.655,11.636,0,16.291L38.4,315.345c-2.327,2.327-3.491,5.818-3.491,8.145
		v107.055C34.909,437.527,30.255,442.182,23.273,442.182z"/>
	<path style="fill:#6F707E;" d="M488.727,442.182c-6.982,0-11.636-4.655-11.636-11.636V323.491c0-3.491-1.164-5.818-3.491-8.145
		l-27.927-27.927c-4.655-4.655-4.655-11.636,0-16.291s11.636-4.655,16.291,0l27.927,27.927c6.982,6.982,10.473,15.127,10.473,24.436
		v107.055C500.364,437.527,495.709,442.182,488.727,442.182z"/>
</g>
<path style="fill:#D5E3EF;" d="M325.818,325.818L256,384l-69.818-58.182L62.836,366.545c-9.309,3.491-16.291,11.636-16.291,22.109
	v41.891h418.909v-41.891c0-10.473-6.982-18.618-16.291-22.109L325.818,325.818"/>
<circle style="fill:#494A52;" cx="436.364" cy="261.818" r="29.091"/>
<g>
	<path style="fill:#595A66;" d="M468.945,294.4c-3.491-3.491-4.655-9.309-3.491-15.127c0-1.164,0-3.491,0-4.655l-3.491-3.491
		c-4.655-4.655-11.636-4.655-16.291,0s-4.655,11.636,0,16.291l8.145,8.145l19.782,19.782c2.327,2.327,3.491,4.655,3.491,8.145
		v107.055c0,6.982,4.655,11.636,11.636,11.636V323.491c0-5.818-2.327-11.636-6.982-16.291L468.945,294.4z"/>
	<path style="fill:#595A66;" d="M43.055,294.4c3.491-3.491,4.655-9.309,3.491-15.127c0-1.164,0-3.491,0-4.655l3.491-3.491
		c4.655-4.655,11.636-4.655,16.291,0s4.655,11.636,0,16.291l-8.145,9.309L38.4,316.509c-2.327,1.164-3.491,4.655-3.491,6.982
		v107.055c0,6.982-4.655,11.636-11.636,11.636V323.491c0-5.818,2.327-11.636,6.982-16.291L43.055,294.4z"/>
</g>
<path style="fill:#35363E;" d="M450.327,236.218c2.327,4.655,3.491,9.309,3.491,13.964c0,16.291-12.8,29.091-29.091,29.091
	c-4.655,0-9.309-1.164-13.964-3.491c4.655,9.309,13.964,15.127,25.6,15.127c16.291,0,29.091-12.8,29.091-29.091
	C465.455,251.345,459.636,240.873,450.327,236.218z"/>
<circle style="fill:#494A52;" cx="75.636" cy="261.818" r="29.091"/>
<g>
	<path style="fill:#595A66;" d="M232.727,157.091c0-3.491-2.327-5.818-5.818-5.818h-23.273c-3.491,0-5.818,2.327-5.818,5.818
		s2.327,5.818,5.818,5.818h5.818l0,0c0,6.982,4.655,11.636,11.636,11.636c6.982,0,11.636-4.655,11.636-11.636
		c0-1.164,0-2.327-1.164-3.491C232.727,159.418,232.727,158.255,232.727,157.091z"/>
	<path style="fill:#595A66;" d="M308.364,151.273h-23.273c-3.491,0-5.818,2.327-5.818,5.818c0,1.164,0,2.327,1.164,2.327
		c0,1.164-1.164,2.327-1.164,3.491c0,6.982,4.655,11.636,11.636,11.636c6.982,0,11.636-4.655,11.636-11.636l0,0h5.818
		c3.491,0,5.818-2.327,5.818-5.818S311.855,151.273,308.364,151.273z"/>
</g>
<polygon style="fill:#E2B698;" points="279.273,221.091 256,221.091 256,162.909 "/>
<path style="fill:#B0C4D8;" d="M302.545,430.545L302.545,430.545V384H256l0,0C262.982,406.109,280.436,423.564,302.545,430.545z"/>
<path style="fill:#B0C4D9;" d="M256,384h-46.545v46.545c13.964-4.655,25.6-13.964,34.909-24.436v24.436c3.491,0,8.145,0,11.636,0
	V384L256,384L256,384z"/>
<g>
	<path style="fill:#70B7E5;" d="M209.455,430.545L209.455,430.545C216.436,408.436,233.891,390.982,256,384l0,0l-69.818-69.818
		c0,0-26.764,8.145-34.909,23.273L209.455,430.545z"/>
	<path style="fill:#70B7E5;" d="M302.545,430.545L302.545,430.545C295.564,408.436,278.109,390.982,256,384l0,0l69.818-69.818
		c0,0,27.927,8.145,34.909,23.273L302.545,430.545z"/>
</g>
<path style="fill:#DA8C36;" d="M500.364,488.727H11.636C4.655,488.727,0,484.073,0,477.091v-34.909
	c0-6.982,4.655-11.636,11.636-11.636h488.727c6.982,0,11.636,4.655,11.636,11.636v34.909
	C512,484.073,507.345,488.727,500.364,488.727z"/>
<path style="fill:#35363E;" d="M89.6,236.218c2.327,4.655,3.491,9.309,3.491,13.964c0,16.291-12.8,29.091-29.091,29.091
	c-4.655,0-9.309-1.164-13.964-3.491c4.655,9.309,15.127,15.127,25.6,15.127c16.291,0,29.091-12.8,29.091-29.091
	C104.727,251.345,98.909,240.873,89.6,236.218z"/>
<path style="fill:#F48476;" d="M273.455,250.182h-34.909c-3.491,0-5.818-2.327-5.818-5.818c0-3.491,2.327-5.818,5.818-5.818h34.909
	c3.491,0,5.818,2.327,5.818,5.818C279.273,247.855,276.945,250.182,273.455,250.182z"/>
<g>
	<path style="fill:#4C9CD6;" d="M229.236,357.236c-9.309,13.964-29.091,13.964-39.564,0l-24.436-32.582
		c-5.818,3.491-10.473,8.145-12.8,12.8l58.182,93.091c6.982-22.109,24.436-39.564,46.545-46.545L229.236,357.236L229.236,357.236z"
		/>
	<path style="fill:#4C9CD6;" d="M325.818,314.182l-24.436,24.436c-6.982,6.982-5.818,17.455,1.164,24.436l0,0
		c6.982,5.818,8.145,15.127,2.327,22.109l-15.127,22.109c5.818,6.982,10.473,15.127,12.8,23.273l58.182-93.091
		C353.745,322.327,325.818,314.182,325.818,314.182z"/>
</g>
<path style="fill:#C97629;" d="M500.364,430.545h-34.909c-6.982,0-11.636,4.655-11.636,11.636v23.273
	c0,6.982-4.655,11.636-11.636,11.636H0c0,6.982,4.655,11.636,11.636,11.636h488.727c6.982,0,11.636-4.655,11.636-11.636v-34.909
	C512,435.2,507.345,430.545,500.364,430.545z"/>
<path style="fill:#E2B698;" d="M360.727,151.273V140.8v-1.164V128c0-24.436-8.145-46.545-22.109-64
	C320,46.545,294.4,34.909,265.309,34.909h-19.782C217.6,34.909,192,46.545,172.218,64c-12.8,17.455-20.945,39.564-20.945,64v23.273
	c52.364-1.164,103.564-10.473,143.127-29.091l0,0c5.818,3.491,12.8,6.982,19.782,9.309V204.8c0,10.473-3.491,20.945-10.473,29.091
	l-36.073,68.655h-34.909l0,0h46.545c10.473,0,20.945-4.655,27.927-12.8l43.055-55.855c6.982-8.145,10.473-18.618,10.473-29.091
	v-6.982l8.145-8.145c2.327-2.327,3.491-4.655,3.491-8.145v-18.618C372.364,155.927,367.709,151.273,360.727,151.273z"/>
<path style="fill:#DA8C36;" d="M294.4,110.545c-41.891,19.782-98.909,29.091-154.764,29.091v-9.309
	c0-59.345,47.709-107.055,107.055-107.055h19.782c59.345,0,107.055,47.709,107.055,107.055l0,0c-6.982,0-12.8,0-19.782-1.164
	C331.636,126.836,310.691,121.018,294.4,110.545"/>
<path style="fill:#C97629;" d="M286.255,25.6c37.236,19.782,61.673,58.182,61.673,102.4c1.164,0,2.327,0,3.491,1.164
	c6.982,1.164,12.8,1.164,19.782,1.164C372.364,77.964,335.127,34.909,286.255,25.6z"/>
<g>
</g>
<g>
</g>
<g>
</g>
<g>
</g>
<g>
</g>
<g>
</g>
<g>
</g>
<g>
</g>
<g>
</g>
<g>
</g>
<g>
</g>
<g>
</g>
<g>
</g>
<g>
</g>
<g>
</g>
</svg>
