<?xml version="1.0" encoding="iso-8859-1"?>
<!-- Generator: Adobe Illustrator 19.0.0, SVG Export Plug-In . SVG Version: 6.00 Build 0)  -->
<svg version="1.1" id="Capa_1" xmlns="http://www.w3.org/2000/svg" xmlns:xlink="http://www.w3.org/1999/xlink" x="0px" y="0px"
	 viewBox="0 0 468.293 468.293" style="enable-background:new 0 0 468.293 468.293;" xml:space="preserve">
<path style="fill:#E56353;" d="M322.046,135.442l-22.523-19.624L285.8,103.86l-44.305-38.603
	c-7.645,7.228-14.111,14.665-19.012,21.98c-8.142,12.146-11.017,22.99-7.505,28.297c3.03,4.581,11.672,6.583,24.061,4.995l-0.001,0
	c0.031,0.534,0.159,1.04,0.159,1.582c0,5.898-1.837,11.357-4.946,15.874c-0.057,0.031-0.109,0.059-0.166,0.09
	c-15.285,0.579-27.211-3.656-33.434-13.056c-7.745-11.705-5.061-28.521,7.561-47.35c5.321-7.939,12.234-15.954,20.303-23.722
	l-9.851-8.584c-4.312-3.757-10.735-3.757-15.048,0l-103.384,90.081c-3.744,3.262-5.893,7.985-5.893,12.952v296.992
	c0,12.651,10.255,22.906,22.906,22.906h187.79c12.651,0,22.906-10.255,22.906-22.906V148.392
	C327.939,143.427,325.79,138.704,322.046,135.442z M290.414,120.824c-1.468,0.763-2.912,1.428-4.368,2.142
	C287.502,122.254,288.946,121.586,290.414,120.824z M243.879,119.758c-0.078,0.015-0.15,0.022-0.228,0.036
	C243.729,119.78,243.801,119.773,243.879,119.758z M279.108,107.338c-0.669,0.331-1.312,0.611-1.974,0.929
	C277.796,107.949,278.439,107.669,279.108,107.338z M272.609,110.397c-0.441,0.197-0.862,0.358-1.3,0.549
	C271.747,110.755,272.168,110.594,272.609,110.397z M266.331,113.044c-0.329,0.131-0.641,0.233-0.969,0.361
	C265.69,113.278,266.001,113.175,266.331,113.044z M260.301,115.291c-0.305,0.106-0.591,0.186-0.893,0.289
	C259.709,115.477,259.996,115.397,260.301,115.291z M254.527,117.153c-0.094,0.028-0.182,0.047-0.275,0.075
	C254.345,117.2,254.432,117.181,254.527,117.153z M249.046,118.637c-0.06,0.015-0.116,0.024-0.178,0.039
	C248.93,118.661,248.986,118.652,249.046,118.637z M248.763,136.177c-5.101,1.03-9.946,1.626-14.511,1.806
	C238.814,137.804,243.671,137.198,248.763,136.177z M281.516,125.169c-1.962,0.9-3.889,1.694-5.822,2.502
	C277.626,126.866,279.555,126.067,281.516,125.169z M272.881,128.862c-2.268,0.903-4.491,1.696-6.708,2.469
	C268.387,130.562,270.616,129.76,272.881,128.862z M264.526,131.92c-2.463,0.828-4.875,1.546-7.263,2.209
	C259.646,133.471,262.066,132.743,264.526,131.92z M256.483,134.355c-2.567,0.696-5.073,1.281-7.536,1.782
	C251.406,135.64,253.921,135.046,256.483,134.355z"/>
<path style="fill:#D5D6DB;" d="M260.158,424.287h-88.112c-13.794,0-24.976-11.182-24.976-24.976v-166.26
	c0-13.794,11.182-24.976,24.976-24.976h88.112c13.794,0,24.976,11.182,24.976,24.976v166.26
	C285.133,413.105,273.951,424.287,260.158,424.287z"/>
<g>
	<path style="fill:#64798A;" d="M211.139,393.579L211.139,393.579c-2.741,0-4.963-2.222-4.963-4.963V249.653
		c0-2.741,2.222-4.963,4.963-4.963l0,0c2.741,0,4.963,2.222,4.963,4.963v138.963C216.102,391.357,213.88,393.579,211.139,393.579z"
		/>
	<path style="fill:#64798A;" d="M245.498,370.673L245.498,370.673c-2.741,0-4.963-2.222-4.963-4.963v-93.151
		c0-2.741,2.222-4.963,4.963-4.963l0,0c2.741,0,4.963,2.222,4.963,4.963v93.151C250.461,368.451,248.239,370.673,245.498,370.673z"
		/>
	<path style="fill:#64798A;" d="M176.78,370.673L176.78,370.673c-2.741,0-4.963-2.222-4.963-4.963v-93.151
		c0-2.741,2.222-4.963,4.963-4.963h0c2.741,0,4.963,2.222,4.963,4.963v93.151C181.743,368.451,179.521,370.673,176.78,370.673z"/>
</g>
<g>
	<path style="fill:#27A2DB;" d="M369.616,13.183C361.87,1.484,345.34-2.62,323.077,1.641c-19.73,3.775-42.479,13.718-64.059,28.001
		c-11.31,7.488-21.612,15.745-30.503,24.304c-8.068,7.768-14.982,15.783-20.303,23.722c-4.58,6.832-7.81,13.387-9.749,19.541
		c3.823-1.952,8.089-3.158,12.677-3.158c2.36,0,4.615,0.379,6.805,0.927c1.267-2.494,2.752-5.078,4.539-7.743
		c4.902-7.315,11.368-14.752,19.012-21.98c7.873-7.443,16.997-14.663,27.006-21.287c19.724-13.058,40.253-22.095,57.807-25.456
		c4.653-0.889,8.964-1.325,12.79-1.325c7.975,0,13.818,1.89,16.19,5.48c3.512,5.307,0.638,16.15-7.505,28.297
		c-9.949,14.847-26.289,30.209-46.019,43.267c-5.447,3.606-10.783,6.806-15.965,9.627l13.723,11.958
		c3.895-2.263,7.805-4.664,11.726-7.258c21.575-14.283,39.621-31.339,50.806-48.026C374.677,41.704,377.361,24.888,369.616,13.183z"
		/>
	<path style="fill:#27A2DB;" d="M200.651,125.018c5.85,8.836,16.738,13.108,30.718,13.108c0.928,0,1.928-0.105,2.882-0.142
		c3.109-4.517,4.946-9.976,4.946-15.874c0-0.542-0.129-1.048-0.159-1.582c-12.388,1.588-21.03-0.414-24.059-4.995
		c-2.742-4.143-1.543-11.678,2.966-20.554c-2.19-0.549-4.445-0.927-6.805-0.927c-4.588,0-8.854,1.205-12.677,3.158
		C195.056,108.015,195.716,117.56,200.651,125.018z"/>
</g>
<g>
	<path style="fill:#3A556A;" d="M231.369,138.126c-13.981,0-24.869-4.272-30.718-13.108c-4.935-7.458-5.595-17.002-2.189-27.809
		c-9.092,4.642-15.382,13.992-15.382,24.901c0,15.496,12.562,28.059,28.059,28.059c9.598,0,18.053-4.834,23.112-12.185
		C233.297,138.021,232.297,138.126,231.369,138.126z"/>
	<path style="fill:#3A556A;" d="M214.978,115.533c3.03,4.581,11.671,6.583,24.059,4.995c-0.705-12.418-9.408-22.621-21.093-25.549
		C213.435,103.855,212.237,111.39,214.978,115.533z"/>
</g>
<g>
</g>
<g>
</g>
<g>
</g>
<g>
</g>
<g>
</g>
<g>
</g>
<g>
</g>
<g>
</g>
<g>
</g>
<g>
</g>
<g>
</g>
<g>
</g>
<g>
</g>
<g>
</g>
<g>
</g>
</svg>
