<?xml version="1.0" encoding="iso-8859-1"?>
<!-- Generator: Adobe Illustrator 19.0.0, SVG Export Plug-In . SVG Version: 6.00 Build 0)  -->
<svg version="1.1" id="Capa_1" xmlns="http://www.w3.org/2000/svg" xmlns:xlink="http://www.w3.org/1999/xlink" x="0px" y="0px"
	 viewBox="0 0 468.293 468.293" style="enable-background:new 0 0 468.293 468.293;" xml:space="preserve">
<path style="fill:#CE412D;" d="M238.55,467.8c163.693-37.503,179.126-133.349,179.126-133.349l0-244.04
	c0-6.417-4.754-11.911-11.125-12.674C310.68,66.255,264.512,27.428,245.466,5.219c-5.968-6.959-16.672-6.959-22.639,0
	c-19.046,22.209-65.214,61.036-161.084,72.518c-6.372,0.763-11.125,6.257-11.125,12.674l0,244.04c0,0,15.433,95.846,179.126,133.349
	C232.61,468.457,235.683,468.457,238.55,467.8z"/>
<path style="fill:#E56353;" d="M234.15,436.771C108.4,407.155,84.924,342.073,81.839,331.076V106.46
	c80.006-12.689,126.957-43.893,152.305-67.942c25.354,24.049,72.305,55.253,152.311,67.942v224.631
	C383.37,342.302,360.357,407.061,234.15,436.771z"/>
<path style="fill:#EBF0F3;" d="M188.795,308.465c-3.965,0-7.945-1.398-11.14-4.238l-44.729-39.757
	c-6.924-6.154-7.547-16.759-1.393-23.683c6.154-6.922,16.759-7.552,23.683-1.393l32.579,28.959
	c29.324-30.411,97.076-96.743,134.346-101.401c9.136-1.133,17.578,5.376,18.725,14.567c1.152,9.193-5.368,17.578-14.564,18.728
	c-23.241,2.902-87.209,61.892-125.205,102.851C197.799,306.658,193.305,308.465,188.795,308.465z"/>
<g>
</g>
<g>
</g>
<g>
</g>
<g>
</g>
<g>
</g>
<g>
</g>
<g>
</g>
<g>
</g>
<g>
</g>
<g>
</g>
<g>
</g>
<g>
</g>
<g>
</g>
<g>
</g>
<g>
</g>
</svg>
