<?xml version="1.0" encoding="iso-8859-1"?>
<!-- Generator: Adobe Illustrator 19.0.0, SVG Export Plug-In . SVG Version: 6.00 Build 0)  -->
<svg version="1.1" id="Capa_1" xmlns="http://www.w3.org/2000/svg" xmlns:xlink="http://www.w3.org/1999/xlink" x="0px" y="0px"
	 viewBox="0 0 468.293 468.293" style="enable-background:new 0 0 468.293 468.293;" xml:space="preserve">
<polygon style="fill:#D5D6DB;" points="380.298,21.923 343.76,0 307.222,21.923 270.684,0 234.146,21.923 197.609,0 161.071,21.923 
	124.533,0 87.995,21.923 51.457,0 51.457,468.293 87.995,446.37 124.533,468.293 161.071,446.37 197.609,468.293 234.146,446.37 
	270.684,468.293 307.222,446.37 343.76,468.293 380.298,446.37 416.836,468.293 416.836,0 "/>
<g>
	<polygon style="fill:#EBF0F3;" points="380.298,21.923 343.76,0 307.223,21.923 270.684,0 234.146,21.923 197.609,0 
		161.071,21.923 124.533,0 87.995,21.923 51.457,0 51.457,12.488 87.995,34.41 124.533,12.488 161.071,34.41 197.609,12.488 
		234.146,34.41 270.684,12.488 307.223,34.41 343.76,12.488 380.298,34.41 416.836,12.488 416.836,0 	"/>
	<polygon style="fill:#EBF0F3;" points="380.298,446.37 343.76,468.293 307.223,446.37 270.684,468.293 234.146,446.37 
		197.609,468.293 161.071,446.37 124.533,468.293 87.995,446.37 51.457,468.293 51.457,455.805 87.995,433.882 124.533,455.805 
		161.071,433.882 197.609,455.805 234.146,433.882 270.684,455.805 307.223,433.882 343.76,455.805 380.298,433.882 
		416.836,455.805 416.836,468.293 	"/>
</g>
<g>
	<rect x="99.94" y="114.507" style="fill:#64798A;" width="62.439" height="12.488"/>
	<rect x="202.927" y="114.507" style="fill:#64798A;" width="62.439" height="12.488"/>
	<rect x="99.94" y="153.101" style="fill:#64798A;" width="62.439" height="12.488"/>
	<rect x="202.927" y="153.101" style="fill:#64798A;" width="62.439" height="12.488"/>
	<rect x="305.889" y="302.711" style="fill:#64798A;" width="62.439" height="12.488"/>
	<rect x="99.94" y="302.711" style="fill:#64798A;" width="165.426" height="12.488"/>
	<rect x="99.94" y="341.292" style="fill:#64798A;" width="165.426" height="12.488"/>
	<rect x="305.889" y="341.292" style="fill:#64798A;" width="62.439" height="12.488"/>
	<rect x="99.94" y="191.688" style="fill:#64798A;" width="62.439" height="12.488"/>
	<rect x="202.927" y="191.688" style="fill:#64798A;" width="62.439" height="12.488"/>
	<rect x="305.889" y="191.688" style="fill:#64798A;" width="62.439" height="12.488"/>
</g>
<g>
</g>
<g>
</g>
<g>
</g>
<g>
</g>
<g>
</g>
<g>
</g>
<g>
</g>
<g>
</g>
<g>
</g>
<g>
</g>
<g>
</g>
<g>
</g>
<g>
</g>
<g>
</g>
<g>
</g>
</svg>
