<?xml version="1.0" encoding="iso-8859-1"?>
<!-- Generator: Adobe Illustrator 19.0.0, SVG Export Plug-In . SVG Version: 6.00 Build 0)  -->
<svg version="1.1" id="Capa_1" xmlns="http://www.w3.org/2000/svg" xmlns:xlink="http://www.w3.org/1999/xlink" x="0px" y="0px"
	 viewBox="0 0 468.293 468.293" style="enable-background:new 0 0 468.293 468.293;" xml:space="preserve">
<g>
	<path style="fill:#3A556A;" d="M70.751,447.881L70.751,447.881c-4.779-1.979-7.048-7.458-5.069-12.237l51.103-107.227
		c1.979-4.779,7.458-7.048,12.237-5.069h0c4.779,1.979,7.048,7.458,5.069,12.237L82.988,442.812
		C81.009,447.591,75.53,449.86,70.751,447.881z"/>
	<path style="fill:#3A556A;" d="M339.271,323.348L339.271,323.348c-4.779,1.979-7.048,7.458-5.069,12.237l51.103,107.227
		c1.979,4.779,7.458,7.048,12.237,5.069l0,0c4.779-1.979,7.048-7.458,5.069-12.237l-51.103-107.227
		C349.528,323.638,344.05,321.368,339.271,323.348z"/>
</g>
<g>
	<path style="fill:#27A2DB;" d="M468.293,57.16H0V44.672c0-13.794,11.182-24.976,24.976-24.976h418.341
		c13.794,0,24.976,11.182,24.976,24.976V57.16z"/>
	<path style="fill:#27A2DB;" d="M468.293,310.05H0v12.488c0,13.794,11.182,24.976,24.976,24.976h418.341
		c13.794,0,24.976-11.182,24.976-24.976V310.05z"/>
</g>
<rect x="12.194" y="57.163" style="fill:#D5D6DB;" width="443.879" height="252.891"/>
<path style="fill:#E56353;" d="M172.085,134.032c-15.883,15.883-25.707,37.825-25.707,62.061s9.824,46.178,25.707,62.061
	l62.061-62.061L172.085,134.032z"/>
<path style="fill:#F6C358;" d="M296.207,109.056c-15.883-15.883-37.825-25.707-62.061-25.707s-46.178,9.824-62.061,25.707
	l62.061,62.061L296.207,109.056z"/>
<path style="fill:#E56353;" d="M296.207,134.032l-62.061,62.061l62.061,62.061c15.883-15.883,25.707-37.825,25.707-62.061
	S312.09,149.915,296.207,134.032z"/>
<path style="fill:#44C4A1;" d="M172.085,258.154c15.883,15.883,37.825,25.707,62.061,25.707s46.178-9.824,62.061-25.707
	l-62.061-62.061L172.085,258.154z"/>
<g>
</g>
<g>
</g>
<g>
</g>
<g>
</g>
<g>
</g>
<g>
</g>
<g>
</g>
<g>
</g>
<g>
</g>
<g>
</g>
<g>
</g>
<g>
</g>
<g>
</g>
<g>
</g>
<g>
</g>
</svg>
