<?xml version="1.0" encoding="iso-8859-1"?>
<!-- Generator: Adobe Illustrator 19.0.0, SVG Export Plug-In . SVG Version: 6.00 Build 0)  -->
<svg version="1.1" id="Capa_1" xmlns="http://www.w3.org/2000/svg" xmlns:xlink="http://www.w3.org/1999/xlink" x="0px" y="0px"
	 viewBox="0 0 468.293 468.293" style="enable-background:new 0 0 468.293 468.293;" xml:space="preserve">
<path style="fill:#31978C;" d="M327.056,468.293H141.237c-10.345,0-18.732-8.386-18.732-18.732V157.547
	c0-10.345,8.386-18.732,18.732-18.732h185.819c10.345,0,18.732,8.386,18.732,18.732v292.014
	C345.788,459.906,337.401,468.293,327.056,468.293z"/>
<path style="fill:#44C4A1;" d="M137.048,441.264V165.845c0-6.897,5.591-12.488,12.488-12.488h169.222
	c6.897,0,12.488,5.591,12.488,12.488v275.419c0,6.897-5.591,12.488-12.488,12.488H149.536
	C142.639,453.752,137.048,448.161,137.048,441.264z"/>
<path style="fill:#EBF0F3;" d="M301.593,251.644H166.7c-6.897,0-12.488-5.591-12.488-12.488v-53.603
	c0-6.897,5.591-12.488,12.488-12.488h134.893c6.897,0,12.488,5.591,12.488,12.488v53.603
	C314.081,246.053,308.49,251.644,301.593,251.644z"/>
<g>
	<path style="fill:#1C75A1;" d="M186.422,318.604h-21.119c-3.448,0-6.244-2.796-6.244-6.244v-21.119
		c0-3.448,2.796-6.244,6.244-6.244h21.119c3.448,0,6.244,2.795,6.244,6.244v21.119C192.666,315.808,189.871,318.604,186.422,318.604
		z"/>
	<path style="fill:#1C75A1;" d="M244.706,318.604h-21.119c-3.448,0-6.244-2.796-6.244-6.244v-21.119
		c0-3.448,2.796-6.244,6.244-6.244h21.119c3.448,0,6.244,2.795,6.244,6.244v21.119C250.95,315.808,248.154,318.604,244.706,318.604z
		"/>
	<path style="fill:#1C75A1;" d="M302.989,318.604h-21.119c-3.448,0-6.244-2.796-6.244-6.244v-21.119
		c0-3.448,2.795-6.244,6.244-6.244h21.119c3.448,0,6.244,2.795,6.244,6.244v21.119C309.233,315.808,306.438,318.604,302.989,318.604
		z"/>
	<path style="fill:#1C75A1;" d="M186.422,376.323h-21.119c-3.448,0-6.244-2.796-6.244-6.244V348.96c0-3.448,2.796-6.244,6.244-6.244
		h21.119c3.448,0,6.244,2.795,6.244,6.244v21.119C192.666,373.527,189.871,376.323,186.422,376.323z"/>
	<path style="fill:#1C75A1;" d="M244.706,376.323h-21.119c-3.448,0-6.244-2.796-6.244-6.244V348.96c0-3.448,2.796-6.244,6.244-6.244
		h21.119c3.448,0,6.244,2.795,6.244,6.244v21.119C250.95,373.527,248.154,376.323,244.706,376.323z"/>
	<path style="fill:#1C75A1;" d="M302.989,376.323h-21.119c-3.448,0-6.244-2.796-6.244-6.244V348.96c0-3.448,2.795-6.244,6.244-6.244
		h21.119c3.448,0,6.244,2.795,6.244,6.244v21.119C309.233,373.527,306.438,376.323,302.989,376.323z"/>
	<path style="fill:#1C75A1;" d="M186.422,434.042h-21.119c-3.448,0-6.244-2.796-6.244-6.244v-21.119
		c0-3.448,2.796-6.244,6.244-6.244h21.119c3.448,0,6.244,2.796,6.244,6.244v21.119C192.666,431.246,189.871,434.042,186.422,434.042
		z"/>
	<path style="fill:#1C75A1;" d="M244.706,434.042h-21.119c-3.448,0-6.244-2.796-6.244-6.244v-21.119
		c0-3.448,2.796-6.244,6.244-6.244h21.119c3.448,0,6.244,2.796,6.244,6.244v21.119C250.95,431.246,248.154,434.042,244.706,434.042z
		"/>
	<path style="fill:#1C75A1;" d="M302.989,434.042h-21.119c-3.448,0-6.244-2.796-6.244-6.244v-21.119
		c0-3.448,2.795-6.244,6.244-6.244h21.119c3.448,0,6.244,2.796,6.244,6.244v21.119C309.233,431.246,306.438,434.042,302.989,434.042
		z"/>
</g>
<g>
	<path style="fill:#2D93BA;" d="M186.422,312.36h-21.118c-3.449,0-6.244-2.796-6.244-6.244v6.244c0,3.448,2.795,6.244,6.244,6.244
		h21.118c3.449,0,6.244-2.796,6.244-6.244v-6.244C192.666,309.564,189.871,312.36,186.422,312.36z"/>
	<path style="fill:#2D93BA;" d="M244.706,312.36h-21.118c-3.449,0-6.244-2.796-6.244-6.244v6.244c0,3.448,2.795,6.244,6.244,6.244
		h21.118c3.449,0,6.244-2.796,6.244-6.244v-6.244C250.949,309.564,248.154,312.36,244.706,312.36z"/>
	<path style="fill:#2D93BA;" d="M302.989,312.36h-21.118c-3.449,0-6.244-2.796-6.244-6.244v6.244c0,3.448,2.795,6.244,6.244,6.244
		h21.118c3.449,0,6.244-2.796,6.244-6.244v-6.244C309.233,309.564,306.438,312.36,302.989,312.36z"/>
	<path style="fill:#2D93BA;" d="M186.422,370.079h-21.118c-3.449,0-6.244-2.796-6.244-6.244v6.244c0,3.448,2.795,6.244,6.244,6.244
		h21.118c3.449,0,6.244-2.796,6.244-6.244v-6.244C192.666,367.283,189.871,370.079,186.422,370.079z"/>
	<path style="fill:#2D93BA;" d="M244.706,370.079h-21.118c-3.449,0-6.244-2.796-6.244-6.244v6.244c0,3.448,2.795,6.244,6.244,6.244
		h21.118c3.449,0,6.244-2.796,6.244-6.244v-6.244C250.949,367.283,248.154,370.079,244.706,370.079z"/>
	<path style="fill:#2D93BA;" d="M302.989,370.079h-21.118c-3.449,0-6.244-2.796-6.244-6.244v6.244c0,3.448,2.795,6.244,6.244,6.244
		h21.118c3.449,0,6.244-2.796,6.244-6.244v-6.244C309.233,367.283,306.438,370.079,302.989,370.079z"/>
	<path style="fill:#2D93BA;" d="M186.422,427.798h-21.118c-3.449,0-6.244-2.796-6.244-6.244v6.244c0,3.448,2.795,6.244,6.244,6.244
		h21.118c3.449,0,6.244-2.796,6.244-6.244v-6.244C192.666,425.002,189.871,427.798,186.422,427.798z"/>
	<path style="fill:#2D93BA;" d="M244.706,427.798h-21.118c-3.449,0-6.244-2.796-6.244-6.244v6.244c0,3.448,2.795,6.244,6.244,6.244
		h21.118c3.449,0,6.244-2.796,6.244-6.244v-6.244C250.949,425.002,248.154,427.798,244.706,427.798z"/>
	<path style="fill:#2D93BA;" d="M302.989,427.798h-21.118c-3.449,0-6.244-2.796-6.244-6.244v6.244c0,3.448,2.795,6.244,6.244,6.244
		h21.118c3.449,0,6.244-2.796,6.244-6.244v-6.244C309.233,425.002,306.438,427.798,302.989,427.798z"/>
</g>
<polygon style="fill:#D5D6DB;" points="199.871,0 162.433,37.438 162.433,138.815 305.86,138.815 305.86,0 "/>
<polygon style="fill:#EBF0F3;" points="199.871,37.438 199.871,0 162.433,37.438 "/>
<g>
	<rect x="189.465" y="53.323" style="fill:#FFFFFF;" width="89.356" height="11.045"/>
	<rect x="189.465" y="82.07" style="fill:#FFFFFF;" width="89.356" height="11.045"/>
	<rect x="189.465" y="110.804" style="fill:#FFFFFF;" width="89.356" height="11.045"/>
</g>
<g>
</g>
<g>
</g>
<g>
</g>
<g>
</g>
<g>
</g>
<g>
</g>
<g>
</g>
<g>
</g>
<g>
</g>
<g>
</g>
<g>
</g>
<g>
</g>
<g>
</g>
<g>
</g>
<g>
</g>
</svg>
