<?xml version="1.0" encoding="iso-8859-1"?>
<!-- Generator: Adobe Illustrator 19.0.0, SVG Export Plug-In . SVG Version: 6.00 Build 0)  -->
<svg version="1.1" id="Capa_1" xmlns="http://www.w3.org/2000/svg" xmlns:xlink="http://www.w3.org/1999/xlink" x="0px" y="0px"
	 viewBox="0 0 468.293 468.293" style="enable-background:new 0 0 468.293 468.293;" xml:space="preserve">
<path style="fill:#64798A;" d="M468.293,321.602V46.643c0-6.897-5.591-12.488-12.488-12.488H12.488C5.591,34.155,0,39.746,0,46.643
	v274.958H468.293z"/>
<path style="fill:#EBF0F3;" d="M18.732,290.381V65.375c0-6.897,5.591-12.488,12.488-12.488h405.854
	c6.897,0,12.488,5.591,12.488,12.488v225.006c0,6.897-5.591,12.488-12.488,12.488H31.22
	C24.323,302.869,18.732,297.278,18.732,290.381z"/>
<path style="fill:#D5D6DB;" d="M0,321.602v31.22c0,6.897,5.591,12.488,12.488,12.488h443.317c6.896,0,12.488-5.591,12.488-12.488
	v-31.22H0z"/>
<path style="fill:#64798A;" d="M154.396,365.309h159.501V400.8c0,1.814,0.789,3.539,2.162,4.725l20.423,17.643
	c4.378,3.782,1.703,10.969-4.082,10.969H135.893c-5.785,0-8.459-7.187-4.082-10.969l20.423-17.643
	c1.373-1.186,2.162-2.911,2.162-4.725V365.309z"/>
<path style="fill:#27A2DB;" d="M334.049,177.855c0,52.784-40.927,96.006-92.755,99.639c-2.391,0.191-4.781,0.287-7.172,0.287
	s-4.781-0.096-7.172-0.287c-51.78-3.634-92.707-46.856-92.707-99.639c0-55.174,44.752-99.879,99.878-99.879
	C289.297,77.976,334.049,122.68,334.049,177.855z"/>
<path style="fill:#2D93BA;" d="M234.147,250.988c-40.313,0-73.109-32.801-73.109-73.114s32.796-73.109,73.109-73.109
	s73.109,32.796,73.109,73.109S274.46,250.988,234.147,250.988z"/>
<path style="fill:#27A2DB;" d="M231.331,231.004v-9.357c-11.714-1.194-22.229-5.852-31.533-13.967l9.357-11.151
	c7.177,6.238,14.562,9.951,22.176,11.151v-24.868c-9.659-2.305-16.731-5.341-21.217-9.101s-6.728-9.336-6.728-16.726
	c0-7.39,2.576-13.435,7.75-18.14c5.174-4.699,11.902-7.26,20.194-7.688v-6.41h8.199v6.535c9.398,0.688,18.286,3.891,26.662,9.617
	l-8.334,11.792c-5.643-4.016-11.745-6.493-18.327-7.437v24.096h0.386c9.826,2.31,17.044,5.429,21.655,9.357
	c4.621,3.932,6.926,9.638,6.926,17.112c0,7.479-2.649,13.571-7.948,18.265c-5.299,4.704-12.298,7.265-21.019,7.693v9.226H231.331z
	 M222.287,148.27c-2.18,1.919-3.265,4.313-3.265,7.177s0.855,5.127,2.566,6.791c1.7,1.669,4.955,3.27,9.743,4.809V144.87
	C227.482,145.214,224.467,146.346,222.287,148.27z M249.272,204.473c2.389-1.961,3.588-4.438,3.588-7.432
	c0-2.988-0.939-5.362-2.816-7.114c-1.888-1.752-5.393-3.395-10.514-4.934v23.068C243.629,207.639,246.873,206.439,249.272,204.473z"
	/>
<g>
</g>
<g>
</g>
<g>
</g>
<g>
</g>
<g>
</g>
<g>
</g>
<g>
</g>
<g>
</g>
<g>
</g>
<g>
</g>
<g>
</g>
<g>
</g>
<g>
</g>
<g>
</g>
<g>
</g>
</svg>
