<?xml version="1.0" encoding="iso-8859-1"?>
<!-- Generator: Adobe Illustrator 19.0.0, SVG Export Plug-In . SVG Version: 6.00 Build 0)  -->
<svg version="1.1" id="Capa_1" xmlns="http://www.w3.org/2000/svg" xmlns:xlink="http://www.w3.org/1999/xlink" x="0px" y="0px"
	 viewBox="0 0 468.293 468.293" style="enable-background:new 0 0 468.293 468.293;" xml:space="preserve">
<path style="fill:#E1E6E9;" d="M443.317,387.653H24.976C11.182,387.653,0,376.471,0,362.677V105.615
	c0-13.794,11.182-24.976,24.976-24.976h418.341c13.794,0,24.976,11.182,24.976,24.976v257.062
	C468.293,376.471,457.111,387.653,443.317,387.653z"/>
<g>
	<path style="fill:#2D93BA;" d="M224.175,302.509h-18.732c-3.448,0-6.244-2.796-6.244-6.244v-18.732
		c0-3.448,2.795-6.244,6.244-6.244h18.732c3.448,0,6.244,2.795,6.244,6.244v18.732C230.419,299.714,227.624,302.509,224.175,302.509
		z"/>
	<path style="fill:#2D93BA;" d="M285.345,302.509h-18.732c-3.448,0-6.244-2.796-6.244-6.244v-18.732
		c0-3.448,2.796-6.244,6.244-6.244h18.732c3.448,0,6.244,2.795,6.244,6.244v18.732C291.589,299.714,288.793,302.509,285.345,302.509
		z"/>
	<path style="fill:#2D93BA;" d="M346.514,302.509h-18.732c-3.448,0-6.244-2.796-6.244-6.244v-18.732
		c0-3.448,2.796-6.244,6.244-6.244h18.732c3.448,0,6.244,2.795,6.244,6.244v18.732C352.758,299.714,349.962,302.509,346.514,302.509
		z"/>
	<path style="fill:#2D93BA;" d="M407.683,302.509h-18.732c-3.448,0-6.244-2.796-6.244-6.244v-18.732
		c0-3.448,2.796-6.244,6.244-6.244h18.732c3.448,0,6.244,2.795,6.244,6.244v18.732C413.927,299.714,411.132,302.509,407.683,302.509
		z"/>
	<path style="fill:#2D93BA;" d="M224.175,358.704h-18.732c-3.448,0-6.244-2.795-6.244-6.244v-18.732
		c0-3.448,2.795-6.244,6.244-6.244h18.732c3.448,0,6.244,2.796,6.244,6.244v18.732C230.419,355.909,227.624,358.704,224.175,358.704
		z"/>
	<path style="fill:#2D93BA;" d="M285.345,358.704h-18.732c-3.448,0-6.244-2.795-6.244-6.244v-18.732
		c0-3.448,2.796-6.244,6.244-6.244h18.732c3.448,0,6.244,2.796,6.244,6.244v18.732C291.589,355.909,288.793,358.704,285.345,358.704
		z"/>
	<path style="fill:#2D93BA;" d="M346.514,358.704h-18.732c-3.448,0-6.244-2.795-6.244-6.244v-18.732
		c0-3.448,2.796-6.244,6.244-6.244h18.732c3.448,0,6.244,2.796,6.244,6.244v18.732C352.758,355.909,349.962,358.704,346.514,358.704
		z"/>
	<path style="fill:#2D93BA;" d="M407.683,358.704h-18.732c-3.448,0-6.244-2.795-6.244-6.244v-18.732
		c0-3.448,2.796-6.244,6.244-6.244h18.732c3.448,0,6.244,2.796,6.244,6.244v18.732C413.927,355.909,411.132,358.704,407.683,358.704
		z"/>
</g>
<path style="fill:#EBF0F3;" d="M54.366,400.556v-0.002c0-23.655,1.659-47.287,5.544-70.621c4.641-27.86,7.319-60.668,7.319-95.787
	c0-35.12-2.678-67.928-7.319-95.79c-3.886-23.332-5.544-46.965-5.544-70.619v-0.002c0-13.794,11.181-24.976,24.976-24.976H66.854
	c-13.794,0-24.976,11.181-24.976,24.976v0.002c0,23.654,1.659,47.287,5.544,70.619c4.64,27.861,7.319,60.669,7.319,95.79
	c0,35.119-2.678,67.927-7.319,95.787c-3.886,23.334-5.544,46.966-5.544,70.621v0.002c0,13.793,11.181,24.976,24.976,24.976h12.488
	C65.547,425.532,54.366,414.35,54.366,400.556z"/>
<path style="fill:#D5D6DB;" d="M158.471,400.556c0-23.655-1.659-47.288-5.546-70.622c-4.64-27.861-7.317-60.669-7.317-95.788
	c0-35.121,2.677-67.93,7.317-95.791c3.887-23.332,5.546-46.965,5.546-70.619l0,0c0-13.794-11.182-24.976-24.976-24.976H79.341
	c-13.794,0-24.976,11.181-24.976,24.976v0.002c0,23.654,1.659,47.287,5.544,70.619c4.64,27.861,7.319,60.669,7.319,95.79
	c0,35.119-2.678,67.927-7.319,95.787c-3.886,23.334-5.544,46.966-5.544,70.621v0.002c0,13.793,11.181,24.976,24.976,24.976h54.154
	C147.289,425.532,158.471,414.35,158.471,400.556z"/>
<path style="fill:#2D93BA;" d="M426.415,171.967v-43.649c0-10.345-8.386-18.732-18.732-18.732H205.444
	c-10.345,0-18.732,8.387-18.732,18.732v43.649c0,3.671,1.096,7.069,2.921,9.96h233.861
	C425.319,179.037,426.415,175.639,426.415,171.967z"/>
<path style="fill:#27A2DB;" d="M205.444,190.699h202.239c6.675,0,12.494-3.516,15.811-8.772H189.633
	C192.95,187.183,198.77,190.699,205.444,190.699z"/>
<g>
	<path style="fill:#2D93BA;" d="M230.419,240.07v-18.732c0-3.448-2.796-6.244-6.244-6.244h-18.732c-3.448,0-6.244,2.796-6.244,6.244
		v18.732c0,0.09,0.047,0.165,0.051,0.253h31.117C230.372,240.235,230.419,240.16,230.419,240.07z"/>
	<path style="fill:#2D93BA;" d="M291.588,240.07v-18.732c0-3.448-2.796-6.244-6.244-6.244h-18.732c-3.448,0-6.244,2.796-6.244,6.244
		v18.732c0,0.09,0.047,0.165,0.051,0.253h31.117C291.541,240.235,291.588,240.16,291.588,240.07z"/>
	<path style="fill:#2D93BA;" d="M352.758,240.07v-18.732c0-3.448-2.796-6.244-6.244-6.244h-18.732c-3.448,0-6.244,2.796-6.244,6.244
		v18.732c0,0.09,0.047,0.165,0.052,0.253h31.117C352.71,240.235,352.758,240.16,352.758,240.07z"/>
	<path style="fill:#2D93BA;" d="M413.927,240.07v-18.732c0-3.448-2.795-6.244-6.244-6.244h-18.732c-3.448,0-6.244,2.796-6.244,6.244
		v18.732c0,0.09,0.047,0.165,0.052,0.253h31.117C413.88,240.235,413.927,240.16,413.927,240.07z"/>
</g>
<g>
	<path style="fill:#27A2DB;" d="M205.444,246.314h18.732c3.358,0,6.053-2.666,6.193-5.991h-31.117
		C199.391,243.648,202.085,246.314,205.444,246.314z"/>
	<path style="fill:#27A2DB;" d="M266.613,246.314h18.732c3.358,0,6.053-2.666,6.193-5.991H260.42
		C260.56,243.648,263.255,246.314,266.613,246.314z"/>
	<path style="fill:#27A2DB;" d="M327.782,246.314h18.732c3.359,0,6.053-2.666,6.194-5.991H321.59
		C321.73,243.648,324.424,246.314,327.782,246.314z"/>
	<path style="fill:#27A2DB;" d="M388.951,246.314h18.732c3.359,0,6.053-2.666,6.194-5.991h-31.117
		C382.899,243.648,385.593,246.314,388.951,246.314z"/>
	<path style="fill:#27A2DB;" d="M205.444,302.509h18.732c3.358,0,6.053-2.666,6.193-5.991h-31.117
		C199.391,299.843,202.085,302.509,205.444,302.509z"/>
	<path style="fill:#27A2DB;" d="M266.613,302.509h18.732c3.358,0,6.053-2.666,6.193-5.991H260.42
		C260.56,299.843,263.255,302.509,266.613,302.509z"/>
	<path style="fill:#27A2DB;" d="M327.782,302.509h18.732c3.359,0,6.053-2.666,6.194-5.991H321.59
		C321.73,299.843,324.424,302.509,327.782,302.509z"/>
	<path style="fill:#27A2DB;" d="M388.951,302.509h18.732c3.359,0,6.053-2.666,6.194-5.991h-31.117
		C382.899,299.843,385.593,302.509,388.951,302.509z"/>
	<path style="fill:#27A2DB;" d="M205.444,358.704h18.732c3.358,0,6.053-2.666,6.193-5.991h-31.117
		C199.391,356.038,202.085,358.704,205.444,358.704z"/>
	<path style="fill:#27A2DB;" d="M266.613,358.704h18.732c3.358,0,6.053-2.666,6.193-5.991H260.42
		C260.56,356.038,263.255,358.704,266.613,358.704z"/>
	<path style="fill:#27A2DB;" d="M327.782,358.704h18.732c3.359,0,6.053-2.666,6.194-5.991H321.59
		C321.73,356.038,324.424,358.704,327.782,358.704z"/>
	<path style="fill:#27A2DB;" d="M388.951,358.704h18.732c3.359,0,6.053-2.666,6.194-5.991h-31.117
		C382.899,356.038,385.593,358.704,388.951,358.704z"/>
</g>
<g>
</g>
<g>
</g>
<g>
</g>
<g>
</g>
<g>
</g>
<g>
</g>
<g>
</g>
<g>
</g>
<g>
</g>
<g>
</g>
<g>
</g>
<g>
</g>
<g>
</g>
<g>
</g>
<g>
</g>
</svg>
