<?xml version="1.0" encoding="iso-8859-1"?>
<!-- Generator: Adobe Illustrator 19.0.0, SVG Export Plug-In . SVG Version: 6.00 Build 0)  -->
<svg version="1.1" id="Capa_1" xmlns="http://www.w3.org/2000/svg" xmlns:xlink="http://www.w3.org/1999/xlink" x="0px" y="0px"
	 viewBox="0 0 468.298 468.298" style="enable-background:new 0 0 468.298 468.298;" xml:space="preserve">
<path style="fill:#2F4859;" d="M426.086,328.988c-5.675,0-10.277-4.602-10.277-10.277V202.214
	c0-100.168-81.491-181.66-181.66-181.66S52.49,102.045,52.49,202.214v116.497c0,5.675-4.602,10.277-10.277,10.277
	c-5.675,0-10.277-4.602-10.277-10.277V202.214C31.935,90.712,122.647,0,234.149,0s202.214,90.712,202.214,202.214v116.497
	C436.363,324.386,431.761,328.988,426.086,328.988z"/>
<path style="fill:#3A556A;" d="M140.037,461.34c-46.321,19.187-99.425-2.81-118.612-49.131s2.81-99.425,49.131-118.612
	L140.037,461.34z"/>
<path style="fill:#E56353;" d="M156.041,467.344l14.504-6.008c6.372-2.639,9.398-9.944,6.758-16.316l-68.857-166.235
	c-2.639-6.372-9.944-9.398-16.316-6.758l-14.504,6.008c-6.372,2.639-9.398,9.944-6.758,16.316l68.857,166.235
	C142.364,466.958,149.669,469.984,156.041,467.344z"/>
<path style="fill:#3A556A;" d="M328.667,461.043c46.171,19.125,99.103-2.801,118.228-48.972
	c19.125-46.171-2.801-99.103-48.972-118.228L328.667,461.043z"/>
<path style="fill:#E56353;" d="M312.678,467.013l-14.382-5.957c-6.372-2.639-9.398-9.944-6.758-16.316l68.603-165.622
	c2.639-6.372,9.944-9.398,16.316-6.758l14.382,5.957c6.372,2.639,9.398,9.944,6.758,16.316l-68.603,165.622
	C326.355,466.627,319.05,469.652,312.678,467.013z"/>
<g>
</g>
<g>
</g>
<g>
</g>
<g>
</g>
<g>
</g>
<g>
</g>
<g>
</g>
<g>
</g>
<g>
</g>
<g>
</g>
<g>
</g>
<g>
</g>
<g>
</g>
<g>
</g>
<g>
</g>
</svg>
