<?xml version="1.0" encoding="iso-8859-1"?>
<!-- Generator: Adobe Illustrator 19.0.0, SVG Export Plug-In . SVG Version: 6.00 Build 0)  -->
<svg version="1.1" id="Capa_1" xmlns="http://www.w3.org/2000/svg" xmlns:xlink="http://www.w3.org/1999/xlink" x="0px" y="0px"
	 viewBox="0 0 468.293 468.293" style="enable-background:new 0 0 468.293 468.293;" xml:space="preserve">
<g>
	<path style="fill:#FCD462;" d="M97.021,337.82c-1.268-3.805-4.829-6.372-8.841-6.372H28.892c-4.011,0-7.572,2.567-8.84,6.372
		l-18.895,56.7h114.758L97.021,337.82z"/>
	<path style="fill:#FCD462;" d="M214.094,337.82c-1.268-3.805-4.829-6.372-8.841-6.372h-59.288c-4.011,0-7.572,2.567-8.84,6.372
		l-18.895,56.7h114.758L214.094,337.82z"/>
	<path style="fill:#FCD462;" d="M331.168,337.82c-1.268-3.805-4.829-6.372-8.841-6.372h-59.288c-4.011,0-7.572,2.567-8.84,6.372
		l-18.895,56.7h114.758L331.168,337.82z"/>
	<path style="fill:#FCD462;" d="M448.241,337.82c-1.268-3.805-4.829-6.372-8.841-6.372h-59.288c-4.011,0-7.572,2.567-8.84,6.372
		l-18.895,56.7h114.758L448.241,337.82z"/>
</g>
<g>
	<path style="fill:#F6C358;" d="M9.325,408.803h98.422c6.36,0,10.851-6.231,8.84-12.264l-0.672-2.018H1.157l-0.672,2.018
		C-1.526,402.572,2.965,408.803,9.325,408.803z"/>
	<path style="fill:#F6C358;" d="M126.398,408.803h98.422c6.36,0,10.851-6.231,8.84-12.264l-0.672-2.018H118.231l-0.672,2.018
		C115.548,402.572,120.039,408.803,126.398,408.803z"/>
	<path style="fill:#F6C358;" d="M243.472,408.803h98.422c6.36,0,10.851-6.231,8.84-12.264l-0.672-2.018H235.304l-0.672,2.018
		C232.621,402.572,237.112,408.803,243.472,408.803z"/>
	<path style="fill:#F6C358;" d="M360.545,408.803h98.422c6.36,0,10.851-6.231,8.84-12.264l-0.672-2.018H352.377l-0.672,2.018
		C349.694,402.572,354.185,408.803,360.545,408.803z"/>
</g>
<path style="fill:#FCD462;" d="M155.558,261.023c-1.268-3.805-4.829-6.372-8.841-6.372H87.429c-4.011,0-7.572,2.567-8.84,6.372
	L59.895,317.12h114.355L155.558,261.023z"/>
<path style="fill:#F6C358;" d="M67.862,332.006h98.422c1.125,0,2.16-0.253,3.142-0.607H64.72
	C65.702,331.753,66.737,332.006,67.862,332.006z"/>
<g>
	<path style="fill:#FCD462;" d="M272.631,260.417c-1.268-3.806-4.829-6.373-8.841-6.373h-59.288c-4.011,0-7.572,2.567-8.84,6.373
		l-18.896,56.703h114.761L272.631,260.417z"/>
	<path style="fill:#FCD462;" d="M389.704,260.417c-1.268-3.806-4.829-6.373-8.841-6.373h-59.288c-4.011,0-7.572,2.567-8.84,6.373
		l-18.896,56.703H408.6L389.704,260.417z"/>
</g>
<g>
	<path style="fill:#F6C358;" d="M293.168,319.135l0.671-2.015h-2.313l0.671,2.015c2.011,6.034-2.48,12.264-8.84,12.264h18.651
		C295.649,331.399,291.158,325.169,293.168,319.135z"/>
	<path style="fill:#F6C358;" d="M176.095,319.135l0.671-2.015h-2.515l0.873,2.621c1.655,4.967-1.125,10.01-5.698,11.659h15.509
		C178.575,331.399,174.084,325.169,176.095,319.135z"/>
	<path style="fill:#F6C358;" d="M175.124,319.741l-0.873-2.621H59.895l-0.873,2.621c-1.655,4.967,1.126,10.01,5.698,11.659h104.706
		C173.999,329.751,176.78,324.708,175.124,319.741z"/>
	<path style="fill:#F6C358;" d="M292.197,319.135l-0.671-2.015H176.766l-0.671,2.015c-2.011,6.034,2.48,12.264,8.84,12.264h98.422
		C289.717,331.399,294.209,325.169,292.197,319.135z"/>
	<path style="fill:#F6C358;" d="M409.271,319.135l-0.671-2.015H293.839l-0.671,2.015c-2.011,6.034,2.48,12.264,8.84,12.264h98.422
		C406.79,331.399,411.282,325.169,409.271,319.135z"/>
</g>
<g>
	<path style="fill:#FCD462;" d="M214.094,183.667c-1.268-3.805-4.829-6.372-8.841-6.372h-59.288c-4.011,0-7.572,2.567-8.84,6.372
		l-18.896,56.703H232.99L214.094,183.667z"/>
	<path style="fill:#FCD462;" d="M331.168,183.667c-1.268-3.805-4.829-6.372-8.841-6.372h-59.288c-4.011,0-7.572,2.567-8.84,6.372
		l-18.896,56.703h114.761L331.168,183.667z"/>
</g>
<g>
	<path style="fill:#F6C358;" d="M234.632,242.385l0.671-2.015h-2.313l0.671,2.015c2.011,6.034-2.48,12.265-8.84,12.265h18.651
		C237.112,254.651,232.621,248.42,234.632,242.385z"/>
	<path style="fill:#F6C358;" d="M233.661,242.385l-0.671-2.015H118.229l-0.671,2.015c-2.011,6.034,2.48,12.265,8.84,12.265h98.422
		C231.18,254.651,235.672,248.42,233.661,242.385z"/>
	<path style="fill:#F6C358;" d="M350.734,242.385l-0.671-2.015H235.302l-0.671,2.015c-2.011,6.034,2.48,12.265,8.84,12.265h98.422
		C348.254,254.651,352.745,248.42,350.734,242.385z"/>
</g>
<g>
	<rect x="223.344" y="59.49" style="fill:#FCD462;" width="21.616" height="59.81"/>
	
		<rect x="301.287" y="74.97" transform="matrix(-0.9239 -0.3827 0.3827 -0.9239 560.3 321.1991)" style="fill:#FCD462;" width="21.616" height="59.81"/>
	
		<rect x="145.389" y="74.975" transform="matrix(0.9239 -0.3827 0.3827 0.9239 -28.246 67.7568)" style="fill:#FCD462;" width="21.616" height="59.81"/>
</g>
<g>
</g>
<g>
</g>
<g>
</g>
<g>
</g>
<g>
</g>
<g>
</g>
<g>
</g>
<g>
</g>
<g>
</g>
<g>
</g>
<g>
</g>
<g>
</g>
<g>
</g>
<g>
</g>
<g>
</g>
</svg>
