<?xml version="1.0" encoding="iso-8859-1"?>
<!-- Generator: Adobe Illustrator 19.0.0, SVG Export Plug-In . SVG Version: 6.00 Build 0)  -->
<svg version="1.1" id="Capa_1" xmlns="http://www.w3.org/2000/svg" xmlns:xlink="http://www.w3.org/1999/xlink" x="0px" y="0px"
	 viewBox="0 0 512 512" style="enable-background:new 0 0 512 512;" xml:space="preserve">
<path style="fill:#35363E;" d="M279.273,221.091h-46.545c-6.982,0-11.636,4.655-11.636,11.636v11.636h69.818v-11.636
	C290.909,225.745,286.255,221.091,279.273,221.091z"/>
<g>
	<path style="fill:#595A66;" d="M221.091,442.182H11.636v-34.909l76.8-285.091c2.327-10.473,11.636-17.455,22.109-17.455h110.545
		V442.182z"/>
	<path style="fill:#595A66;" d="M290.909,442.182h209.455v-29.091c0-4.655,0-8.145-1.164-11.636l-75.636-279.273
		c-2.327-10.473-11.636-17.455-22.109-17.455H290.909V442.182z"/>
</g>
<path style="fill:#494A52;" d="M499.2,401.455l-75.636-279.273c-2.327-10.473-11.636-17.455-22.109-17.455h-34.909
	c10.473,0,19.782,6.982,22.109,17.455l52.364,281.6c0,2.327,1.164,5.818,1.164,8.145v30.255h58.182v-29.091
	C500.364,409.6,500.364,404.945,499.2,401.455z"/>
<path style="fill:#6F707E;" d="M12.8,401.455l75.636-279.273c2.327-10.473,11.636-17.455,22.109-17.455h34.909
	c-10.473,0-19.782,6.982-22.109,17.455L70.982,402.618c-1.164,3.491-1.164,5.818-1.164,9.309v30.255H11.636v-29.091
	C11.636,409.6,11.636,404.945,12.8,401.455z"/>
<g>
	<path style="fill:#595A66;" d="M395.636,46.545H279.273c-6.982,0-11.636-4.655-11.636-11.636s4.655-11.636,11.636-11.636h116.364
		c6.982,0,11.636,4.655,11.636,11.636S402.618,46.545,395.636,46.545z"/>
	<path style="fill:#595A66;" d="M232.727,46.545H116.364c-6.982,0-11.636-4.655-11.636-11.636s4.655-11.636,11.636-11.636h116.364
		c6.982,0,11.636,4.655,11.636,11.636S239.709,46.545,232.727,46.545z"/>
</g>
<g>
	<rect x="290.909" y="46.545" style="fill:#F04B4D;" width="93.091" height="58.182"/>
	<rect x="128" y="46.545" style="fill:#F04B4D;" width="93.091" height="58.182"/>
</g>
<g>
	<path style="fill:#DE333F;" d="M290.909,46.545v11.636h46.545c6.982,0,11.636,4.655,11.636,11.636v34.909H384V58.182V46.545
		H290.909z"/>
	<path style="fill:#DE333F;" d="M128,46.545v11.636h46.545c6.982,0,11.636,4.655,11.636,11.636v34.909h34.909V58.182V46.545H128z"/>
</g>
<g>
	<path style="fill:#494A52;" d="M395.636,23.273h-23.273v11.636H267.636c0,6.982,4.655,11.636,11.636,11.636h116.364
		c6.982,0,11.636-4.655,11.636-11.636S402.618,23.273,395.636,23.273z"/>
	<path style="fill:#494A52;" d="M232.727,23.273h-23.273v11.636H104.727c0,6.982,4.655,11.636,11.636,11.636h116.364
		c6.982,0,11.636-4.655,11.636-11.636S239.709,23.273,232.727,23.273z"/>
	<path style="fill:#494A52;" d="M314.182,325.818V139.636c0-12.8-10.473-23.273-23.273-23.273v325.818h34.909v-81.455
		c0-6.982,4.655-11.636,11.636-11.636h11.636c6.982,0,11.636-4.655,11.636-11.636v-11.636H314.182z"/>
	<path style="fill:#494A52;" d="M197.818,139.636v186.182h-46.545v11.636c0,6.982,4.655,11.636,11.636,11.636h11.636
		c6.982,0,11.636,4.655,11.636,11.636v81.455h34.909V116.364C208.291,116.364,197.818,126.836,197.818,139.636z"/>
</g>
<path style="fill:#F04B4D;" d="M349.091,337.455H162.909c-6.982,0-11.636-4.655-11.636-11.636V256
	c0-6.982,4.655-11.636,11.636-11.636h186.182c6.982,0,11.636,4.655,11.636,11.636v69.818
	C360.727,332.8,356.073,337.455,349.091,337.455z"/>
<path style="fill:#DE333F;" d="M349.091,244.364h-11.636c-6.982,0-11.636,4.655-11.636,11.636v46.545
	c0,6.982-4.655,11.636-11.636,11.636H151.273v11.636c0,6.982,4.655,11.636,11.636,11.636h186.182
	c6.982,0,11.636-4.655,11.636-11.636V256C360.727,249.018,356.073,244.364,349.091,244.364z"/>
<path style="fill:#F26A56;" d="M192,267.636h-23.273c-3.491,0-5.818-2.327-5.818-5.818l0,0c0-3.491,2.327-5.818,5.818-5.818H192
	c3.491,0,5.818,2.327,5.818,5.818l0,0C197.818,265.309,195.491,267.636,192,267.636z"/>
<g>
	<path style="fill:#6F707E;" d="M145.455,34.909h-23.273c-3.491,0-5.818-2.327-5.818-5.818l0,0c0-3.491,2.327-5.818,5.818-5.818
		h23.273c3.491,0,5.818,2.327,5.818,5.818l0,0C151.273,32.582,148.945,34.909,145.455,34.909z"/>
	<path style="fill:#6F707E;" d="M320,34.909h-23.273c-3.491,0-5.818-2.327-5.818-5.818l0,0c0-3.491,2.327-5.818,5.818-5.818H320
		c3.491,0,5.818,2.327,5.818,5.818l0,0C325.818,32.582,323.491,34.909,320,34.909z"/>
</g>
<g>
	<path style="fill:#F26A56;" d="M139.636,87.273V75.636c0-3.491,2.327-5.818,5.818-5.818l0,0c3.491,0,5.818,2.327,5.818,5.818
		v11.636c0,3.491-2.327,5.818-5.818,5.818l0,0C141.964,93.091,139.636,90.764,139.636,87.273z"/>
	<path style="fill:#F26A56;" d="M302.545,87.273V75.636c0-3.491,2.327-5.818,5.818-5.818l0,0c3.491,0,5.818,2.327,5.818,5.818
		v11.636c0,3.491-2.327,5.818-5.818,5.818l0,0C304.873,93.091,302.545,90.764,302.545,87.273z"/>
	<path style="fill:#F26A56;" d="M250.182,267.636h-34.909c-3.491,0-5.818-2.327-5.818-5.818l0,0c0-3.491,2.327-5.818,5.818-5.818
		h34.909c3.491,0,5.818,2.327,5.818,5.818l0,0C256,265.309,253.673,267.636,250.182,267.636z"/>
</g>
<path style="fill:#6F707E;" d="M500.364,488.727H290.909c-6.982,0-11.636-4.655-11.636-11.636v-23.273
	c0-6.982,4.655-11.636,11.636-11.636h209.455c6.982,0,11.636,4.655,11.636,11.636v23.273
	C512,484.073,507.345,488.727,500.364,488.727z"/>
<path style="fill:#595A66;" d="M500.364,442.182h-34.909c-6.982,0-11.636,4.655-11.636,11.636l0,0
	c0,6.982-4.655,11.636-11.636,11.636H290.909c-6.982,0-11.636,4.655-11.636,11.636l0,0c0,6.982,4.655,11.636,11.636,11.636h209.455
	c6.982,0,11.636-4.655,11.636-11.636v-23.273C512,446.836,507.345,442.182,500.364,442.182z"/>
<path style="fill:#6F707E;" d="M221.091,488.727H11.636C4.655,488.727,0,484.073,0,477.091v-23.273
	c0-6.982,4.655-11.636,11.636-11.636h209.455c6.982,0,11.636,4.655,11.636,11.636v23.273
	C232.727,484.073,228.073,488.727,221.091,488.727z"/>
<path style="fill:#595A66;" d="M221.091,442.182h-34.909c-6.982,0-11.636,4.655-11.636,11.636l0,0
	c0,6.982-4.655,11.636-11.636,11.636H11.636C4.655,465.455,0,470.109,0,477.091l0,0c0,6.982,4.655,11.636,11.636,11.636h209.455
	c6.982,0,11.636-4.655,11.636-11.636v-23.273C232.727,446.836,228.073,442.182,221.091,442.182z"/>
<g>
</g>
<g>
</g>
<g>
</g>
<g>
</g>
<g>
</g>
<g>
</g>
<g>
</g>
<g>
</g>
<g>
</g>
<g>
</g>
<g>
</g>
<g>
</g>
<g>
</g>
<g>
</g>
<g>
</g>
</svg>
