<?xml version="1.0" encoding="iso-8859-1"?>
<!-- Generator: Adobe Illustrator 19.0.0, SVG Export Plug-In . SVG Version: 6.00 Build 0)  -->
<svg version="1.1" id="Capa_1" xmlns="http://www.w3.org/2000/svg" xmlns:xlink="http://www.w3.org/1999/xlink" x="0px" y="0px"
	 viewBox="0 0 468.293 468.293" style="enable-background:new 0 0 468.293 468.293;" xml:space="preserve">
<circle style="fill:#44C4A1;" cx="154.474" cy="128.062" r="85.079"/>
<circle style="fill:#3EA69B;" cx="154.474" cy="128.062" r="67.628"/>
<path style="fill:#44C4A1;" d="M151.755,179.3v-9.022c-11.295-1.152-21.433-5.642-30.404-13.467l9.022-10.752
	c6.92,6.014,14.04,9.595,21.382,10.752v-23.977c-9.313-2.223-16.132-5.149-20.457-8.775c-4.325-3.626-6.487-9.002-6.487-16.127
	s2.484-12.954,7.473-17.49c4.989-4.531,11.476-7,19.471-7.412v-6.18h7.905v6.301c9.062,0.664,17.631,3.751,25.707,9.273
	l-8.036,11.37c-5.441-3.872-11.325-6.261-17.671-7.171v23.233h0.372c9.474,2.228,16.434,5.235,20.879,9.022
	c4.456,3.792,6.678,9.293,6.678,16.499c0,7.211-2.555,13.085-7.664,17.611c-5.109,4.536-11.858,7.005-20.266,7.417v8.896H151.755z
	 M143.035,99.529c-2.102,1.851-3.148,4.159-3.148,6.92s0.825,4.943,2.474,6.547c1.639,1.609,4.777,3.153,9.394,4.637V96.25
	C148.044,96.582,145.137,97.673,143.035,99.529z M169.054,153.719c2.303-1.891,3.46-4.279,3.46-7.166
	c0-2.881-0.905-5.17-2.716-6.859c-1.82-1.69-5.2-3.274-10.138-4.757v22.242C163.613,156.771,166.741,155.615,169.054,153.719z"/>
<circle style="fill:#E56353;" cx="302.236" cy="96.662" r="96.662"/>
<circle style="fill:#D15241;" cx="302.236" cy="96.662" r="76.837"/>
<path style="fill:#E56353;" d="M299.151,154.865v-10.25c-12.833-1.308-24.351-6.411-34.544-15.301l10.25-12.216
	c7.862,6.833,15.952,10.902,24.294,12.216v-27.242c-10.582-2.525-18.329-5.851-23.243-9.97c-4.914-4.119-7.371-10.227-7.371-18.323
	c0-8.096,2.823-14.718,8.49-19.872c5.668-5.148,13.038-7.953,22.123-8.422v-7.022h8.982v7.159
	c10.296,0.754,20.032,4.262,29.208,10.536l-9.13,12.918c-6.182-4.399-12.867-7.113-20.078-8.148v26.397h0.423
	c10.764,2.531,18.672,5.948,23.723,10.25c5.062,4.308,7.588,10.559,7.588,18.746c0,8.193-2.903,14.867-8.708,20.009
	c-5.805,5.154-13.473,7.959-23.026,8.428v10.107H299.151z M289.244,64.231c-2.388,2.103-3.577,4.725-3.577,7.862
	c0,3.137,0.937,5.616,2.811,7.439c1.863,1.828,5.428,3.582,10.673,5.268V60.505C294.935,60.882,291.632,62.122,289.244,64.231z
	 M318.806,125.8c2.617-2.148,3.931-4.862,3.931-8.142c0-3.274-1.028-5.874-3.085-7.793c-2.068-1.92-5.908-3.72-11.519-5.405v25.271
	C312.624,129.268,316.178,127.954,318.806,125.8z"/>
<path style="fill:#EBF0F3;" d="M417.626,160.779H50.667c-19.186,0-28.639,23.336-14.861,36.689l122.666,118.88
	c22.288,21.6,34.868,51.311,34.868,82.348v69.597h81.613v-69.595c0-31.037,12.58-60.748,34.868-82.348l122.666-118.881
	C446.265,184.115,436.812,160.779,417.626,160.779z"/>
<g>
	<circle style="fill:#D5D6DB;" cx="297.709" cy="266.74" r="15.073"/>
	<circle style="fill:#D5D6DB;" cx="187.592" cy="261.432" r="15.073"/>
	<circle style="fill:#D5D6DB;" cx="239.547" cy="345.082" r="15.073"/>
</g>
<g>
</g>
<g>
</g>
<g>
</g>
<g>
</g>
<g>
</g>
<g>
</g>
<g>
</g>
<g>
</g>
<g>
</g>
<g>
</g>
<g>
</g>
<g>
</g>
<g>
</g>
<g>
</g>
<g>
</g>
</svg>
