<?xml version="1.0" encoding="iso-8859-1"?>
<!-- Generator: Adobe Illustrator 19.0.0, SVG Export Plug-In . SVG Version: 6.00 Build 0)  -->
<svg version="1.1" id="Capa_1" xmlns="http://www.w3.org/2000/svg" xmlns:xlink="http://www.w3.org/1999/xlink" x="0px" y="0px"
	 viewBox="0 0 468.293 468.293" style="enable-background:new 0 0 468.293 468.293;" xml:space="preserve">
<path style="fill:#E1E6E9;" d="M468.293,167.259H0v256.747c0,13.794,11.182,24.976,24.976,24.976h376.829l66.488-66.489
	L468.293,167.259L468.293,167.259z"/>
<path style="fill:#27A2DB;" d="M468.293,167.259H0V91.585C0,81.24,8.387,72.853,18.732,72.853h430.829
	c10.345,0,18.732,8.386,18.732,18.732V167.259z"/>
<circle style="fill:#2D93BA;" cx="73.266" cy="112.971" r="31.22"/>
<path style="fill:#27A2DB;" d="M73.265,134.221c-11.719,0-21.254-9.534-21.254-21.251c0-11.719,9.534-21.254,21.254-21.254
	c11.717,0,21.251,9.534,21.251,21.254C94.516,124.687,84.982,134.221,73.265,134.221z"/>
<path style="fill:#64798A;" d="M73.263,119.214L73.263,119.214c-8.621,0-15.61-6.989-15.61-15.61V34.921
	c0-8.621,6.989-15.61,15.61-15.61h0c8.621,0,15.61,6.989,15.61,15.61v68.683C88.873,112.225,81.884,119.214,73.263,119.214z"/>
<circle style="fill:#2D93BA;" cx="395.027" cy="112.971" r="31.22"/>
<path style="fill:#27A2DB;" d="M395.029,134.221c-11.719,0-21.254-9.534-21.254-21.251c0-11.719,9.534-21.254,21.254-21.254
	c11.717,0,21.251,9.534,21.251,21.254C416.28,124.687,406.746,134.221,395.029,134.221z"/>
<path style="fill:#64798A;" d="M395.027,119.214L395.027,119.214c-8.621,0-15.61-6.989-15.61-15.61V34.921
	c0-8.621,6.989-15.61,15.61-15.61l0,0c8.621,0,15.61,6.989,15.61,15.61v68.683C410.637,112.225,403.648,119.214,395.027,119.214z"/>
<polygon style="fill:#EBF0F3;" points="401.805,448.981 468.293,382.494 401.805,382.493 "/>
<path style="fill:#64798A;" d="M248.994,327.11V290.56h31.985v36.551h23.98v30.556h-23.98v50.248h-31.985v-50.248h-85.66V327.97
	l73.38-119.643h36.841L201.314,327.11H248.994z"/>
<g>
</g>
<g>
</g>
<g>
</g>
<g>
</g>
<g>
</g>
<g>
</g>
<g>
</g>
<g>
</g>
<g>
</g>
<g>
</g>
<g>
</g>
<g>
</g>
<g>
</g>
<g>
</g>
<g>
</g>
</svg>
