<?xml version="1.0" encoding="iso-8859-1"?>
<!-- Generator: Adobe Illustrator 19.0.0, SVG Export Plug-In . SVG Version: 6.00 Build 0)  -->
<svg version="1.1" id="Capa_1" xmlns="http://www.w3.org/2000/svg" xmlns:xlink="http://www.w3.org/1999/xlink" x="0px" y="0px"
	 viewBox="0 0 468.293 468.293" style="enable-background:new 0 0 468.293 468.293;" xml:space="preserve">
<path style="fill:#3A556A;" d="M396.488,468.293H71.805c-13.794,0-24.976-11.182-24.976-24.976V24.976
	C46.829,11.182,58.011,0,71.805,0h324.683c13.794,0,24.976,11.182,24.976,24.976v418.341
	C421.463,457.111,410.281,468.293,396.488,468.293z"/>
<g>
	<path style="fill:#E56353;" d="M149.854,326.788H112.39c-3.448,0-6.244-2.795-6.244-6.244v-37.463c0-3.448,2.795-6.244,6.244-6.244
		h37.463c3.448,0,6.244,2.795,6.244,6.244v37.463C156.098,323.993,153.302,326.788,149.854,326.788z"/>
	<path style="fill:#E56353;" d="M218.537,326.788h-37.463c-3.448,0-6.244-2.795-6.244-6.244v-37.463
		c0-3.448,2.796-6.244,6.244-6.244h37.463c3.448,0,6.244,2.795,6.244,6.244v37.463C224.78,323.993,221.985,326.788,218.537,326.788z
		"/>
	<path style="fill:#E56353;" d="M287.22,326.788h-37.463c-3.448,0-6.244-2.795-6.244-6.244v-37.463c0-3.448,2.795-6.244,6.244-6.244
		h37.463c3.448,0,6.244,2.795,6.244,6.244v37.463C293.463,323.993,290.668,326.788,287.22,326.788z"/>
</g>
<g>
	<path style="fill:#27A2DB;" d="M149.854,407.959H112.39c-3.448,0-6.244-2.796-6.244-6.244v-37.463c0-3.448,2.795-6.244,6.244-6.244
		h37.463c3.448,0,6.244,2.795,6.244,6.244v37.463C156.098,405.163,153.302,407.959,149.854,407.959z"/>
	<path style="fill:#27A2DB;" d="M218.537,407.959h-37.463c-3.448,0-6.244-2.796-6.244-6.244v-37.463
		c0-3.448,2.796-6.244,6.244-6.244h37.463c3.448,0,6.244,2.795,6.244,6.244v37.463C224.78,405.163,221.985,407.959,218.537,407.959z
		"/>
</g>
<path style="fill:#E1E6E9;" d="M343.415,149.83H124.878c-10.345,0-18.732-8.386-18.732-18.732V72.822
	c0-10.345,8.386-18.732,18.732-18.732h218.537c10.345,0,18.732,8.386,18.732,18.732v58.276
	C362.146,141.443,353.76,149.83,343.415,149.83z"/>
<g>
	<path style="fill:#FCD462;" d="M149.854,195.666H112.39c-3.448,0-6.244,2.796-6.244,6.244v37.463c0,1.032,0.311,1.963,0.754,2.821
		c1.038-2.008,3.073-3.423,5.49-3.423h37.463c2.417,0,4.452,1.415,5.49,3.423c0.443-0.857,0.754-1.789,0.754-2.821V201.91
		C156.097,198.462,153.302,195.666,149.854,195.666z"/>
	<path style="fill:#FCD462;" d="M218.536,195.666h-37.463c-3.448,0-6.244,2.796-6.244,6.244v37.463c0,1.032,0.311,1.963,0.754,2.821
		c1.038-2.008,3.073-3.423,5.49-3.423h37.463c2.417,0,4.452,1.415,5.49,3.423c0.443-0.857,0.754-1.789,0.754-2.821V201.91
		C224.78,198.462,221.985,195.666,218.536,195.666z"/>
	<path style="fill:#FCD462;" d="M287.219,195.666h-37.463c-3.448,0-6.244,2.796-6.244,6.244v37.463c0,1.032,0.311,1.963,0.754,2.821
		c1.038-2.008,3.073-3.423,5.49-3.423h37.463c2.417,0,4.452,1.415,5.49,3.423c0.443-0.857,0.754-1.789,0.754-2.821V201.91
		C293.463,198.462,290.668,195.666,287.219,195.666z"/>
	<path style="fill:#FCD462;" d="M362.146,201.91c0-3.448-2.795-6.244-6.244-6.244h-37.463c-3.448,0-6.244,2.796-6.244,6.244v37.463
		c0,1.032,0.311,1.963,0.754,2.821c1.038-2.008,3.073-3.423,5.49-3.423h37.463c2.417,0,4.452,1.415,5.49,3.423
		c0.443-0.857,0.754-1.789,0.754-2.821V201.91z"/>
</g>
<g>
	<path style="fill:#F6C358;" d="M149.854,238.771H112.39c-2.417,0-4.452,1.415-5.49,3.423c1.038,2.008,3.073,3.423,5.49,3.423
		h37.463c2.417,0,4.452-1.415,5.49-3.423C154.306,240.186,152.271,238.771,149.854,238.771z"/>
	<path style="fill:#F6C358;" d="M218.536,238.771h-37.463c-2.417,0-4.452,1.415-5.49,3.423c1.038,2.008,3.073,3.423,5.49,3.423
		h37.463c2.417,0,4.452-1.415,5.49-3.423C222.989,240.186,220.953,238.771,218.536,238.771z"/>
	<path style="fill:#F6C358;" d="M287.219,238.771h-37.463c-2.417,0-4.452,1.415-5.49,3.423c1.038,2.008,3.073,3.423,5.49,3.423
		h37.463c2.417,0,4.452-1.415,5.49-3.423C291.672,240.186,289.636,238.771,287.219,238.771z"/>
	<path style="fill:#F6C358;" d="M355.902,238.771h-37.463c-2.417,0-4.452,1.415-5.49,3.423c1.038,2.008,3.073,3.423,5.49,3.423
		h37.463c2.417,0,4.452-1.415,5.49-3.423C360.355,240.186,358.319,238.771,355.902,238.771z"/>
</g>
<g>
	<path style="fill:#D15241;" d="M149.854,319.942H112.39c-2.417,0-4.452,1.415-5.49,3.423c1.038,2.008,3.073,3.423,5.49,3.423
		h37.463c2.417,0,4.452-1.415,5.49-3.423C154.306,321.357,152.271,319.942,149.854,319.942z"/>
	<path style="fill:#D15241;" d="M218.536,319.942h-37.463c-2.417,0-4.452,1.415-5.49,3.423c1.038,2.008,3.073,3.423,5.49,3.423
		h37.463c2.417,0,4.452-1.415,5.49-3.423C222.989,321.357,220.953,319.942,218.536,319.942z"/>
	<path style="fill:#D15241;" d="M287.219,319.942h-37.463c-2.417,0-4.452,1.415-5.49,3.423c1.038,2.008,3.073,3.423,5.49,3.423
		h37.463c2.417,0,4.452-1.415,5.49-3.423C291.672,321.357,289.636,319.942,287.219,319.942z"/>
</g>
<g>
	<path style="fill:#2D93BA;" d="M149.854,401.113H112.39c-2.417,0-4.452,1.415-5.49,3.423c1.038,2.008,3.073,3.423,5.49,3.423
		h37.463c2.417,0,4.452-1.415,5.49-3.423C154.306,402.527,152.271,401.113,149.854,401.113z"/>
	<path style="fill:#2D93BA;" d="M218.536,401.113h-37.463c-2.417,0-4.452,1.415-5.49,3.423c1.038,2.008,3.073,3.423,5.49,3.423
		h37.463c2.417,0,4.452-1.415,5.49-3.423C222.989,402.527,220.953,401.113,218.536,401.113z"/>
</g>
<path style="fill:#27A2DB;" d="M287.22,407.959h-37.463c-3.448,0-6.244-2.796-6.244-6.244v-37.463c0-3.448,2.795-6.244,6.244-6.244
	h37.463c3.448,0,6.244,2.795,6.244,6.244v37.463C293.463,405.163,290.668,407.959,287.22,407.959z"/>
<path style="fill:#2D93BA;" d="M287.973,401.113H250.51c-2.417,0-4.452,1.415-5.49,3.423c1.038,2.008,3.073,3.423,5.49,3.423h37.463
	c2.417,0,4.452-1.415,5.49-3.423C292.426,402.527,290.39,401.113,287.973,401.113z"/>
<path style="fill:#D5D6DB;" d="M124.878,149.83h218.537c6.984,0,13.005-3.868,16.226-9.535H108.652
	C111.873,145.962,117.894,149.83,124.878,149.83z"/>
<path style="fill:#3EA69B;" d="M355.902,401.715h-37.463c-3.449,0-6.244-2.796-6.244-6.244v6.244c0,3.448,2.795,6.244,6.244,6.244
	h37.463c3.449,0,6.244-2.796,6.244-6.244v-6.244C362.146,398.919,359.351,401.715,355.902,401.715z"/>
<path style="fill:#44C4A1;" d="M355.902,276.837h-37.463c-3.449,0-6.244,2.796-6.244,6.244v112.39c0,3.448,2.795,6.244,6.244,6.244
	h37.463c3.449,0,6.244-2.796,6.244-6.244v-112.39C362.146,279.633,359.351,276.837,355.902,276.837z"/>
<g>
</g>
<g>
</g>
<g>
</g>
<g>
</g>
<g>
</g>
<g>
</g>
<g>
</g>
<g>
</g>
<g>
</g>
<g>
</g>
<g>
</g>
<g>
</g>
<g>
</g>
<g>
</g>
<g>
</g>
</svg>
