<?xml version="1.0" encoding="iso-8859-1"?>
<!-- Generator: Adobe Illustrator 19.0.0, SVG Export Plug-In . SVG Version: 6.00 Build 0)  -->
<svg version="1.1" id="Capa_1" xmlns="http://www.w3.org/2000/svg" xmlns:xlink="http://www.w3.org/1999/xlink" x="0px" y="0px"
	 viewBox="0 0 468.293 468.293" style="enable-background:new 0 0 468.293 468.293;" xml:space="preserve">
<path style="fill:#F6C358;" d="M449.561,219.419H18.732C8.386,219.419,0,211.033,0,200.687V75.809
	c0-10.345,8.386-18.732,18.732-18.732h430.829c10.345,0,18.732,8.386,18.732,18.732v124.878
	C468.293,211.033,459.906,219.419,449.561,219.419z"/>
<path style="fill:#64798A;" d="M377.756,150.736H90.537c-6.897,0-12.488-5.591-12.488-12.488v0c0-6.897,5.591-12.488,12.488-12.488
	h287.22c6.897,0,12.488,5.591,12.488,12.488v0C390.244,145.145,384.653,150.736,377.756,150.736z"/>
<path style="fill:#2D93BA;" d="M348.703,411.215H119.59c-10.828,0-19.401-9.154-18.691-19.958l17.422-265.496h231.652
	l17.422,265.496C368.104,402.061,359.531,411.215,348.703,411.215z"/>
<g>
	<polygon style="fill:#E1E6E9;" points="180.134,373.593 157.931,373.593 159.568,298.913 178.497,298.913 	"/>
	<polygon style="fill:#E1E6E9;" points="178.031,277.645 160.034,277.645 161.141,227.17 176.924,227.17 	"/>
	<polygon style="fill:#E1E6E9;" points="176.598,199.772 161.468,199.772 162.265,163.383 175.8,163.383 	"/>
</g>
<polygon style="fill:#3A556A;" points="310.361,411.215 249.615,411.215 255.704,125.761 304.272,125.761 "/>
<g>
</g>
<g>
</g>
<g>
</g>
<g>
</g>
<g>
</g>
<g>
</g>
<g>
</g>
<g>
</g>
<g>
</g>
<g>
</g>
<g>
</g>
<g>
</g>
<g>
</g>
<g>
</g>
<g>
</g>
</svg>
