<?xml version="1.0" encoding="iso-8859-1"?>
<!-- Generator: Adobe Illustrator 19.0.0, SVG Export Plug-In . SVG Version: 6.00 Build 0)  -->
<svg version="1.1" id="Capa_1" xmlns="http://www.w3.org/2000/svg" xmlns:xlink="http://www.w3.org/1999/xlink" x="0px" y="0px"
	 viewBox="0 0 468.293 468.293" style="enable-background:new 0 0 468.293 468.293;" xml:space="preserve">
<rect x="123.885" y="61.621" style="fill:#F6C358;" width="220.535" height="406.665"/>
<g>
	<rect x="344.407" y="208.409" style="fill:#FCD462;" width="123.885" height="259.884"/>
	<rect y="208.409" style="fill:#FCD462;" width="123.885" height="259.884"/>
</g>
<rect x="234.146" style="fill:#DC8744;" width="12.488" height="61.621"/>
<rect x="234.146" style="fill:#E56353;" width="53.248" height="33.767"/>
<g>
	<path style="fill:#64798A;" d="M385.619,278.544h-14.35c-3.448,0-6.244-2.796-6.244-6.244v-32.242c0-3.448,2.796-6.244,6.244-6.244
		h14.35c3.448,0,6.244,2.795,6.244,6.244V272.3C391.863,275.748,389.068,278.544,385.619,278.544z"/>
	<path style="fill:#64798A;" d="M441.434,278.544h-14.35c-3.448,0-6.244-2.796-6.244-6.244v-32.242c0-3.448,2.796-6.244,6.244-6.244
		h14.35c3.448,0,6.244,2.795,6.244,6.244V272.3C447.678,275.748,444.882,278.544,441.434,278.544z"/>
	<path style="fill:#64798A;" d="M385.619,360.715h-14.35c-3.448,0-6.244-2.795-6.244-6.244v-32.242c0-3.448,2.796-6.244,6.244-6.244
		h14.35c3.448,0,6.244,2.795,6.244,6.244v32.242C391.863,357.919,389.068,360.715,385.619,360.715z"/>
	<path style="fill:#64798A;" d="M441.434,360.715h-14.35c-3.448,0-6.244-2.795-6.244-6.244v-32.242c0-3.448,2.796-6.244,6.244-6.244
		h14.35c3.448,0,6.244,2.795,6.244,6.244v32.242C447.678,357.919,444.882,360.715,441.434,360.715z"/>
	<path style="fill:#64798A;" d="M385.619,442.885h-14.35c-3.448,0-6.244-2.795-6.244-6.244v-32.242c0-3.448,2.796-6.244,6.244-6.244
		h14.35c3.448,0,6.244,2.796,6.244,6.244v32.242C391.863,440.09,389.068,442.885,385.619,442.885z"/>
	<path style="fill:#64798A;" d="M441.434,442.885h-14.35c-3.448,0-6.244-2.795-6.244-6.244v-32.242c0-3.448,2.796-6.244,6.244-6.244
		h14.35c3.448,0,6.244,2.796,6.244,6.244v32.242C447.678,440.09,444.882,442.885,441.434,442.885z"/>
	<path style="fill:#64798A;" d="M41.209,278.544h-14.35c-3.448,0-6.244-2.796-6.244-6.244v-32.242c0-3.448,2.795-6.244,6.244-6.244
		h14.35c3.448,0,6.244,2.795,6.244,6.244V272.3C47.453,275.748,44.658,278.544,41.209,278.544z"/>
	<path style="fill:#64798A;" d="M97.023,278.544h-14.35c-3.448,0-6.244-2.796-6.244-6.244v-32.242c0-3.448,2.795-6.244,6.244-6.244
		h14.35c3.448,0,6.244,2.795,6.244,6.244V272.3C103.267,275.748,100.472,278.544,97.023,278.544z"/>
	<path style="fill:#64798A;" d="M41.209,360.715h-14.35c-3.448,0-6.244-2.795-6.244-6.244v-32.242c0-3.448,2.795-6.244,6.244-6.244
		h14.35c3.448,0,6.244,2.795,6.244,6.244v32.242C47.453,357.919,44.658,360.715,41.209,360.715z"/>
	<path style="fill:#64798A;" d="M97.023,360.715h-14.35c-3.448,0-6.244-2.795-6.244-6.244v-32.242c0-3.448,2.795-6.244,6.244-6.244
		h14.35c3.448,0,6.244,2.795,6.244,6.244v32.242C103.267,357.919,100.472,360.715,97.023,360.715z"/>
	<path style="fill:#64798A;" d="M41.209,442.885h-14.35c-3.448,0-6.244-2.795-6.244-6.244v-32.242c0-3.448,2.795-6.244,6.244-6.244
		h14.35c3.448,0,6.244,2.796,6.244,6.244v32.242C47.453,440.09,44.658,442.885,41.209,442.885z"/>
	<path style="fill:#64798A;" d="M97.023,442.885h-14.35c-3.448,0-6.244-2.795-6.244-6.244v-32.242c0-3.448,2.795-6.244,6.244-6.244
		h14.35c3.448,0,6.244,2.796,6.244,6.244v32.242C103.267,440.09,100.472,442.885,97.023,442.885z"/>
	<path style="fill:#64798A;" d="M202.736,159.883h-29.659c-3.448,0-6.244-2.796-6.244-6.244V95.883c0-3.448,2.795-6.244,6.244-6.244
		h29.659c3.448,0,6.244,2.795,6.244,6.244v57.756C208.98,157.087,206.185,159.883,202.736,159.883z"/>
	<path style="fill:#64798A;" d="M295.215,159.883h-29.659c-3.448,0-6.244-2.796-6.244-6.244V95.883c0-3.448,2.796-6.244,6.244-6.244
		h29.659c3.448,0,6.244,2.795,6.244,6.244v57.756C301.459,157.087,298.664,159.883,295.215,159.883z"/>
	<path style="fill:#64798A;" d="M202.736,261.29h-29.659c-3.448,0-6.244-2.796-6.244-6.244V197.29c0-3.448,2.795-6.244,6.244-6.244
		h29.659c3.448,0,6.244,2.795,6.244,6.244v57.756C208.98,258.495,206.185,261.29,202.736,261.29z"/>
	<path style="fill:#64798A;" d="M295.215,261.29h-29.659c-3.448,0-6.244-2.796-6.244-6.244V197.29c0-3.448,2.796-6.244,6.244-6.244
		h29.659c3.448,0,6.244,2.795,6.244,6.244v57.756C301.459,258.495,298.664,261.29,295.215,261.29z"/>
	<path style="fill:#64798A;" d="M202.736,362.698h-29.659c-3.448,0-6.244-2.795-6.244-6.244v-57.756
		c0-3.448,2.795-6.244,6.244-6.244h29.659c3.448,0,6.244,2.795,6.244,6.244v57.756C208.98,359.902,206.185,362.698,202.736,362.698z
		"/>
	<path style="fill:#64798A;" d="M295.215,362.698h-29.659c-3.448,0-6.244-2.795-6.244-6.244v-57.756
		c0-3.448,2.796-6.244,6.244-6.244h29.659c3.448,0,6.244,2.795,6.244,6.244v57.756C301.459,359.902,298.664,362.698,295.215,362.698
		z"/>
	<path style="fill:#64798A;" d="M268.629,468.293h-68.966v-58.846c0-10.345,8.386-18.732,18.732-18.732h31.503
		c10.345,0,18.732,8.386,18.732,18.732V468.293z"/>
</g>
<g>
</g>
<g>
</g>
<g>
</g>
<g>
</g>
<g>
</g>
<g>
</g>
<g>
</g>
<g>
</g>
<g>
</g>
<g>
</g>
<g>
</g>
<g>
</g>
<g>
</g>
<g>
</g>
<g>
</g>
</svg>
