<?xml version="1.0" encoding="iso-8859-1"?>
<!-- Generator: Adobe Illustrator 19.0.0, SVG Export Plug-In . SVG Version: 6.00 Build 0)  -->
<svg version="1.1" id="Capa_1" xmlns="http://www.w3.org/2000/svg" xmlns:xlink="http://www.w3.org/1999/xlink" x="0px" y="0px"
	 viewBox="0 0 468.293 468.293" style="enable-background:new 0 0 468.293 468.293;" xml:space="preserve">
<path style="fill:#FCD462;" d="M318.298,92.27c0,44.462-34.475,80.87-78.131,83.931c-2.014,0.161-4.027,0.242-6.041,0.242
	c-2.014,0-4.027-0.081-6.041-0.242c-43.617-3.061-78.091-39.468-78.091-83.931c0-46.476,37.696-84.132,84.132-84.132
	C280.602,8.138,318.298,45.794,318.298,92.27z"/>
<path style="fill:#F6C358;" d="M234.147,153.873c-33.957,0-61.583-27.629-61.583-61.587s27.626-61.583,61.583-61.583
	s61.583,27.626,61.583,61.583S268.104,153.873,234.147,153.873z"/>
<path style="fill:#DC8744;" d="M231.775,137.04v-7.881c-9.867-1.006-18.724-4.929-26.562-11.765l7.882-9.393
	c6.045,5.254,12.266,8.382,18.68,9.393V96.446c-8.136-1.942-14.094-4.499-17.872-7.666s-5.667-7.864-5.667-14.089
	c0-6.225,2.17-11.317,6.528-15.28c4.358-3.958,10.025-6.115,17.011-6.476v-5.399h6.906v5.505c7.917,0.58,15.403,3.277,22.458,8.101
	l-7.02,9.933c-4.753-3.383-9.894-5.47-15.438-6.265v20.297h0.325c8.277,1.946,14.357,4.573,18.241,7.881
	c3.892,3.313,5.834,8.119,5.834,14.414c0,6.3-2.232,11.431-6.695,15.385c-4.464,3.963-10.359,6.12-17.705,6.48v7.772H231.775z
	 M224.157,67.35c-1.836,1.617-2.75,3.633-2.75,6.045c0,2.412,0.721,4.319,2.161,5.72c1.432,1.406,4.174,2.755,8.207,4.051v-18.68
	C228.533,64.776,225.993,65.729,224.157,67.35z M246.888,114.692c2.012-1.652,3.023-3.739,3.023-6.26
	c0-2.517-0.791-4.516-2.372-5.992c-1.59-1.476-4.543-2.86-8.857-4.156v19.431C242.134,117.358,244.867,116.348,246.888,114.692z"/>
<path style="fill:#27A2DB;" d="M443.317,460.155H24.976C11.182,460.155,0,448.973,0,435.179V173.23
	c0-13.794,11.182-24.976,24.976-24.976h418.341c13.794,0,24.976,11.182,24.976,24.976v261.949
	C468.293,448.973,457.111,460.155,443.317,460.155z"/>
<rect y="183.29" style="fill:#3A556A;" width="468.293" height="63.713"/>
<circle style="fill:#FCD462;" cx="79.778" cy="385.561" r="39.543"/>
<circle style="fill:#E56353;" cx="131.809" cy="385.561" r="39.543"/>
<g>
	<path style="fill:#2D93BA;" d="M343.216,293.654H125.077c-3.448,0-6.244-2.796-6.244-6.244l0,0c0-3.448,2.795-6.244,6.244-6.244
		h218.139c3.448,0,6.244,2.795,6.244,6.244l0,0C349.46,290.858,346.664,293.654,343.216,293.654z"/>
	<path style="fill:#2D93BA;" d="M343.216,324.873H125.077c-3.448,0-6.244-2.796-6.244-6.244l0,0c0-3.448,2.795-6.244,6.244-6.244
		h218.139c3.448,0,6.244,2.795,6.244,6.244l0,0C349.46,322.078,346.664,324.873,343.216,324.873z"/>
</g>
<g>
</g>
<g>
</g>
<g>
</g>
<g>
</g>
<g>
</g>
<g>
</g>
<g>
</g>
<g>
</g>
<g>
</g>
<g>
</g>
<g>
</g>
<g>
</g>
<g>
</g>
<g>
</g>
<g>
</g>
</svg>
