<?xml version="1.0" encoding="iso-8859-1"?>
<!-- Generator: Adobe Illustrator 19.0.0, SVG Export Plug-In . SVG Version: 6.00 Build 0)  -->
<svg version="1.1" id="Capa_1" xmlns="http://www.w3.org/2000/svg" xmlns:xlink="http://www.w3.org/1999/xlink" x="0px" y="0px"
	 viewBox="0 0 468.293 468.293" style="enable-background:new 0 0 468.293 468.293;" xml:space="preserve">
<path style="fill:#64798A;" d="M410.837,385.307c-12.621-18.677-23.258-38.657-28.917-60.477
	c-22.774-87.815-46.105-166.961-93.012-191.636c-0.014-0.007-0.054,0.013-0.064,0C272.252,111.322,318.432,27.44,318.432,27.44
	c2.046-7.315-3.453-14.562-11.047-14.562l0,0c-5.118,0-10.165-2.123-13.239-6.214C291.086,2.591,286.543,0,281.434,0
	c-2.309,0-4.107,0.806-5.68,2.056c-5.643,4.485-15.096,4.07-21.296,0.394c-1.316-0.78-2.789-1.257-4.549-1.257
	c-1.905,0-3.472,0.56-4.865,1.46c-6.065,3.915-15.532,4.055-21.413-0.133c-1.482-1.055-3.16-1.725-5.248-1.725
	c-1.932,0-3.515,0.572-4.917,1.493c-6.035,3.961-15.463,4.101-21.311-0.131c-1.488-1.077-3.18-1.759-5.296-1.759
	c-4.834,0-9.166,2.318-12.213,6.016c-3.183,3.862-7.626,6.465-12.631,6.465h-1.105c-7.595,0-13.094,7.248-11.047,14.562
	c0,0,46.179,83.882,29.586,105.754c-0.01,0.013-0.05-0.007-0.064,0c-46.91,24.677-70.24,103.832-93.017,191.654
	c-5.657,21.813-16.291,41.786-28.91,60.456c-5.766,8.531-8.609,19.196-7.089,30.579c2.572,19.261,18.234,34.898,37.489,37.516
	c5.719,0.778,11.248,0.438,16.418-0.82c9.809-2.386,20.022-2.336,29.556,0.982c56.448,19.641,144.184,19.641,200.63,0
	c9.536-3.318,19.75-3.367,29.561-0.981c5.165,1.256,10.687,1.595,16.4,0.821c19.256-2.611,34.923-18.242,37.502-37.502
	C419.448,404.511,416.605,393.842,410.837,385.307z"/>
<path style="fill:#FCD462;" d="M331.741,132.472H181.752c-5.766,0-10.441-4.675-10.441-10.441v-9.479
	c0-5.766,4.675-10.441,10.441-10.441h149.988l-12.144,15.18L331.741,132.472z"/>
<circle style="fill:#EBF0F3;" cx="234.146" cy="333.012" r="98.479"/>
<circle style="fill:#D5D6DB;" cx="234.146" cy="333.012" r="78.942"/>
<path style="fill:#EBF0F3;" d="M230.773,396.64v-11.206c-14.03-1.43-26.623-7.009-37.767-16.728l11.206-13.355
	c8.595,7.471,17.44,11.918,26.56,13.355v-29.783c-11.569-2.761-20.039-6.396-25.411-10.9c-5.372-4.504-8.058-11.181-8.058-20.033
	c0-8.851,3.086-16.091,9.282-21.725c6.197-5.628,14.255-8.695,24.187-9.207v-7.677h9.82v7.827c11.256,0.825,21.9,4.66,31.932,11.519
	l-9.982,14.123c-6.759-4.81-14.067-7.777-21.95-8.908V322.8h0.462c11.768,2.767,20.414,6.503,25.936,11.206
	c5.534,4.71,8.295,11.544,8.295,20.495c0,8.958-3.173,16.254-9.52,21.875c-6.346,5.634-14.729,8.701-25.174,9.214v11.05H230.773z
	 M219.942,297.552c-2.611,2.299-3.91,5.166-3.91,8.595c0,3.429,1.024,6.14,3.073,8.133c2.036,1.999,5.934,3.917,11.669,5.759v-26.56
	C226.163,293.891,222.553,295.247,219.942,297.552z M252.261,364.864c2.861-2.349,4.298-5.316,4.298-8.901
	c0-3.579-1.124-6.421-3.373-8.52c-2.261-2.099-6.459-4.066-12.593-5.909v27.628C245.503,368.656,249.388,367.219,252.261,364.864z"
	/>
<g>
</g>
<g>
</g>
<g>
</g>
<g>
</g>
<g>
</g>
<g>
</g>
<g>
</g>
<g>
</g>
<g>
</g>
<g>
</g>
<g>
</g>
<g>
</g>
<g>
</g>
<g>
</g>
<g>
</g>
</svg>
