<?xml version="1.0" encoding="iso-8859-1"?>
<!-- Generator: Adobe Illustrator 19.0.0, SVG Export Plug-In . SVG Version: 6.00 Build 0)  -->
<svg version="1.1" id="Capa_1" xmlns="http://www.w3.org/2000/svg" xmlns:xlink="http://www.w3.org/1999/xlink" x="0px" y="0px"
	 viewBox="0 0 468.293 468.293" style="enable-background:new 0 0 468.293 468.293;" xml:space="preserve">
<path style="fill:#EBF0F3;" d="M468.293,234.454H123.995v-36.601h331.81c6.897,0,12.488,5.591,12.488,12.488V234.454z"/>
<path style="fill:#27A2DB;" d="M455.805,393.997H136.483c-6.897,0-12.488-5.591-12.488-12.488V234.454h344.298v147.055
	C468.293,388.406,462.702,393.997,455.805,393.997z"/>
<g>
	<rect x="149.042" y="272.234" style="fill:#D5D6DB;" width="195.753" height="13.05"/>
	<rect x="149.042" y="307.699" style="fill:#D5D6DB;" width="195.753" height="13.05"/>
	<rect x="149.042" y="343.165" style="fill:#D5D6DB;" width="294.213" height="13.05"/>
	<rect x="362.084" y="272.234" style="fill:#D5D6DB;" width="81.171" height="48.54"/>
</g>
<path style="fill:#3A556A;" d="M42.528,74.296C27.492,74.296,0,101.788,0,116.824c0,14.916,32.196,39.261,47.447,49.957
	c4.481,3.142,10.557,2.602,14.427-1.268l3.181-3.181l48.153,48.153l22.982-22.982l-48.153-48.153l3.181-3.181
	c3.87-3.87,4.41-9.946,1.268-14.427C81.789,106.492,57.444,74.296,42.528,74.296z"/>
<path style="fill:#E56353;" d="M209.684,171.464L97.168,283.98l-2.237-2.237c-14.63-14.63-14.63-38.351,0-52.981l59.535-59.535
	c14.63-14.63,38.351-14.63,52.981,0L209.684,171.464z"/>
<path style="fill:#1C75A1;" d="M203.994,198.654l-79.636,79.636c-4.877,4.877-12.784,4.877-17.66,0l-1.92-1.92l97.296-97.296
	l1.92,1.92C208.871,185.871,208.871,193.778,203.994,198.654z"/>
<circle style="fill:#DC8744;" cx="139.064" cy="213.36" r="11.177"/>
<g>
</g>
<g>
</g>
<g>
</g>
<g>
</g>
<g>
</g>
<g>
</g>
<g>
</g>
<g>
</g>
<g>
</g>
<g>
</g>
<g>
</g>
<g>
</g>
<g>
</g>
<g>
</g>
<g>
</g>
</svg>
