<?xml version="1.0" encoding="iso-8859-1"?>
<!-- Generator: Adobe Illustrator 19.0.0, SVG Export Plug-In . SVG Version: 6.00 Build 0)  -->
<svg version="1.1" id="Capa_1" xmlns="http://www.w3.org/2000/svg" xmlns:xlink="http://www.w3.org/1999/xlink" x="0px" y="0px"
	 viewBox="0 0 468.293 468.293" style="enable-background:new 0 0 468.293 468.293;" xml:space="preserve">
<polygon style="fill:#FCD462;" points="144.209,132.885 71.943,182.783 90.87,230.387 131.018,238.99 190.666,185.937 
	212.46,146.076 179.768,132.885 "/>
<path style="fill:#27A2DB;" d="M449.561,254.512H188.58c-10.345,0-18.732-8.386-18.732-18.732V93.387
	c0-10.345,8.386-18.732,18.732-18.732h260.981c10.345,0,18.732,8.386,18.732,18.732V235.78
	C468.293,246.126,459.906,254.512,449.561,254.512z"/>
<rect x="169.847" y="107.539" style="fill:#1C75A1;" width="298.446" height="34.96"/>
<path style="fill:#F6C358;" d="M224.864,143.852c-8.324-8.996-21.171-9.826-30.471-3.704c-11.299,11.3-26.188,30.256-25.904,30.296
	l-29.986,40.543c-5.451,6.796-14.352,9.808-22.812,7.72l0,0c-18.491-4.567-23.179-28.679-7.746-39.842l37.962-27.46l23.941,4.257
	v-48.186l-25.54-4.54c-6.33-1.125-12.845,0.367-18.054,4.135l-92.897,67.202c-4.938,3.572-8.311,8.908-9.419,14.901l-6.484,139.124
	h158.53c5.863-16.713,11.47-41.422,6.651-67.464c-2.726-14.73,0.701-29.929,10.074-41.615l32.392-43.548
	C232.577,166.35,232.979,152.622,224.864,143.852z"/>
<path style="fill:#E56353;" d="M180.099,393.638H12.488C5.591,393.638,0,388.047,0,381.15v-40.365
	c0-6.897,5.591-12.488,12.488-12.488h167.611c6.897,0,12.488,5.591,12.488,12.488v40.365
	C192.587,388.047,186.996,393.638,180.099,393.638z"/>
<g>
	<circle style="fill:#E1E6E9;" cx="154.474" cy="360.96" r="14.386"/>
	<path style="fill:#E1E6E9;" d="M196.102,155.1l-14.233,16.697c-2.42,2.838-1.917,7.134,1.092,9.338l10.798,7.906
		c2.821,2.065,6.776,1.491,8.894-1.291l14.292-18.775c1.042-1.369,1.477-3.079,1.254-4.784c-0.691-5.29-3.955-15.557-19.092-11.087
		C197.944,153.447,196.89,154.176,196.102,155.1z"/>
	<path style="fill:#E1E6E9;" d="M370.899,213.745h-26.002c-3.448,0-6.244-2.796-6.244-6.244v-0.342c0-3.448,2.795-6.244,6.244-6.244
		h26.002c3.448,0,6.244,2.795,6.244,6.244v0.342C377.143,210.949,374.347,213.745,370.899,213.745z"/>
	<path style="fill:#E1E6E9;" d="M430.465,213.745h-26.002c-3.448,0-6.244-2.796-6.244-6.244v-0.342c0-3.448,2.796-6.244,6.244-6.244
		h26.002c3.448,0,6.244,2.795,6.244,6.244v0.342C436.708,210.949,433.913,213.745,430.465,213.745z"/>
</g>
<g>
</g>
<g>
</g>
<g>
</g>
<g>
</g>
<g>
</g>
<g>
</g>
<g>
</g>
<g>
</g>
<g>
</g>
<g>
</g>
<g>
</g>
<g>
</g>
<g>
</g>
<g>
</g>
<g>
</g>
</svg>
