<?xml version="1.0" encoding="iso-8859-1"?>
<!-- Generator: Adobe Illustrator 19.0.0, SVG Export Plug-In . SVG Version: 6.00 Build 0)  -->
<svg version="1.1" id="Capa_1" xmlns="http://www.w3.org/2000/svg" xmlns:xlink="http://www.w3.org/1999/xlink" x="0px" y="0px"
	 viewBox="0 0 468.293 468.293" style="enable-background:new 0 0 468.293 468.293;" xml:space="preserve">
<path style="fill:#E1E6E9;" d="M131.227,0L57.28,73.948v280.844c0,10.414,8.443,18.857,18.857,18.857h242.436V18.857
	C318.572,8.443,310.129,0,299.715,0H131.227z"/>
<polygon style="fill:#EBF0F3;" points="131.227,73.948 131.227,0 57.28,73.948 "/>
<g>
	<path style="fill:#D5D6DB;" d="M263.773,131.993H112.079c-3.24,0-5.867-2.627-5.867-5.867v-0.838c0-3.24,2.627-5.867,5.867-5.867
		h151.693c3.24,0,5.867,2.627,5.867,5.867v0.838C269.639,129.367,267.013,131.993,263.773,131.993z"/>
	<path style="fill:#D5D6DB;" d="M263.773,178.772H112.079c-3.24,0-5.867-2.627-5.867-5.867v-0.838c0-3.24,2.627-5.867,5.867-5.867
		h151.693c3.24,0,5.867,2.627,5.867,5.867v0.838C269.639,176.146,267.013,178.772,263.773,178.772z"/>
	<path style="fill:#D5D6DB;" d="M263.773,225.552H112.079c-3.24,0-5.867-2.627-5.867-5.867v-0.838c0-3.24,2.627-5.867,5.867-5.867
		h151.693c3.24,0,5.867,2.627,5.867,5.867v0.838C269.639,222.925,267.013,225.552,263.773,225.552z"/>
	<path style="fill:#D5D6DB;" d="M263.773,272.331H112.079c-3.24,0-5.867-2.627-5.867-5.867v-0.838c0-3.24,2.627-5.867,5.867-5.867
		h151.693c3.24,0,5.867,2.627,5.867,5.867v0.838C269.639,269.704,267.013,272.331,263.773,272.331z"/>
	<path style="fill:#D5D6DB;" d="M263.773,319.11H112.079c-3.24,0-5.867-2.627-5.867-5.867v-0.838c0-3.24,2.627-5.867,5.867-5.867
		h151.693c3.24,0,5.867,2.627,5.867,5.867v0.838C269.639,316.484,267.013,319.11,263.773,319.11z"/>
</g>
<path style="fill:#64798A;" d="M392.281,468.293H249.48c-10.345,0-18.732-8.386-18.732-18.732V259.635
	c0-10.345,8.386-18.732,18.732-18.732h142.801c10.345,0,18.732,8.386,18.732,18.732v189.926
	C411.013,459.906,402.627,468.293,392.281,468.293z"/>
<g>
	<path style="fill:#D5D6DB;" d="M284.391,382.787h-24.035c-3.448,0-6.244-2.796-6.244-6.244v-24.035
		c0-3.448,2.795-6.244,6.244-6.244h24.035c3.448,0,6.244,2.795,6.244,6.244v24.035C290.634,379.992,287.839,382.787,284.391,382.787
		z"/>
	<path style="fill:#D5D6DB;" d="M332.898,382.787h-24.035c-3.448,0-6.244-2.796-6.244-6.244v-24.035
		c0-3.448,2.796-6.244,6.244-6.244h24.035c3.448,0,6.244,2.795,6.244,6.244v24.035C339.142,379.992,336.346,382.787,332.898,382.787
		z"/>
	<path style="fill:#D5D6DB;" d="M284.391,437.71h-24.035c-3.448,0-6.244-2.795-6.244-6.244v-24.035c0-3.448,2.795-6.244,6.244-6.244
		h24.035c3.448,0,6.244,2.796,6.244,6.244v24.035C290.634,434.914,287.839,437.71,284.391,437.71z"/>
	<path style="fill:#D5D6DB;" d="M332.898,437.71h-24.035c-3.448,0-6.244-2.795-6.244-6.244v-24.035c0-3.448,2.796-6.244,6.244-6.244
		h24.035c3.448,0,6.244,2.796,6.244,6.244v24.035C339.142,434.914,336.346,437.71,332.898,437.71z"/>
</g>
<path style="fill:#E56353;" d="M381.406,437.708h-24.035c-3.448,0-6.244-2.795-6.244-6.244v-78.956c0-3.448,2.796-6.244,6.244-6.244
	h24.035c3.448,0,6.244,2.795,6.244,6.244v78.956C387.65,434.913,384.854,437.708,381.406,437.708z"/>
<path style="fill:#EBF0F3;" d="M380.458,321.59H261.304c-6.897,0-12.488-5.591-12.488-12.488v-25.129
	c0-6.897,5.591-12.488,12.488-12.488h119.154c6.897,0,12.488,5.591,12.488,12.488v25.129
	C392.946,315.999,387.355,321.59,380.458,321.59z"/>
<g>
	<path style="fill:#FFFFFF;" d="M281.802,361.383h-6.286v-6.286c0-1.737-1.406-3.143-3.143-3.143c-1.737,0-3.143,1.406-3.143,3.143
		v6.286h-6.286c-1.737,0-3.143,1.406-3.143,3.143c0,1.737,1.406,3.143,3.143,3.143h6.286v6.286c0,1.737,1.406,3.143,3.143,3.143
		c1.737,0,3.143-1.406,3.143-3.143v-6.286h6.286c1.737,0,3.143-1.406,3.143-3.143C284.944,362.789,283.539,361.383,281.802,361.383z
		"/>
	<path style="fill:#FFFFFF;" d="M330.309,367.669h-18.857c-1.737,0-3.143-1.406-3.143-3.143c0-1.737,1.406-3.143,3.143-3.143h18.857
		c1.737,0,3.143,1.406,3.143,3.143C333.452,366.263,332.046,367.669,330.309,367.669z"/>
	<path style="fill:#FFFFFF;" d="M378.11,385.701h-17.443c-1.607,0-2.907-1.406-2.907-3.143c0-1.737,1.3-3.143,2.907-3.143h17.443
		c1.607,0,2.907,1.406,2.907,3.143C381.017,384.295,379.716,385.701,378.11,385.701z"/>
	<path style="fill:#FFFFFF;" d="M378.11,404.558h-17.443c-1.607,0-2.907-1.406-2.907-3.143c0-1.737,1.3-3.143,2.907-3.143h17.443
		c1.607,0,2.907,1.406,2.907,3.143C381.017,403.152,379.716,404.558,378.11,404.558z"/>
	<path style="fill:#FFFFFF;" d="M278.069,419.449l5.695-5.696c1.574-1.574,1.574-4.121,0-5.695c-1.574-1.574-4.121-1.574-5.695,0
		l-5.695,5.695l-5.695-5.695c-1.574-1.574-4.121-1.574-5.695,0c-1.574,1.574-1.574,4.121,0,5.695l5.695,5.696l-5.695,5.695
		c-1.574,1.574-1.574,4.121,0,5.695c1.574,1.574,4.121,1.574,5.695,0l5.695-5.695l5.695,5.695c1.574,1.574,4.121,1.574,5.695,0
		c1.574-1.574,1.574-4.121,0-5.695L278.069,419.449z"/>
	<path style="fill:#FFFFFF;" d="M331.417,414.18l-15.805,15.806c-1.456,1.456-3.812,1.456-5.268,0c-1.456-1.456-1.456-3.812,0-5.268
		l15.805-15.806c1.456-1.456,3.812-1.456,5.268,0S332.873,412.724,331.417,414.18z"/>
</g>
<g>
</g>
<g>
</g>
<g>
</g>
<g>
</g>
<g>
</g>
<g>
</g>
<g>
</g>
<g>
</g>
<g>
</g>
<g>
</g>
<g>
</g>
<g>
</g>
<g>
</g>
<g>
</g>
<g>
</g>
</svg>
