<?xml version="1.0" encoding="iso-8859-1"?>
<!-- Generator: Adobe Illustrator 19.0.0, SVG Export Plug-In . SVG Version: 6.00 Build 0)  -->
<svg version="1.1" id="Capa_1" xmlns="http://www.w3.org/2000/svg" xmlns:xlink="http://www.w3.org/1999/xlink" x="0px" y="0px"
	 viewBox="0 0 468.293 468.293" style="enable-background:new 0 0 468.293 468.293;" xml:space="preserve">
<ellipse transform="matrix(-0.475 -0.88 0.88 -0.475 25.6648 310.0244)" style="fill:#D15241;" cx="105.319" cy="147.356" rx="68.602" ry="49.414"/>
<path style="fill:#E56353;" d="M119.952,190.313c-10.976,0-27.823-9.344-38.891-29.856c-6.455-11.953-9.326-25.21-7.869-36.374
	c0.654-5.029,2.815-14.039,9.923-17.878c2.246-1.212,4.72-1.798,7.578-1.798c10.976,0,27.83,9.344,38.905,29.859
	c13.087,24.247,9.412,48.053-2.061,54.249C125.297,189.723,122.816,190.313,119.952,190.313z"/>
<ellipse transform="matrix(-0.88 -0.475 0.475 -0.88 612.3905 449.4981)" style="fill:#D15241;" cx="362.974" cy="147.394" rx="49.414" ry="68.602"/>
<g>
	<path style="fill:#E56353;" d="M348.355,190.313c-2.865,0-5.346-0.59-7.585-1.798c-11.473-6.195-15.148-30.001-2.054-54.252
		c11.068-20.512,27.922-29.856,38.898-29.856c2.858,0,5.331,0.586,7.578,1.798c7.109,3.839,9.27,12.849,9.923,17.878
		c1.457,11.164-1.415,24.421-7.862,36.371C376.185,180.969,359.331,190.313,348.355,190.313L348.355,190.313z"/>
	<path style="fill:#E56353;" d="M157.11,468.293H97.357c-4.877,0-8.374-4.701-6.972-9.372l23.534-53.273
		c1.848-6.157,7.515-10.373,13.944-10.373h44.554c9.753,0,16.748,9.403,13.944,18.744l-22.278,49.087
		C163.158,466.185,160.324,468.293,157.11,468.293z"/>
	<path style="fill:#E56353;" d="M311.196,468.293h59.754c4.876,0,8.374-4.701,6.972-9.372l-23.534-53.273
		c-1.848-6.157-7.515-10.373-13.944-10.373H295.89c-9.753,0-16.748,9.403-13.944,18.744l22.278,49.087
		C305.149,466.185,307.982,468.293,311.196,468.293z"/>
</g>
<ellipse style="fill:#D15241;" cx="234.153" cy="270.736" rx="182.26" ry="173.612"/>
<ellipse style="fill:#E56353;" cx="234.153" cy="327.411" rx="76.257" ry="46.255"/>
<g>
	
		<ellipse transform="matrix(-0.9659 -0.2588 0.2588 -0.9659 325.9076 693.4796)" style="fill:#3A556A;" cx="208.603" cy="325.287" rx="11.258" ry="17.908"/>
	
		<ellipse transform="matrix(-0.2588 -0.9659 0.9659 -0.2588 12.7806 660.4081)" style="fill:#3A556A;" cx="259.765" cy="325.301" rx="17.908" ry="11.258"/>
	<circle style="fill:#3A556A;" cx="159.102" cy="186.755" r="14.049"/>
	<circle style="fill:#3A556A;" cx="309.205" cy="186.755" r="14.049"/>
</g>
<path style="fill:#F6C358;" d="M245.1,71.971h-21.894c-3.448,0-6.244-2.795-6.244-6.244V6.244c0-3.448,2.796-6.244,6.244-6.244
	H245.1c3.448,0,6.244,2.795,6.244,6.244v59.483C251.344,69.175,248.549,71.971,245.1,71.971z"/>
<g>
</g>
<g>
</g>
<g>
</g>
<g>
</g>
<g>
</g>
<g>
</g>
<g>
</g>
<g>
</g>
<g>
</g>
<g>
</g>
<g>
</g>
<g>
</g>
<g>
</g>
<g>
</g>
<g>
</g>
</svg>
