<?xml version="1.0" encoding="iso-8859-1"?>
<!-- Generator: Adobe Illustrator 19.0.0, SVG Export Plug-In . SVG Version: 6.00 Build 0)  -->
<svg version="1.1" id="Capa_1" xmlns="http://www.w3.org/2000/svg" xmlns:xlink="http://www.w3.org/1999/xlink" x="0px" y="0px"
	 viewBox="0 0 468.293 468.293" style="enable-background:new 0 0 468.293 468.293;" xml:space="preserve">
<circle style="fill:#FCD462;" cx="287.575" cy="79.285" r="65.086"/>
<circle style="fill:#F6C358;" cx="287.575" cy="79.285" r="51.737"/>
<path style="fill:#FCD462;" d="M285.5,118.474v-6.902c-8.641-0.881-16.397-4.317-23.26-10.303l6.902-8.225
	c5.294,4.601,10.741,7.34,16.358,8.225V82.926c-7.125-1.7-12.342-3.94-15.65-6.713c-3.309-2.774-4.963-6.886-4.963-12.338
	s1.901-9.91,5.717-13.38c3.816-3.466,8.779-5.355,14.896-5.671v-4.728h6.048v4.821c6.933,0.508,13.488,2.87,19.667,7.094
	l-6.148,8.698c-4.163-2.962-8.664-4.79-13.519-5.486v17.774h0.285c7.248,1.704,12.573,4.005,15.973,6.902
	c3.409,2.901,5.109,7.11,5.109,12.623c0,5.517-1.954,10.01-5.863,13.473c-3.909,3.47-9.072,5.359-15.504,5.675v6.806H285.5z
	 M278.829,57.446c-1.608,1.416-2.408,3.182-2.408,5.294c0,2.112,0.631,3.782,1.893,5.009c1.254,1.231,3.655,2.412,7.186,3.547
	V54.938C282.66,55.192,280.437,56.027,278.829,57.446z M298.734,98.903c1.762-1.447,2.647-3.274,2.647-5.482
	c0-2.204-0.692-3.955-2.077-5.248c-1.393-1.293-3.978-2.505-7.756-3.639v17.016C294.571,101.239,296.964,100.354,298.734,98.903z"/>
<path style="fill:#E56353;" d="M465.071,178.935c0,0-14.238,32.053-32.196,45.589c-17.54-26.084-43.936-46.523-76.333-56.201
	c-53.632-16.022-133.999-23.932-209.04,31.512c0,0-10.594-27.708-63.565-32.597c0,0,19.558,21.188,15.484,44.821
	c0,0-52.971,23.633-66.825,66.01h-20.04C5.622,278.069,0,283.691,0,290.626l0,26.835c0,4.812,1.815,9.409,5.115,12.912
	c13.853,14.706,56.88,53.653,141.573,76.455c0,0,7.36,15.575,2.073,39.552c-0.87,3.944,2.047,7.714,6.086,7.714h51.452
	c1.988,0,3.843-0.914,5.025-2.513c4.433-5.995,15.436-21.403,19.303-31.715c0,0,74.159,8.964,123.87-5.704
	c0,0,0.596,16.701-2.803,32.242c-0.863,3.947,2.053,7.689,6.094,7.689h53.687c2.116,0,4.086-1.035,5.237-2.811
	c6.293-9.712,26.06-43.937,27.429-92.536c0,0,2.75-5.45,5.793-14.822c12.257-37.745,7.101-76.835-10.753-109.057
	C456.63,234.997,476.109,225.752,465.071,178.935z"/>
<g>
	<circle style="fill:#CE412D;" cx="99.465" cy="256.43" r="14.761"/>
	<path style="fill:#CE412D;" d="M334.637,196.468c-0.611,0-1.235-0.114-1.838-0.349c-52.109-20.317-89.482-0.482-89.85-0.28
		c-2.459,1.336-5.53,0.44-6.875-2.004c-1.343-2.449-0.46-5.522,1.987-6.873c1.672-0.923,41.666-22.415,98.42-0.285
		c2.608,1.017,3.897,3.954,2.88,6.561C338.578,195.241,336.666,196.466,334.637,196.468z"/>
</g>
<g>
</g>
<g>
</g>
<g>
</g>
<g>
</g>
<g>
</g>
<g>
</g>
<g>
</g>
<g>
</g>
<g>
</g>
<g>
</g>
<g>
</g>
<g>
</g>
<g>
</g>
<g>
</g>
<g>
</g>
</svg>
