<?xml version="1.0" encoding="iso-8859-1"?>
<!-- Generator: Adobe Illustrator 19.0.0, SVG Export Plug-In . SVG Version: 6.00 Build 0)  -->
<svg version="1.1" id="Capa_1" xmlns="http://www.w3.org/2000/svg" xmlns:xlink="http://www.w3.org/1999/xlink" x="0px" y="0px"
	 viewBox="0 0 493.268 493.268" style="enable-background:new 0 0 493.268 493.268;" xml:space="preserve">
<path style="fill:#A9E5F7;" d="M433.327,395.863L433.327,395.863l-6.868,8.117c-0.624,1.249-1.873,1.873-2.498,2.498
	s-1.249,1.249-1.873,2.498c-1.873,1.873-4.371,4.371-6.244,6.244c-0.624,0.624-1.249,1.249-1.873,1.249
	c-9.99,9.366-19.98,18.107-31.219,26.224c-1.249,0.624-1.873,1.249-3.122,1.873c-1.873,1.249-3.746,2.498-4.995,3.122
	c-1.873,1.249-3.746,2.498-4.995,3.122c-1.249,0.624-3.122,1.873-4.371,2.498c-1.873,1.249-4.371,2.498-6.244,3.746
	c-1.249,0.624-2.498,1.249-3.746,1.873c-2.498,1.249-4.995,2.498-7.493,3.746c-1.249,0.624-1.873,1.249-3.122,1.249
	c-3.122,1.249-5.62,2.498-8.741,3.746c-0.624,0.624-1.873,0.624-2.498,1.249c-3.122,1.249-6.244,2.498-9.366,3.122
	c-0.624,0-1.249,0.624-1.873,0.624c-3.122,1.249-6.868,1.873-9.99,3.122c-0.624,0-1.249,0-1.873,0.624
	c-3.746,1.249-6.868,1.873-10.615,2.498c-0.624,0-1.249,0-1.873,0.624c-3.746,0.624-6.868,1.249-10.615,1.873
	c-0.624,0-1.249,0-1.873,0c-3.746,0.624-6.868,1.249-10.615,1.249c-0.624,0-1.249,0-1.873,0c-3.746,0.624-6.868,0.624-10.615,0.624
	c-0.624,0-1.873,0-2.498,0c-4.371,0-8.117,0.624-12.488,0.624l0,0c-4.371,0-8.741,0-12.488-0.624c-0.624,0-1.873,0-2.498,0
	c-3.746,0-6.868-0.624-10.615-0.624c-0.624,0-1.249,0-1.873,0c-3.746-0.624-6.868-0.624-10.615-1.249c-0.624,0-1.249,0-1.873,0
	c-3.746-0.624-7.493-1.249-10.615-1.873c-0.624,0-1.249,0-1.873-0.624c-3.746-0.624-6.868-1.873-10.615-2.498
	c-0.624,0-1.249,0-1.873-0.624c-3.746-1.249-6.868-1.873-9.99-3.122c-0.624,0-1.249-0.624-1.873-0.624
	c-3.122-1.249-6.244-2.498-9.366-3.746c-0.624,0-1.873-0.624-2.498-0.624c-3.122-1.249-5.62-2.498-8.741-3.746
	c-1.249-0.624-1.873-0.624-3.122-1.249c-2.498-1.249-5.62-2.498-8.117-3.746c-1.249-0.624-2.498-1.249-3.746-1.873
	c-2.498-1.249-4.371-2.498-6.868-3.746c-1.249-0.624-2.498-1.249-3.746-2.498c-1.873-1.249-3.746-2.498-5.62-3.746
	c-1.873-1.249-3.122-1.873-4.995-3.122c-1.249-0.624-2.498-1.873-3.746-2.498c-8.117-5.62-15.61-11.863-23.102-18.107
	c0,0-0.624,0-0.624-0.624c-2.498-1.873-4.371-4.371-6.868-6.244l-1.873-1.873c-1.873-1.873-3.746-4.371-6.244-6.244
	c-0.624-0.624-1.249-1.873-2.498-2.498c-0.624-0.624-1.873-1.873-2.498-2.498l-6.868-8.117l0,0
	c-31.844-40.585-51.2-91.785-51.2-147.98c0-54.322,18.107-106.146,51.824-148.605l0,0l6.868-8.117l0,0l9.366-10.615l0,0
	c44.956-44.956,106.146-71.18,170.459-71.18l0,0c64.312,0,125.502,26.224,170.459,71.805l0,0l9.366,10.615l6.868,8.117l0,0
	c33.717,41.834,51.824,94.283,51.824,148.605C485.151,303.454,465.795,354.654,433.327,395.863z"/>
<path style="fill:#2D93BA;" d="M493.268,247.259c0-56.195-18.732-109.893-53.698-153.6l0,0l-6.868-8.117l-9.366-10.615v0.624
	C376.507,27.473,312.819,0.624,246.634,0.624l0,0l0,0l0,0c-66.185,0-129.873,26.849-176.078,74.302v-0.624l-9.99,10.615l0,0
	l-6.868,8.117l0,0C18.732,137.366,0,191.063,0,247.259c0,58.068,19.98,111.141,53.698,153.6l0,0l6.868,8.117
	c0.624,1.249,1.873,1.873,2.498,2.498c0.624,0.624,1.873,1.873,2.498,2.498c1.873,2.498,4.371,4.371,6.244,6.244
	c0.624,0.624,1.249,1.249,1.873,1.873c2.498,2.498,4.371,4.371,6.868,6.868c0,0,0.624,0,0.624,0.624
	c7.493,6.868,15.61,13.112,23.727,19.356c1.249,0.624,2.498,1.873,3.746,2.498c1.873,1.249,3.122,1.873,4.995,3.122
	c1.873,1.249,3.746,2.498,5.62,3.746c1.249,0.624,2.498,1.873,4.371,2.498c2.498,1.249,4.995,2.498,6.868,3.746
	c1.249,0.624,2.498,1.249,3.746,1.873c2.498,1.249,5.62,2.498,8.117,3.746c1.249,0.624,1.873,0.624,3.122,1.249
	c3.122,1.249,6.244,2.498,9.366,3.746c0.624,0.624,1.873,0.624,2.498,1.249c3.122,1.249,6.868,2.498,9.99,3.746
	c0.624,0,1.249,0.624,1.873,0.624c3.746,1.249,6.868,2.498,10.615,3.122c0.624,0,1.249,0.624,1.873,0.624
	c3.746,1.249,7.493,1.873,11.239,2.498c0.624,0,1.249,0,1.873,0.624c3.746,0.624,7.493,1.249,11.239,1.873
	c0.624,0,1.249,0,1.873,0.624c3.746,0.624,7.493,1.249,10.615,1.249c0.624,0,1.249,0,1.873,0c3.746,0.624,6.868,0.624,10.615,0.624
	c0.624,0,1.873,0,2.498,0c4.371,0,8.741,0.624,13.112,0.624l0,0l0,0l0,0c4.371,0,8.741,0,13.112-0.624c0.624,0,1.873,0,2.498,0
	c3.746,0,6.868-0.624,10.615-0.624c0.624,0,1.249,0,2.498,0c3.746-0.624,7.493-0.624,10.615-1.249c0.624,0,1.249,0,1.873-0.624
	c3.746-0.624,7.493-1.249,10.615-1.873c0.624,0,1.249,0,1.873-0.624c3.746-0.624,7.493-1.873,10.615-2.498
	c0.624,0,1.249-0.624,1.873-0.624c3.746-1.249,6.868-1.873,10.615-3.122c0.624,0,1.249-0.624,1.873-0.624
	c3.122-1.249,6.244-2.498,9.99-3.746c0.624-0.624,1.873-0.624,2.498-1.249c3.122-1.249,6.244-2.498,8.741-3.746
	c1.249-0.624,1.873-1.249,3.122-1.249c2.498-1.249,4.995-2.498,8.117-3.746c1.249-0.624,2.498-1.249,3.746-1.873
	c2.498-1.249,4.371-2.498,6.868-3.746c1.249-0.624,3.122-1.873,4.371-2.498c1.873-1.249,3.746-2.498,5.62-3.122
	c1.873-1.249,3.746-2.498,5.62-3.746c1.249-0.624,1.873-1.249,3.122-2.498c11.239-8.117,22.478-16.859,32.468-26.849
	c0.624-0.624,1.249-1.249,1.873-1.873c1.873-2.498,4.371-4.371,6.244-6.868c0.624-0.624,1.249-1.249,1.873-2.498
	c0.624-1.249,1.873-1.873,2.498-3.122l6.868-8.117l0,0C473.288,358.4,493.268,305.327,493.268,247.259z M403.98,403.356
	c-0.624,0.624-1.249,1.249-1.873,1.873c-1.873,1.873-4.371,3.746-6.244,5.62c-0.624,0.624-1.249,1.249-1.873,1.249
	c-1.873,1.873-4.371,3.746-6.244,5.62c-0.624,0.624-1.249,1.249-1.873,1.249c-1.873,1.873-4.371,3.746-6.244,4.995
	c-0.624,0.624-1.873,1.249-2.498,1.873c-1.873,1.249-3.746,3.122-6.244,4.371c-1.249,0.624-2.498,1.873-3.746,2.498
	c-1.873,1.249-3.122,2.498-4.995,3.122c-1.873,1.249-3.746,2.498-6.244,3.746c-1.249,0.624-1.873,1.249-3.122,1.873
	c-14.361,8.117-29.346,13.737-45.58,18.732c19.356-23.727,34.966-58.068,45.58-99.902c19.356,10.615,37.463,24.351,53.073,40.585
	C405.229,401.483,404.605,402.732,403.98,403.356z M137.99,440.195c-2.498-1.249-4.371-2.498-6.868-3.746
	c-1.873-1.249-3.122-1.873-4.371-3.122c-1.249-0.624-3.122-1.873-4.371-2.498c-1.873-1.249-3.746-2.498-5.62-3.746
	c-1.249-0.624-1.873-1.249-3.122-1.873c-1.873-1.249-4.371-3.122-6.244-4.995c-0.624-0.624-1.249-1.249-2.498-1.873
	c-1.873-1.873-4.371-3.746-6.244-4.995c-0.624-0.624-1.249-1.249-1.873-1.873c-1.873-1.873-3.746-3.746-5.62-5.62
	c-0.624-0.624-1.249-1.249-1.873-1.873c-0.624-0.624-1.249-1.249-1.873-2.498c15.61-16.234,33.717-29.971,53.073-40.585
	c9.99,41.834,26.224,76.176,45.58,99.902c-15.61-4.371-31.22-10.615-45.58-18.732C139.239,441.444,138.615,440.82,137.99,440.195z
	 M25.6,259.746h101.776c0.624,26.849,3.122,51.824,7.493,75.551c-23.727,11.863-44.956,27.473-63.688,46.829
	C44.332,347.785,28.098,305.327,25.6,259.746z M70.556,112.39c1.873,1.873,4.371,4.371,6.244,6.244
	c0.624,0.624,1.249,1.249,2.498,2.498c3.122,3.122,6.244,5.62,9.366,8.117c0.624,0.624,1.873,1.249,2.498,1.873
	c2.498,1.873,4.995,3.746,7.493,5.62c1.249,1.249,2.498,1.873,3.746,2.498c1.873,1.249,4.371,3.122,6.244,4.371
	c1.249,1.249,3.122,1.873,4.371,3.122c1.873,1.249,4.371,2.498,6.244,3.746c1.873,1.249,3.122,1.873,4.995,2.498
	c1.873,1.249,4.371,2.498,6.244,3.746c1.249,0.624,2.498,1.249,3.746,1.873c-4.371,23.727-6.868,48.702-7.493,75.551H25.6
	C28.098,190.439,43.707,147.981,70.556,112.39z M413.971,121.132c0.624-0.624,1.249-1.249,1.873-1.873
	c2.498-2.498,4.995-4.371,6.868-6.868c26.849,35.59,43.083,78.049,45.581,122.38h-102.4c-0.624-26.849-3.122-51.824-7.493-75.551
	c1.249-0.624,2.498-1.249,3.746-1.873c1.873-1.249,4.371-2.498,6.244-3.746c1.249-0.624,3.122-1.873,4.371-2.498
	c2.498-1.249,4.371-2.498,6.244-4.371c1.249-0.624,3.122-1.873,4.371-2.498c2.498-1.249,4.371-3.122,6.868-4.995
	c1.249-0.624,2.498-1.873,3.746-2.498c2.498-1.873,5.62-4.371,8.117-6.244c0.624-0.624,1.249-1.249,1.873-1.249
	C407.727,126.751,410.849,123.629,413.971,121.132z M325.307,146.732c-1.873,0.624-3.746,1.249-5.62,1.873
	c-1.873,0.624-3.122,1.249-4.995,1.873s-3.746,1.249-6.244,1.873c-1.873,0.624-3.122,1.249-4.995,1.249
	c-1.873,0.624-4.371,1.249-6.244,1.249c-1.873,0.624-3.122,0.624-4.995,1.249s-4.371,0.624-6.244,1.249
	c-1.873,0-3.122,0.624-4.995,0.624c-2.498,0.624-4.371,0.624-6.868,0.624c-1.249,1.249-2.498,1.249-4.371,1.249
	c-2.498,0-4.995,0.624-7.493,0.624c-1.249,0-1.873,0-3.122,0V28.098c28.722,9.99,56.195,52.449,71.18,116.761
	C328.429,145.483,327.18,146.107,325.307,146.732z M234.146,161.093c-1.249,0-1.873,0-3.122,0c-2.498,0-4.995-0.624-7.493-0.624
	c-1.249,0-3.122-0.624-4.371-0.624c-2.498,0-4.371-0.624-6.868-0.624c-1.873,0-3.122-0.624-4.995-0.624
	c-1.873-0.624-4.371-0.624-6.244-1.249c-1.873-0.624-3.122-0.624-4.995-1.249c-1.873-0.624-4.371-1.249-6.244-1.249
	c-1.873-0.624-3.122-0.624-4.995-1.249s-3.746-1.249-6.244-1.873c-1.873-0.624-3.122-1.249-4.995-1.873
	c-1.873-0.624-3.746-1.249-5.62-1.873c-1.873-0.624-3.122-1.249-4.995-1.873c14.985-65.561,42.459-108.644,71.18-118.01V161.093z
	 M159.22,170.459c1.873,0.624,4.371,1.873,6.244,2.498s3.746,1.249,5.62,1.873c2.498,0.624,4.371,1.249,6.868,1.873
	c1.873,0.624,3.746,1.249,5.62,1.249c2.498,0.624,4.371,1.249,6.868,1.873c1.873,0.624,3.746,0.624,5.62,1.249
	c2.498,0.624,4.995,0.624,6.868,1.249c1.873,0.624,3.746,0.624,5.62,1.249c2.498,0.624,4.995,0.624,7.493,1.249
	c1.873,0,3.122,0.624,4.995,0.624c3.122,0,5.62,0.624,8.741,0.624c1.249,0,3.122,0,4.371,0.624c0,0,0,0,0.624,0v48.078h-82.42
	c0.624-23.102,2.498-44.956,5.62-64.937C158.595,169.834,159.22,169.834,159.22,170.459z M234.146,259.746v48.702
	c-26.224,1.249-51.824,6.868-76.176,16.234c-3.122-19.98-5.62-41.834-5.62-64.937H234.146z M234.146,333.424V466.42
	c-28.722-9.99-56.195-52.449-71.18-116.761C185.444,340.293,209.795,334.673,234.146,333.424z M259.122,466.42V333.424
	c24.351,1.249,48.702,6.868,71.18,16.234C315.317,413.971,287.844,457.054,259.122,466.42z M259.122,308.449v-48.702h81.795
	c-0.624,23.102-2.498,44.956-5.62,64.937C310.946,315.317,285.346,309.698,259.122,308.449z M259.122,234.771v-48.702
	c0,0,0,0,0.624,0c1.249,0,3.122,0,4.371-0.624c3.122,0,5.62-0.624,8.741-0.624c1.873,0,3.122-0.624,4.995-0.624
	c2.498-0.624,4.995-0.624,7.493-1.249c1.873,0,3.746-0.624,4.995-1.249c2.498-0.624,4.995-0.624,7.493-1.249
	c1.873-0.624,3.746-0.624,5.62-1.249c2.498-0.624,4.371-1.249,6.868-1.873c1.873-0.624,3.746-1.249,5.62-1.249
	c2.498-0.624,4.371-1.249,6.868-1.873c1.873-0.624,3.746-1.249,4.995-1.873c2.498-0.624,4.371-1.873,6.868-2.498
	c0.624,0,0.624,0,1.249-0.624c3.122,19.98,5.62,41.834,5.62,64.937h-82.419V234.771z M405.854,93.659
	c-1.249,1.249-1.873,1.873-3.122,3.122c-1.873,1.873-3.122,3.122-4.995,4.995c-1.249,1.249-2.498,1.873-3.746,3.122
	c-1.873,1.249-3.122,3.122-4.995,4.371c-1.249,1.249-2.498,1.873-3.746,3.122c-1.873,1.249-3.122,2.498-4.995,3.746
	c-1.249,1.249-2.498,1.873-4.371,3.122c-1.873,1.249-3.746,2.498-4.995,3.746c-1.249,1.249-3.122,1.873-4.371,3.122
	c-1.873,1.249-3.746,2.498-5.62,3.122c-1.249,0.624-3.122,1.873-4.371,2.498c-1.249,0.624-2.498,1.249-3.122,1.873
	c-9.99-41.834-26.224-76.176-45.58-99.902C344.663,44.956,379.005,64.937,405.854,93.659L405.854,93.659z M139.863,133.62
	c-1.249-0.624-2.498-1.249-3.122-1.873c-1.249-0.624-3.122-1.873-4.371-2.498c-1.873-1.249-3.746-2.498-5.619-3.122
	c-1.249-0.624-3.122-1.873-4.371-2.498c-1.873-1.249-3.746-2.498-4.995-3.746c-1.249-1.249-2.498-1.873-4.371-3.122
	c-1.873-1.249-3.746-2.498-4.995-4.371c-1.249-1.249-2.498-1.873-3.746-3.122c-1.873-1.249-3.746-3.122-4.995-4.371
	c-1.249-1.249-2.498-1.873-3.122-3.122c-1.873-1.873-3.746-3.746-5.62-5.62c-0.624-0.624-1.873-1.873-2.498-2.498
	c0,0,0,0-0.624-0.624c27.473-28.098,61.19-48.702,98.654-59.317C166.088,57.444,150.478,92.41,139.863,133.62z M358.4,335.298
	c4.371-23.727,6.868-48.702,7.493-75.551h101.776c-2.498,45.58-19.356,88.039-45.581,122.38
	C403.356,362.771,382.127,347.161,358.4,335.298z"/>
<g>
</g>
<g>
</g>
<g>
</g>
<g>
</g>
<g>
</g>
<g>
</g>
<g>
</g>
<g>
</g>
<g>
</g>
<g>
</g>
<g>
</g>
<g>
</g>
<g>
</g>
<g>
</g>
<g>
</g>
</svg>
