<?xml version="1.0" encoding="iso-8859-1"?>
<!-- Generator: Adobe Illustrator 19.0.0, SVG Export Plug-In . SVG Version: 6.00 Build 0)  -->
<svg version="1.1" id="Capa_1" xmlns="http://www.w3.org/2000/svg" xmlns:xlink="http://www.w3.org/1999/xlink" x="0px" y="0px"
	 viewBox="0 0 468.293 468.293" style="enable-background:new 0 0 468.293 468.293;" xml:space="preserve">
<path style="fill:#27A2DB;" d="M147.918,296.03L40.058,183.75L164.561,64.148c4.974-4.778,12.879-4.619,17.657,0.355l99.209,103.274
	L147.918,296.03z"/>
<path style="fill:#44C4A1;" d="M210.357,283.543l-107.86-112.28L227,51.661c4.974-4.778,12.879-4.619,17.657,0.355l99.209,103.274
	L210.357,283.543z"/>
<path style="fill:#DC8744;" d="M272.796,271.055l-107.86-112.28L289.439,39.173c4.974-4.778,12.879-4.619,17.657,0.355
	l99.209,103.274L272.796,271.055z"/>
<path style="fill:#FCD462;" d="M427.631,432.602H18.732C8.386,432.602,0,424.215,0,413.87V153.759
	c0-10.345,8.386-18.732,18.732-18.732h408.899c10.345,0,18.732,8.386,18.732,18.732V413.87
	C446.362,424.215,437.976,432.602,427.631,432.602z"/>
<g>
	<path style="fill:#F6C358;" d="M455.805,320.158h-80.27c-6.897,0-12.488-5.591-12.488-12.488v-47.712
		c0-6.897,5.591-12.488,12.488-12.488h80.27c6.897,0,12.488,5.591,12.488,12.488v47.712
		C468.293,314.567,462.702,320.158,455.805,320.158z"/>
	<rect y="171.501" style="fill:#F6C358;" width="37.463" height="12.488"/>
	<rect x="46.779" y="171.501" style="fill:#F6C358;" width="37.463" height="12.488"/>
	<rect x="93.552" y="171.501" style="fill:#F6C358;" width="37.463" height="12.488"/>
	<rect x="140.332" y="171.501" style="fill:#F6C358;" width="37.463" height="12.488"/>
	<rect x="187.105" y="171.501" style="fill:#F6C358;" width="37.463" height="12.488"/>
	<rect x="233.884" y="171.501" style="fill:#F6C358;" width="37.463" height="12.488"/>
	<rect x="280.663" y="171.501" style="fill:#F6C358;" width="37.463" height="12.488"/>
	<rect x="327.436" y="171.501" style="fill:#F6C358;" width="37.463" height="12.488"/>
	<rect x="374.197" y="171.501" style="fill:#F6C358;" width="37.463" height="12.488"/>
	<rect x="399.173" y="196.983" style="fill:#F6C358;" width="12.488" height="37.463"/>
	<rect x="399.179" y="333.156" style="fill:#F6C358;" width="12.488" height="37.463"/>
	<rect y="383.638" style="fill:#F6C358;" width="37.463" height="12.488"/>
	<rect x="46.779" y="383.638" style="fill:#F6C358;" width="37.463" height="12.488"/>
	<rect x="93.552" y="383.638" style="fill:#F6C358;" width="37.463" height="12.488"/>
	<rect x="140.332" y="383.638" style="fill:#F6C358;" width="37.463" height="12.488"/>
	<rect x="187.105" y="383.638" style="fill:#F6C358;" width="37.463" height="12.488"/>
	<rect x="233.884" y="383.638" style="fill:#F6C358;" width="37.463" height="12.488"/>
	<rect x="280.663" y="383.638" style="fill:#F6C358;" width="37.463" height="12.488"/>
	<rect x="327.436" y="383.638" style="fill:#F6C358;" width="37.463" height="12.488"/>
	<rect x="374.197" y="383.638" style="fill:#F6C358;" width="37.463" height="12.488"/>
</g>
<circle style="fill:#FCD462;" cx="399.173" cy="283.817" r="21.704"/>
<circle style="fill:#F6C358;" cx="399.173" cy="283.817" r="14.561"/>
<g>
</g>
<g>
</g>
<g>
</g>
<g>
</g>
<g>
</g>
<g>
</g>
<g>
</g>
<g>
</g>
<g>
</g>
<g>
</g>
<g>
</g>
<g>
</g>
<g>
</g>
<g>
</g>
<g>
</g>
</svg>
