<?xml version="1.0" encoding="iso-8859-1"?>
<!-- Generator: Adobe Illustrator 19.0.0, SVG Export Plug-In . SVG Version: 6.00 Build 0)  -->
<svg version="1.1" id="Capa_1" xmlns="http://www.w3.org/2000/svg" xmlns:xlink="http://www.w3.org/1999/xlink" x="0px" y="0px"
	 viewBox="0 0 468.293 468.293" style="enable-background:new 0 0 468.293 468.293;" xml:space="preserve">
<path style="fill:#D5D6DB;" d="M455.805,407.475H12.488C5.591,407.475,0,401.884,0,394.988V53.662
	c0-6.897,5.591-12.488,12.488-12.488h443.317c6.897,0,12.488,5.591,12.488,12.488v341.325
	C468.293,401.884,462.702,407.475,455.805,407.475z"/>
<path style="fill:#EBF0F3;" d="M37.461,357.523V91.127c0-6.897,5.591-12.488,12.488-12.488h368.39
	c6.897,0,12.488,5.591,12.488,12.488v266.396c0,6.897-5.591,12.488-12.488,12.488H49.949
	C43.052,370.011,37.461,364.42,37.461,357.523z"/>
<g>
	<path style="fill:#64798A;" d="M51.311,166.438h-27.7c-3.448,0-6.244-2.795-6.244-6.244v-45.521c0-3.448,2.795-6.244,6.244-6.244
		h27.7c3.448,0,6.244,2.795,6.244,6.244v45.521C57.555,163.643,54.76,166.438,51.311,166.438z"/>
	<path style="fill:#64798A;" d="M51.311,340.22h-27.7c-3.448,0-6.244-2.796-6.244-6.244v-45.521c0-3.448,2.795-6.244,6.244-6.244
		h27.7c3.448,0,6.244,2.796,6.244,6.244v45.521C57.555,337.425,54.76,340.22,51.311,340.22z"/>
	<path style="fill:#64798A;" d="M271.577,144.436c-44.122,0-79.889,35.768-79.889,79.889s35.768,79.889,79.889,79.889
		s79.889-35.768,79.889-79.889S315.699,144.436,271.577,144.436z M271.577,282.212c-31.97,0-57.887-25.917-57.887-57.887
		s25.917-57.887,57.887-57.887s57.887,25.917,57.887,57.887S303.547,282.212,271.577,282.212z"/>
	<path style="fill:#64798A;" d="M271.577,331.172L271.577,331.172c-3.448,0-6.244-2.795-6.244-6.244V123.722
		c0-3.448,2.796-6.244,6.244-6.244l0,0c3.448,0,6.244,2.795,6.244,6.244v201.206C277.821,328.377,275.025,331.172,271.577,331.172z"
		/>
	<path style="fill:#64798A;" d="M164.73,224.325L164.73,224.325c0-3.448,2.795-6.244,6.244-6.244l201.206,0
		c3.448,0,6.244,2.796,6.244,6.244l0,0c0,3.448-2.795,6.244-6.244,6.244l-201.206,0C167.525,230.569,164.73,227.773,164.73,224.325z
		"/>
	<path style="fill:#64798A;" d="M78.636,427.118H47.91c-3.448,0-6.244-2.796-6.244-6.244v-13.399h43.214v13.399
		C84.879,424.323,82.084,427.118,78.636,427.118z"/>
	<path style="fill:#64798A;" d="M420.383,427.118h-30.726c-3.448,0-6.244-2.796-6.244-6.244v-13.399h43.214v13.399
		C426.627,424.323,423.831,427.118,420.383,427.118z"/>
</g>
<path style="fill:#FFFFFF;" d="M271.577,282.212c-31.97,0-57.887-25.917-57.887-57.887s25.917-57.887,57.887-57.887
	s57.887,25.917,57.887,57.887S303.547,282.212,271.577,282.212z"/>
<path style="fill:#E1E6E9;" d="M271.577,253.782c-16.268,0-29.457-13.188-29.457-29.457c0-16.269,13.188-29.457,29.457-29.457
	s29.457,13.188,29.457,29.457C301.034,240.594,287.845,253.782,271.577,253.782z"/>
<g>
	<circle style="fill:#D5D6DB;" cx="271.579" cy="175.803" r="9.366"/>
	<circle style="fill:#D5D6DB;" cx="271.579" cy="272.859" r="9.366"/>
	<ellipse style="fill:#D5D6DB;" cx="305.889" cy="190.037" rx="9.366" ry="9.366"/>
	<ellipse style="fill:#D5D6DB;" cx="237.27" cy="258.632" rx="9.366" ry="9.366"/>
	<ellipse style="fill:#D5D6DB;" cx="320.105" cy="224.342" rx="9.366" ry="9.366"/>
	<ellipse style="fill:#D5D6DB;" cx="223.05" cy="224.353" rx="9.366" ry="9.366"/>
	<ellipse style="fill:#D5D6DB;" cx="305.888" cy="258.634" rx="9.366" ry="9.366"/>
	<ellipse style="fill:#D5D6DB;" cx="237.269" cy="190.012" rx="9.366" ry="9.366"/>
</g>
<g>
</g>
<g>
</g>
<g>
</g>
<g>
</g>
<g>
</g>
<g>
</g>
<g>
</g>
<g>
</g>
<g>
</g>
<g>
</g>
<g>
</g>
<g>
</g>
<g>
</g>
<g>
</g>
<g>
</g>
</svg>
