<?xml version="1.0" encoding="iso-8859-1"?>
<!-- Generator: Adobe Illustrator 19.0.0, SVG Export Plug-In . SVG Version: 6.00 Build 0)  -->
<svg version="1.1" id="Capa_1" xmlns="http://www.w3.org/2000/svg" xmlns:xlink="http://www.w3.org/1999/xlink" x="0px" y="0px"
	 viewBox="0 0 468.293 468.293" style="enable-background:new 0 0 468.293 468.293;" xml:space="preserve">
<path style="fill:#DC8744;" d="M391.812,40.809H76.48c-3.448,0-6.244-2.795-6.244-6.244V12.488C70.236,5.591,75.827,0,82.724,0
	h302.844c6.897,0,12.488,5.591,12.488,12.488v22.077C398.056,38.014,395.261,40.809,391.812,40.809z"/>
<g>
	<polygon style="fill:#F6C358;" points="84.293,40.809 84.293,137.478 234.146,234.146 384,137.478 384,40.809 	"/>
	<polygon style="fill:#F6C358;" points="84.293,427.483 84.293,330.815 234.146,234.146 384,330.815 384,427.483 	"/>
</g>
<path style="fill:#DC8744;" d="M391.812,427.483H76.48c-3.448,0-6.244,2.795-6.244,6.244v22.077c0,6.897,5.591,12.488,12.488,12.488
	h302.844c6.897,0,12.488-5.591,12.488-12.488v-22.077C398.056,430.279,395.261,427.483,391.812,427.483z"/>
<polygon style="fill:#FCD462;" points="357.704,124.99 357.704,40.809 110.59,40.809 110.59,124.99 129.568,137.478 
	338.724,137.478 "/>
<polygon style="fill:#64798A;" points="336.59,137.478 131.702,137.478 234.147,206.289 "/>
<polygon style="fill:#FCD462;" points="357.704,343.303 234.147,262.004 110.59,343.303 110.59,394.516 357.704,394.516 "/>
<rect x="110.579" y="382.002" style="fill:#64798A;" width="247.115" height="45.456"/>
<g>
</g>
<g>
</g>
<g>
</g>
<g>
</g>
<g>
</g>
<g>
</g>
<g>
</g>
<g>
</g>
<g>
</g>
<g>
</g>
<g>
</g>
<g>
</g>
<g>
</g>
<g>
</g>
<g>
</g>
</svg>
