<?xml version="1.0" encoding="iso-8859-1"?>
<!-- Generator: Adobe Illustrator 19.0.0, SVG Export Plug-In . SVG Version: 6.00 Build 0)  -->
<svg version="1.1" id="Capa_1" xmlns="http://www.w3.org/2000/svg" xmlns:xlink="http://www.w3.org/1999/xlink" x="0px" y="0px"
	 viewBox="0 0 512 512" style="enable-background:new 0 0 512 512;" xml:space="preserve">
<g>
	<path style="fill:#C97629;" d="M418.909,512H93.091v-23.273c0-12.8,10.473-23.273,23.273-23.273h279.273
		c12.8,0,23.273,10.473,23.273,23.273V512z"/>
	<path style="fill:#C97629;" d="M325.818,23.273v23.273c0,12.8-10.473,23.273-23.273,23.273l0,0
		c-12.8,0-23.273-10.473-23.273-23.273V23.273C279.273,10.473,268.8,0,256,0l0,0c-12.8,0-23.273,10.473-23.273,23.273v23.273
		c0,12.8-10.473,23.273-23.273,23.273l0,0c-12.8,0-23.273-10.473-23.273-23.273V23.273c0-12.8-10.473-23.273-23.273-23.273l0,0
		c-12.8,0-23.273,10.473-23.273,23.273v23.273v77.964c0,10.473,3.491,19.782,9.309,27.927l25.6,33.745h162.909l25.6-33.745
		c5.818-8.145,9.309-17.455,9.309-27.927V46.545V23.273c0-12.8-10.473-23.273-23.273-23.273l0,0
		C336.291,0,325.818,10.473,325.818,23.273z"/>
</g>
<path style="fill:#A35425;" d="M174.545,11.636v34.909c0,12.8,10.473,23.273,23.273,23.273c2.327,0,3.491,0,5.818-1.164
	c-10.473-2.327-17.455-11.636-17.455-22.109V23.273c0-9.309-5.818-17.455-13.964-20.945C173.382,4.655,174.545,8.145,174.545,11.636
	z"/>
<path style="fill:#DA8C36;" d="M244.364,11.636v34.909c0,12.8-10.473,23.273-23.273,23.273c-2.327,0-3.491,0-5.818-1.164
	c10.473-2.327,17.455-11.636,17.455-22.109V23.273c0-9.309,5.818-17.455,13.964-20.945C245.527,4.655,244.364,8.145,244.364,11.636z
	"/>
<path style="fill:#B06328;" d="M395.636,465.455H116.364c46.545-58.182,58.182-144.291,58.182-279.273h162.909
	C337.455,321.164,349.091,407.273,395.636,465.455z"/>
<path style="fill:#A35425;" d="M337.455,186.182h-11.636h-23.273h-128l0,0c0,12.8,10.473,23.273,23.273,23.273H256
	c12.8,0,23.273,10.473,23.273,23.273c0,16.291,0,54.691-1.164,69.818c0,44.218,0,76.8,6.982,104.727
	c5.818,20.945,13.964,36.073,24.436,58.182h86.109C349.091,407.273,337.455,321.164,337.455,186.182z"/>
<path style="fill:#B06328;" d="M395.636,488.727L395.636,488.727c0,5.818-4.655,11.636-11.636,11.636H104.727
	c-6.982,0-11.636,4.655-11.636,11.636h325.818v-23.273l0,0C418.909,473.6,395.636,474.764,395.636,488.727z"/>
<path style="fill:#DA8C36;" d="M122.182,465.455h116.364c3.491,0,5.818,2.327,5.818,5.818l0,0c0,3.491-2.327,5.818-5.818,5.818
	H122.182c-3.491,0-5.818-2.327-5.818-5.818l0,0C116.364,467.782,118.691,465.455,122.182,465.455z"/>
<path style="fill:#B06328;" d="M372.364,124.509V46.545V24.436c0-11.636-6.982-22.109-18.618-23.273
	c-15.127-3.491-27.927,8.145-27.927,22.109v22.109c0,11.636-6.982,22.109-18.618,23.273c-15.127,3.491-27.927-8.145-27.927-22.109
	V23.273l0,0c0-6.982-11.636-6.982-11.636,0v84.945c0,23.273-19.782,43.055-43.055,43.055h-52.364
	c-10.473,0-15.127,11.636-9.309,19.782c5.818,8.145,11.636,15.127,11.636,15.127h162.909l25.6-33.745
	C368.873,144.291,372.364,133.818,372.364,124.509z"/>
<path style="fill:#C97629;" d="M337.455,11.636v34.909c0,12.8-10.473,23.273-23.273,23.273c-2.327,0-3.491,0-5.818-1.164
	c10.473-2.327,17.455-11.636,17.455-22.109V23.273c0-9.309,5.818-17.455,13.964-20.945C338.618,4.655,337.455,8.145,337.455,11.636z
	"/>
<g>
</g>
<g>
</g>
<g>
</g>
<g>
</g>
<g>
</g>
<g>
</g>
<g>
</g>
<g>
</g>
<g>
</g>
<g>
</g>
<g>
</g>
<g>
</g>
<g>
</g>
<g>
</g>
<g>
</g>
</svg>
