<?xml version="1.0" encoding="iso-8859-1"?>
<!-- Generator: Adobe Illustrator 19.0.0, SVG Export Plug-In . SVG Version: 6.00 Build 0)  -->
<svg version="1.1" id="Capa_1" xmlns="http://www.w3.org/2000/svg" xmlns:xlink="http://www.w3.org/1999/xlink" x="0px" y="0px"
	 viewBox="0 0 468.293 468.293" style="enable-background:new 0 0 468.293 468.293;" xml:space="preserve">
<g>
	<path style="fill:#D5D6DB;" d="M81.303,0l152.843,74.048l-63.062,131.17c-3.867,8.043-14.678,9.551-20.598,2.874L36.684,79.744
		L81.303,0z"/>
	<path style="fill:#D5D6DB;" d="M386.99,0L234.146,74.048l63.062,131.17c3.867,8.043,14.678,9.551,20.598,2.874L431.609,79.744
		L386.99,0z"/>
</g>
<polyline style="fill:#64798A;" points="246.565,200.102 276.413,161.962 234.146,74.048 191.919,161.962 221.727,200.102 "/>
<polyline style="fill:#EBF0F3;" points="386.99,0 234.146,74.048 81.303,0 "/>
<g>
	<polygon style="fill:#64798A;" points="202.747,437.957 277.381,363.321 271.288,330.879 183.142,419.028 	"/>
	<polygon style="fill:#64798A;" points="234.166,468.293 287.436,416.859 280.174,378.189 211.732,446.632 	"/>
	<polygon style="fill:#64798A;" points="253.518,236.26 205.864,283.915 196.953,331.361 259.611,268.702 	"/>
	<polygon style="fill:#64798A;" points="246.727,200.102 221.606,200.102 209.948,262.17 250.726,221.392 	"/>
	<polygon style="fill:#64798A;" points="192.869,353.106 183.958,400.552 268.496,316.011 262.403,283.569 	"/>
</g>
<g>
	<polygon style="fill:#EBF0F3;" points="180.895,416.859 183.142,419.028 271.288,330.879 268.496,316.011 183.958,400.552 	"/>
	<polygon style="fill:#EBF0F3;" points="259.611,268.702 196.953,331.361 192.869,353.106 262.403,283.569 	"/>
	<polygon style="fill:#EBF0F3;" points="250.726,221.392 209.948,262.17 205.864,283.915 253.518,236.26 	"/>
	<polygon style="fill:#EBF0F3;" points="211.732,446.632 280.174,378.189 277.381,363.321 202.747,437.957 	"/>
</g>
<g>
</g>
<g>
</g>
<g>
</g>
<g>
</g>
<g>
</g>
<g>
</g>
<g>
</g>
<g>
</g>
<g>
</g>
<g>
</g>
<g>
</g>
<g>
</g>
<g>
</g>
<g>
</g>
<g>
</g>
</svg>
