<?xml version="1.0" encoding="iso-8859-1"?>
<!-- Generator: Adobe Illustrator 19.0.0, SVG Export Plug-In . SVG Version: 6.00 Build 0)  -->
<svg version="1.1" id="Capa_1" xmlns="http://www.w3.org/2000/svg" xmlns:xlink="http://www.w3.org/1999/xlink" x="0px" y="0px"
	 viewBox="0 0 468.293 468.293" style="enable-background:new 0 0 468.293 468.293;" xml:space="preserve">
<path style="fill:#DC8744;" d="M180.115,248.544l8.985,47.016h90.092l8.985-47.016c3.132-16.388,8.278-32.326,15.32-47.451
	c11.474-24.641,17.419-51.494,17.419-78.676V86.769c0-51.172-44.298-91.998-96.639-86.224
	c-44.272,4.883-76.902,43.962-76.902,88.503v33.368c0,27.182,5.945,54.035,17.419,78.676
	C171.838,216.218,176.983,232.156,180.115,248.544z"/>
<g>
	<path style="fill:#F6C358;" d="M151.998,295.56h164.297c13.794,0,24.976,11.182,24.976,24.976v35.209H127.022v-35.209
		C127.022,306.742,138.204,295.56,151.998,295.56z"/>
	<rect x="40.055" y="431.703" style="fill:#F6C358;" width="388.183" height="12.488"/>
</g>
<path style="fill:#FCD462;" d="M365.797,355.745H102.495c-34.484,0-62.439,27.954-62.439,62.439v13.532h388.18v-13.532
	C428.236,383.699,400.281,355.745,365.797,355.745z"/>
<path style="fill:#DC8744;" d="M377.309,444.204H90.983v11.601c0,6.897,5.591,12.488,12.488,12.488h261.35
	c6.897,0,12.488-5.591,12.488-12.488L377.309,444.204L377.309,444.204z"/>
<circle style="fill:#F6C358;" cx="234.146" cy="108.063" r="49.683"/>
<g>
</g>
<g>
</g>
<g>
</g>
<g>
</g>
<g>
</g>
<g>
</g>
<g>
</g>
<g>
</g>
<g>
</g>
<g>
</g>
<g>
</g>
<g>
</g>
<g>
</g>
<g>
</g>
<g>
</g>
</svg>
