<?xml version="1.0" encoding="iso-8859-1"?>
<!-- Generator: Adobe Illustrator 19.0.0, SVG Export Plug-In . SVG Version: 6.00 Build 0)  -->
<svg version="1.1" id="Capa_1" xmlns="http://www.w3.org/2000/svg" xmlns:xlink="http://www.w3.org/1999/xlink" x="0px" y="0px"
	 viewBox="0 0 512 512" style="enable-background:new 0 0 512 512;" xml:space="preserve">
<g>
	<path style="fill:#F6B545;" d="M494.545,302.545c-2.327,0-4.655-1.164-5.818-3.491l-58.182-162.909
		c-1.164-3.491,0-5.818,3.491-6.982c3.491-1.164,5.818,0,6.982,3.491l59.345,158.255c0,0-1.164,10.473-3.491,11.636
		C495.709,302.545,495.709,302.545,494.545,302.545z"/>
	<path style="fill:#F6B545;" d="M133.818,302.545c-2.327,0-4.655-1.164-5.818-3.491L69.818,136.145
		c-1.164-3.491,0-5.818,3.491-6.982c3.491-1.164,5.818,0,6.982,3.491l59.345,158.255c0,0-1.164,10.473-3.491,11.636
		C134.982,302.545,134.982,302.545,133.818,302.545z"/>
</g>
<path style="fill:#C97629;" d="M465.455,139.636h-18.618c-24.436,0-47.709-6.982-68.655-18.618
	c-31.418-18.618-72.145-20.945-105.891-4.655l-4.655-104.727C267.636,4.655,261.818,0,256,0s-11.636,4.655-11.636,11.636
	L239.709,115.2c-33.745-15.127-73.309-13.964-105.891,4.655c-20.945,12.8-45.382,19.782-68.655,19.782H46.545
	c-6.982,0-11.636,4.655-11.636,11.636c0,6.982,4.655,11.636,11.636,11.636h18.618c27.927,0,55.855-8.145,80.291-22.109
	c27.927-16.291,64-16.291,91.927,1.164l-16.291,311.855l0,0c-5.818,0-59.345,30.255-59.345,30.255
	c-5.818,2.327-10.473,10.473-10.473,16.291S157.091,512,162.909,512h186.182c5.818,0,11.636-5.818,11.636-11.636
	s-4.655-13.964-10.473-16.291c0,0-52.364-30.255-59.345-30.255l0,0l-15.127-311.855c27.927-17.455,64-17.455,91.927-1.164
	c24.436,15.127,52.364,22.109,80.291,22.109h17.455c6.982,0,11.636-4.655,11.636-11.636
	C477.091,144.291,472.436,139.636,465.455,139.636z"/>
<path style="fill:#FFCB5B;" d="M62.836,290.909h76.8v13.964c0,37.236-29.091,67.491-64,67.491l0,0c-34.909,0-64-30.255-64-67.491
	v-13.964H62.836z"/>
<g>
	<path style="fill:#B06328;" d="M350.255,484.073c0,0-52.364-30.255-59.345-30.255l0,0L267.636,11.636
		c0-6.982-11.636-11.636-11.636,0v442.182l15.127,30.255c3.491,8.145-2.327,16.291-10.473,16.291H151.273
		c0,5.818,5.818,11.636,11.636,11.636h186.182c5.818,0,11.636-5.818,11.636-11.636S356.073,486.4,350.255,484.073z"/>
	<path style="fill:#B06328;" d="M446.836,151.273c-26.764,0-52.364-6.982-74.473-20.945c-15.127-9.309-33.745-13.964-51.2-13.964
		c-19.782,0-39.564,5.818-55.855,16.291L256,139.636l-6.982,9.309c3.491,2.327,9.309,2.327,12.8,0l9.309-6.982
		c27.927-18.618,66.327-19.782,95.418-2.327c24.436,15.127,52.364,22.109,80.291,22.109h18.618c5.818,0,11.636-4.655,11.636-11.636
		h-30.255V151.273z"/>
	<path style="fill:#B06328;" d="M65.164,151.273c26.764,0,52.364-6.982,74.473-20.945c15.127-9.309,33.745-13.964,51.2-13.964
		c19.782,0,39.564,5.818,55.855,16.291l9.309,6.982l6.982,9.309c-3.491,2.327-9.309,2.327-12.8,0l-9.309-6.982
		c-27.927-18.618-66.327-19.782-95.418-2.327c-24.436,15.127-52.364,23.273-80.291,23.273H46.545
		c-5.818,0-11.636-4.655-11.636-11.636H65.164z"/>
</g>
<circle style="fill:#FFCB5B;" cx="256" cy="139.636" r="34.909"/>
<path style="fill:#F6B545;" d="M274.618,109.382c3.491,5.818,4.655,11.636,4.655,18.618c0,19.782-15.127,34.909-34.909,34.909
	c-6.982,0-12.8-2.327-18.618-4.655c6.982,9.309,17.455,16.291,30.255,16.291c19.782,0,34.909-15.127,34.909-34.909
	C290.909,126.836,283.927,116.364,274.618,109.382z"/>
<circle style="fill:#FFE27A;" cx="238.545" cy="133.818" r="5.818"/>
<g>
	<path style="fill:#FFCB5B;" d="M17.455,302.545c-1.164,0-1.164,0-2.327,0c-2.327-1.164-3.491-11.636-3.491-11.636l58.182-159.418
		C70.982,128,74.473,126.836,76.8,128c3.491,1.164,4.655,4.655,3.491,6.982L22.109,297.891
		C22.109,301.382,19.782,302.545,17.455,302.545z"/>
	<path style="fill:#FFCB5B;" d="M423.564,290.909h76.8v13.964c0,37.236-29.091,67.491-64,67.491l0,0c-34.909,0-64-30.255-64-67.491
		v-13.964H423.564z"/>
</g>
<path style="fill:#F6B545;" d="M465.455,290.909v2.327c0,37.236-29.091,67.491-64,67.491h-1.164
	c10.473,6.982,22.109,11.636,36.073,11.636c34.909,0,64-30.255,64-67.491v-13.964H465.455z"/>
<path style="fill:#FFCB5B;" d="M378.182,302.545c-1.164,0-1.164,0-2.327,0c-3.491-1.164-3.491-11.636-3.491-11.636l58.182-159.418
	c1.164-3.491,4.655-4.655,6.982-3.491c3.491,1.164,4.655,4.655,3.491,6.982l-58.182,162.909
	C382.836,301.382,380.509,302.545,378.182,302.545z"/>
<path style="fill:#FFE27A;" d="M424.727,314.182h-34.909c-3.491,0-5.818-2.327-5.818-5.818l0,0c0-3.491,2.327-5.818,5.818-5.818
	h34.909c3.491,0,5.818,2.327,5.818,5.818l0,0C430.545,311.855,428.218,314.182,424.727,314.182z"/>
<path style="fill:#F6B545;" d="M104.727,290.909v2.327c0,37.236-29.091,67.491-64,67.491h-1.164
	c10.473,6.982,22.109,11.636,36.073,11.636c34.909,0,64-30.255,64-67.491v-13.964H104.727z"/>
<path style="fill:#FFE27A;" d="M64,314.182H29.091c-3.491,0-5.818-2.327-5.818-5.818l0,0c0-3.491,2.327-5.818,5.818-5.818H64
	c3.491,0,5.818,2.327,5.818,5.818l0,0C69.818,311.855,67.491,314.182,64,314.182z"/>
<g>
</g>
<g>
</g>
<g>
</g>
<g>
</g>
<g>
</g>
<g>
</g>
<g>
</g>
<g>
</g>
<g>
</g>
<g>
</g>
<g>
</g>
<g>
</g>
<g>
</g>
<g>
</g>
<g>
</g>
</svg>
