<?xml version="1.0" encoding="iso-8859-1"?>
<!-- Generator: Adobe Illustrator 19.0.0, SVG Export Plug-In . SVG Version: 6.00 Build 0)  -->
<svg version="1.1" id="Capa_1" xmlns="http://www.w3.org/2000/svg" xmlns:xlink="http://www.w3.org/1999/xlink" x="0px" y="0px"
	 viewBox="0 0 468.293 468.293" style="enable-background:new 0 0 468.293 468.293;" xml:space="preserve">
<path style="fill:#D15241;" d="M468.293,209.517c0-9.594-7.25-17.638-16.792-18.63l-59.778-7.591
	c-2.749-8.524-6.182-16.736-10.213-24.593l36.918-47.659c6.045-7.45,5.484-18.264-1.3-25.048l-34.83-34.83
	c-6.784-6.784-17.598-7.345-25.048-1.3L309.59,86.783c-7.858-4.03-16.069-7.463-24.593-10.213l-7.591-59.778
	C276.412,7.249,268.369,0,258.775,0h-49.257c-9.594,0-17.638,7.249-18.631,16.792l-7.591,59.779
	c-8.524,2.748-16.736,6.181-24.593,10.213l-47.659-36.918c-7.45-6.045-18.264-5.484-25.048,1.3l-34.83,34.831
	c-6.784,6.784-7.346,17.598-1.3,25.047l36.918,47.659c-4.031,7.857-7.464,16.069-10.213,24.592l-59.778,7.592
	C7.249,191.881,0,199.924,0,209.518v49.257c0,9.595,7.25,17.637,16.793,18.631l59.778,7.591c2.749,8.524,6.182,16.735,10.213,24.592
	l-36.918,47.659c-6.045,7.45-5.484,18.264,1.3,25.049l34.83,34.829c6.784,6.784,17.598,7.346,25.048,1.3l47.659-36.918
	c7.858,4.03,16.069,7.463,24.593,10.212l7.591,59.778c0.994,9.543,9.037,16.793,18.631,16.793h49.257
	c9.595,0,17.638-7.249,18.631-16.793l7.591-59.778c8.524-2.748,16.736-6.181,24.595-10.213l47.659,36.918
	c7.45,6.046,18.264,5.485,25.048-1.3l34.83-34.829c6.784-6.785,7.345-17.598,1.3-25.049l-36.918-47.659
	c4.031-7.858,7.463-16.069,10.212-24.593l59.778-7.591c9.543-0.994,16.792-9.037,16.792-18.631L468.293,209.517z"/>
<circle style="fill:#FCD462;" cx="234.147" cy="234.147" r="118.634"/>
<path style="fill:#E56353;" d="M234.147,327.192c-51.307,0-93.047-41.74-93.047-93.045c0-51.307,41.74-93.047,93.047-93.047
	c51.305,0,93.045,41.74,93.045,93.047C327.192,285.452,285.452,327.192,234.147,327.192z"/>
<path style="fill:#F6C358;" d="M230.392,304.908v-12.462c-15.595-1.591-29.592-7.794-41.999-18.603l12.462-14.852
	c9.565,8.308,19.409,13.254,29.537,14.852v-33.121c-12.865-3.07-22.278-7.113-28.252-12.122c-5.974-5.008-8.968-12.434-8.968-22.278
	c0-9.843,3.445-17.894,10.33-24.16c6.884-6.259,15.852-9.67,26.89-10.239v-8.537h10.927v8.704
	c12.518,0.917,24.355,5.182,35.511,12.809l-11.101,15.706c-7.509-5.349-15.651-8.648-24.41-9.906v32.093h0.514
	c13.087,3.077,22.701,7.231,28.849,12.462c6.148,5.238,9.218,12.837,9.218,22.792c0,9.961-3.529,18.075-10.587,24.327
	c-7.058,6.266-16.387,9.677-27.995,10.246v12.288H230.392z M218.353,194.714c-2.897,2.556-4.349,5.745-4.349,9.558
	c0,3.814,1.132,6.828,3.411,9.044c2.278,2.223,6.599,4.355,12.976,6.405v-29.537C225.272,190.644,221.257,192.151,218.353,194.714z
	 M254.295,269.57c3.182-2.612,4.779-5.912,4.779-9.899c0-3.98-1.257-7.141-3.758-9.475c-2.501-2.334-7.169-4.522-13.997-6.571
	v30.725C246.779,273.787,251.106,272.189,254.295,269.57z"/>
<g>
</g>
<g>
</g>
<g>
</g>
<g>
</g>
<g>
</g>
<g>
</g>
<g>
</g>
<g>
</g>
<g>
</g>
<g>
</g>
<g>
</g>
<g>
</g>
<g>
</g>
<g>
</g>
<g>
</g>
</svg>
