<?xml version="1.0" encoding="iso-8859-1"?>
<!-- Generator: Adobe Illustrator 19.0.0, SVG Export Plug-In . SVG Version: 6.00 Build 0)  -->
<svg version="1.1" id="Capa_1" xmlns="http://www.w3.org/2000/svg" xmlns:xlink="http://www.w3.org/1999/xlink" x="0px" y="0px"
	 viewBox="0 0 468.293 468.293" style="enable-background:new 0 0 468.293 468.293;" xml:space="preserve">
<path style="fill:#3A556A;" d="M455.805,394.121H12.488C5.591,394.121,0,388.53,0,381.634V56.951
	c0-6.897,5.591-12.488,12.488-12.488h443.317c6.897,0,12.488,5.591,12.488,12.488v324.683
	C468.293,388.53,462.702,394.121,455.805,394.121z"/>
<path style="fill:#64798A;" d="M37.462,344.17V94.414c0-6.897,5.591-12.488,12.488-12.488h368.39
	c6.897,0,12.488,5.591,12.488,12.488V344.17c0,6.897-5.591,12.488-12.488,12.488H49.95C43.053,356.658,37.462,351.067,37.462,344.17
	z"/>
<g>
	<path style="fill:#2F4859;" d="M251.74,192.777h-24.976v-68.683c0-6.897,5.591-12.488,12.488-12.488h0
		c6.897,0,12.488,5.591,12.488,12.488V192.777z"/>
	<path style="fill:#2F4859;" d="M315.392,295.444L315.392,295.444c-4.877,4.877-12.785,4.877-17.661,0l-50.393-50.397l17.661-17.661
		l50.394,50.398C320.269,282.661,320.269,290.568,315.392,295.444z"/>
	<path style="fill:#2F4859;" d="M163.094,295.452L163.094,295.452c-4.878-4.877-4.877-12.784,0-17.661l50.4-50.397l17.661,17.661
		l-50.401,50.398C175.877,300.329,167.97,300.328,163.094,295.452z"/>
	<path style="fill:#2F4859;" d="M39.264,179.277H35.66c-6.897,0-12.488-5.591-12.488-12.488v-44.849
		c0-6.897,5.591-12.488,12.488-12.488h3.604c6.897,0,12.488,5.591,12.488,12.488v44.849
		C51.752,173.686,46.161,179.277,39.264,179.277z"/>
	<path style="fill:#2F4859;" d="M39.264,329.131H35.66c-6.897,0-12.488-5.591-12.488-12.488v-44.849
		c0-6.897,5.591-12.488,12.488-12.488h3.604c6.897,0,12.488,5.591,12.488,12.488v44.849
		C51.752,323.54,46.161,329.131,39.264,329.131z"/>
	<path style="fill:#2F4859;" d="M239.252,131.463c-48.506,0-87.829,39.322-87.829,87.828s39.322,87.829,87.829,87.829
		s87.829-39.322,87.829-87.829S287.758,131.463,239.252,131.463z M239.255,288.39c-38.098,0-69.098-30.997-69.098-69.098
		s31-69.098,69.098-69.098s69.091,30.997,69.091,69.098S277.352,288.39,239.255,288.39z"/>
	<circle style="fill:#2F4859;" cx="239.254" cy="219.292" r="32.756"/>
</g>
<path style="fill:#EBF0F3;" d="M239.255,239.563c-11.177,0-20.274-9.095-20.274-20.271c0-11.177,9.098-20.271,20.274-20.271
	c11.177,0,20.268,9.095,20.268,20.271C259.523,230.469,250.432,239.563,239.255,239.563z"/>
<g>
	<path style="fill:#2F4859;" d="M102.872,423.83H67.115c-6.897,0-12.488-5.591-12.488-12.488v-17.221h60.733v17.221
		C115.36,418.239,109.769,423.83,102.872,423.83z"/>
	<path style="fill:#2F4859;" d="M401.178,423.83h-35.757c-6.897,0-12.488-5.591-12.488-12.488v-17.221h60.733v17.221
		C413.666,418.239,408.075,423.83,401.178,423.83z"/>
</g>
<g>
</g>
<g>
</g>
<g>
</g>
<g>
</g>
<g>
</g>
<g>
</g>
<g>
</g>
<g>
</g>
<g>
</g>
<g>
</g>
<g>
</g>
<g>
</g>
<g>
</g>
<g>
</g>
<g>
</g>
</svg>
