<?xml version="1.0" encoding="iso-8859-1"?>
<!-- Generator: Adobe Illustrator 19.0.0, SVG Export Plug-In . SVG Version: 6.00 Build 0)  -->
<svg version="1.1" id="Capa_1" xmlns="http://www.w3.org/2000/svg" xmlns:xlink="http://www.w3.org/1999/xlink" x="0px" y="0px"
	 viewBox="0 0 468.293 468.293" style="enable-background:new 0 0 468.293 468.293;" xml:space="preserve">
<path style="fill:#27A2DB;" d="M309.397,221.498c0-0.067,0-0.067-0.067-0.067c-3.499-44.625-11.109-91.607-21.518-130.774H180.496
	c-10.417,39.146-18.036,86.098-21.534,130.707c0,0,0,0.067-0.067,0.067c-1.004,13.329-1.741,26.457-2.009,39.049
	c-0.067,4.488-0.134,8.841-0.134,13.194c0,5.292,0.067,10.449,0.268,15.338c0.737,25.854,3.617,46.149,8.171,62.223h137.977
	c4.487-16.075,7.367-36.369,8.104-62.223c0.201-4.889,0.268-10.047,0.268-15.338c0-4.353-0.067-8.707-0.134-13.194
	C311.139,247.889,310.401,234.828,309.397,221.498z"/>
<circle style="fill:#EBF0F3;" cx="234.146" cy="190.008" r="43.014"/>
<g>
	<path style="fill:#64798A;" d="M165.259,351.237l-64.434,66.979v-85.331c0-42.532,54.655-107.434,58.071-111.453
		c-1.004,13.329-1.742,26.457-2.009,39.048c-0.067,4.488-0.134,8.842-0.134,13.195c0,5.292,0.067,10.449,0.268,15.338
		c0.737,25.855,3.617,46.149,8.171,62.224H165.259z"/>
	<path style="fill:#64798A;" d="M367.468,332.885v85.331l-64.434-66.979h0.134c4.487-16.075,7.368-36.369,8.104-62.224
		c0.201-4.889,0.268-10.047,0.268-15.338c0-4.353-0.067-8.707-0.134-13.195c-0.268-12.591-1.005-25.653-2.009-38.981
		C313.148,225.92,367.468,290.486,367.468,332.885z"/>
</g>
<polygon style="fill:#44C4A1;" points="210.439,468.293 163.025,468.293 185.737,351.237 218.01,351.237 "/>
<polygon style="fill:#E56353;" points="257.853,468.293 210.439,468.293 218.01,351.237 250.283,351.237 "/>
<polygon style="fill:#FCD462;" points="305.267,468.293 257.853,468.293 250.283,351.237 282.556,351.237 "/>
<path style="fill:#64798A;" d="M234.18,0c-20.84,0-39.764,38.349-53.684,90.657h107.316C273.913,38.351,255.014,0,234.18,0z"/>
<g>
</g>
<g>
</g>
<g>
</g>
<g>
</g>
<g>
</g>
<g>
</g>
<g>
</g>
<g>
</g>
<g>
</g>
<g>
</g>
<g>
</g>
<g>
</g>
<g>
</g>
<g>
</g>
<g>
</g>
</svg>
