<?xml version="1.0" encoding="iso-8859-1"?>
<!-- Generator: Adobe Illustrator 19.0.0, SVG Export Plug-In . SVG Version: 6.00 Build 0)  -->
<svg version="1.1" id="Capa_1" xmlns="http://www.w3.org/2000/svg" xmlns:xlink="http://www.w3.org/1999/xlink" x="0px" y="0px"
	 viewBox="0 0 468.293 468.293" style="enable-background:new 0 0 468.293 468.293;" xml:space="preserve">
<path style="fill:#CE412D;" d="M56.415,311.615c15.744,24.115,40.633,44.29,71.333,57.985l-7.566,26.505
	c-1.924,6.736,1.978,13.757,8.715,15.68l17.06,4.871c6.737,1.923,13.758-1.979,15.682-8.717l7.083-24.814
	c16.927,3.822,34.871,5.899,53.47,5.899c18.599,0,36.543-2.075,53.471-5.899l7.085,24.816c1.922,6.737,8.943,10.639,15.68,8.716
	l17.059-4.871c6.737-1.924,10.639-8.945,8.715-15.681l-7.566-26.505c25.12-11.206,46.318-26.764,61.824-45.254
	c-41.96,11.127-90.016,17.448-141.091,17.448C169.229,341.795,106.501,330.522,56.415,311.615z"/>
<g>
	<path style="fill:#E56353;" d="M406.363,258.863h10.952c22.994,0,43.097-15.502,48.942-37.741l1.582-6.02
		c1.606-6.109-1.129-12.847-6.918-15.375c-7.393-3.228-15.516,0.922-17.472,8.357l-1.733,6.591
		c-2.914,11.087-12.937,18.816-24.401,18.816h-10.952c-0.485,0-0.946,0.09-1.417,0.144c-11.72-67.55-89.042-119.743-182.754-119.743
		c-8.006,0-15.876,0.423-23.612,1.162c-6.014-17.87-23.641-44.531-75.256-39.142c-5.832,0.609-7.908,7.977-3.37,11.691
		c9.221,7.546,20.454,20.168,24.839,39.003c-46.601,16.115-82.667,46.305-98.358,83.282l-31.195,6.281
		C6.376,217.953,0,225.741,0,234.783v33.35c0,9.043,6.377,16.832,15.242,18.617l31.194,6.28c2.722,6.415,6.082,12.616,9.979,18.585
		c50.085,18.907,112.813,30.18,180.953,30.18c51.074,0,99.131-6.321,141.091-17.448c16.086-19.18,26.043-41.516,27.747-65.5
		C406.261,258.848,406.31,258.863,406.363,258.863z"/>
	<path style="fill:#E56353;" d="M183.798,109.131c-3.578-10.631-14.224-26.612-45.876-22.507c-2.614,0.339-3.535,3.723-1.424,5.303
		c5.585,4.18,13.223,11.858,16.031,23.92L183.798,109.131z"/>
</g>
<circle style="fill:#2F4859;" cx="123.067" cy="199.499" r="17.495"/>
<circle style="fill:#F6C358;" cx="286.345" cy="112.047" r="60.903"/>
<path style="fill:#DC8744;" d="M286.334,158.888c-25.827,0-46.844-21.013-46.844-46.841s21.017-46.841,46.844-46.841
	s46.837,21.013,46.837,46.841S312.162,158.888,286.334,158.888z"/>
<path style="fill:#F6C358;" d="M284.684,143.111v-5.471c-6.849-0.698-12.997-3.422-18.437-8.167l5.471-6.52
	c4.196,3.647,8.514,5.819,12.967,6.52v-14.54c-5.648-1.348-9.783-3.123-12.405-5.321c-2.623-2.199-3.934-5.459-3.934-9.78
	c0-4.321,1.506-7.856,4.532-10.606c3.025-2.748,6.959-4.245,11.808-4.495v-3.748h4.794v3.821c5.495,0.403,10.692,2.275,15.589,5.623
	l-4.873,6.895c-3.3-2.348-6.867-3.797-10.716-4.349v14.089h0.226c5.745,1.351,9.966,3.175,12.662,5.471
	c2.702,2.299,4.05,5.636,4.05,10.006c0,4.373-1.549,7.935-4.647,10.679c-3.098,2.751-7.191,4.248-12.29,4.498v5.395H284.684z
	 M279.396,94.736c-1.275,1.122-1.909,2.522-1.909,4.196c0,1.674,0.5,2.998,1.5,3.97c0.994,0.976,2.897,1.912,5.697,2.812V92.748
	C282.434,92.949,280.671,93.611,279.396,94.736z M295.174,127.598c1.397-1.147,2.098-2.595,2.098-4.346
	c0-1.747-0.549-3.135-1.647-4.16c-1.104-1.025-3.153-1.985-6.148-2.885v13.488C291.875,129.449,293.772,128.748,295.174,127.598z"/>
<rect x="235.208" y="172.957" style="fill:#2F4859;" width="102.244" height="15.835"/>
<g>
</g>
<g>
</g>
<g>
</g>
<g>
</g>
<g>
</g>
<g>
</g>
<g>
</g>
<g>
</g>
<g>
</g>
<g>
</g>
<g>
</g>
<g>
</g>
<g>
</g>
<g>
</g>
<g>
</g>
</svg>
