<?xml version="1.0" encoding="iso-8859-1"?>
<!-- Generator: Adobe Illustrator 19.0.0, SVG Export Plug-In . SVG Version: 6.00 Build 0)  -->
<svg version="1.1" id="Capa_1" xmlns="http://www.w3.org/2000/svg" xmlns:xlink="http://www.w3.org/1999/xlink" x="0px" y="0px"
	 viewBox="0 0 512 512" style="enable-background:new 0 0 512 512;" xml:space="preserve">
<path style="fill:#99B4CD;" d="M372.364,407.273H151.273c-6.982,0-11.636-4.655-11.636-11.636c0-6.982,4.655-11.636,11.636-11.636
	h221.091c6.982,0,11.636,4.655,11.636,11.636C384,402.618,379.345,407.273,372.364,407.273z"/>
<path style="fill:#6C9ABB;" d="M151.273,407.273h221.091c6.982,0,11.636-4.655,11.636-11.636H139.636
	C139.636,402.618,144.291,407.273,151.273,407.273z"/>
<path style="fill:#3689C9;" d="M302.545,162.909h-23.273v46.545h23.273c38.4,0,69.818,31.418,69.818,69.818v93.091h-34.909
	c-6.982,0-11.636,4.655-11.636,11.636v23.273c0,6.982,4.655,11.636,11.636,11.636h34.909v23.273h-46.545H116.364
	c-12.8,0-23.273,10.473-23.273,23.273v34.909c0,6.982,4.655,11.636,11.636,11.636h302.545c6.982,0,11.636-4.655,11.636-11.636
	v-58.182V279.273C418.909,215.273,366.545,162.909,302.545,162.909z"/>
<path style="fill:#1470B8;" d="M395.636,418.909V279.273c0-51.2-41.891-93.091-93.091-93.091h-23.273v23.273h23.273
	c38.4,0,69.818,31.418,69.818,69.818v116.364h-23.273c-6.982,0-11.636,4.655-11.636,11.636v11.636h34.909v23.273h23.273h23.273
	v-11.636L395.636,418.909z"/>
<path style="fill:#4C9CD6;" d="M279.273,279.273V81.455c0-12.8-10.473-23.273-23.273-23.273h-93.091
	c-12.8,0-23.273,10.473-23.273,23.273v197.818H279.273z"/>
<path style="fill:#3689C9;" d="M279.273,279.273h-46.545V58.182H256c12.8,0,23.273,10.473,23.273,23.273V279.273z"/>
<g>
	<path style="fill:#70B7E5;" d="M174.545,87.273v81.455c0,3.491-2.327,5.818-5.818,5.818l0,0c-3.491,0-5.818-2.327-5.818-5.818
		V87.273c0-3.491,2.327-5.818,5.818-5.818l0,0C172.218,81.455,174.545,83.782,174.545,87.273z"/>
	<path style="fill:#70B7E5;" d="M162.909,192L162.909,192c0-3.491,2.327-5.818,5.818-5.818l0,0c3.491,0,5.818,2.327,5.818,5.818l0,0
		c0,3.491-2.327,5.818-5.818,5.818l0,0C165.236,197.818,162.909,195.491,162.909,192z"/>
</g>
<rect x="174.545" y="11.636" style="fill:#D5E3EF;" width="69.818" height="46.545"/>
<path style="fill:#4C9CD6;" d="M244.364,23.273h-69.818c-6.982,0-11.636-4.655-11.636-11.636S167.564,0,174.545,0h69.818
	C251.345,0,256,4.655,256,11.636S251.345,23.273,244.364,23.273z"/>
<path style="fill:#D5E3EF;" d="M279.273,279.273H139.636l19.782,39.564c2.327,3.491,5.818,6.982,10.473,6.982h79.127
	c4.655,0,8.145-2.327,10.473-6.982L279.273,279.273z"/>
<path style="fill:#B0C4D9;" d="M174.545,23.273v11.636h23.273c12.8,0,23.273,10.473,23.273,23.273l0,0h23.273V34.909V23.273H174.545
	z"/>
<path style="fill:#1470B8;" d="M279.273,162.909v46.545h23.273c1.164,0,1.164,0,2.327,0c5.818-5.818,9.309-13.964,9.309-23.273
	c0-9.309-3.491-17.455-9.309-23.273c-1.164,0-2.327,0-2.327,0H279.273z"/>
<circle style="fill:#4C9CD6;" cx="267.636" cy="186.182" r="34.909"/>
<circle style="fill:#D5E3EF;" cx="267.636" cy="186.182" r="11.636"/>
<path style="fill:#1470B8;" d="M104.727,512h302.545c6.982,0,11.636-4.655,11.636-11.636H93.091
	C93.091,507.345,97.745,512,104.727,512z"/>
<path style="fill:#B0C4D9;" d="M232.727,279.273l-6.982,25.6c-1.164,4.655-5.818,9.309-11.636,9.309h-58.182l2.327,4.655
	c2.327,3.491,5.818,6.982,10.473,6.982h52.364h11.636h16.291c4.655,0,8.145-2.327,10.473-6.982l19.782-39.564H232.727z"/>
<g>
	<path style="fill:#4C9CD6;" d="M192,465.455h-69.818c-3.491,0-5.818-2.327-5.818-5.818l0,0c0-3.491,2.327-5.818,5.818-5.818H192
		c3.491,0,5.818,2.327,5.818,5.818l0,0C197.818,463.127,195.491,465.455,192,465.455z"/>
	<path style="fill:#4C9CD6;" d="M238.545,465.455h-23.273c-3.491,0-5.818-2.327-5.818-5.818l0,0c0-3.491,2.327-5.818,5.818-5.818
		h23.273c3.491,0,5.818,2.327,5.818,5.818l0,0C244.364,463.127,242.036,465.455,238.545,465.455z"/>
</g>
<path style="fill:#3689C9;" d="M174.545,23.273h69.818c6.982,0,11.636-4.655,11.636-11.636h-93.091
	C162.909,18.618,167.564,23.273,174.545,23.273z"/>
<g>
</g>
<g>
</g>
<g>
</g>
<g>
</g>
<g>
</g>
<g>
</g>
<g>
</g>
<g>
</g>
<g>
</g>
<g>
</g>
<g>
</g>
<g>
</g>
<g>
</g>
<g>
</g>
<g>
</g>
</svg>
