<?xml version="1.0" encoding="iso-8859-1"?>
<!-- Generator: Adobe Illustrator 19.0.0, SVG Export Plug-In . SVG Version: 6.00 Build 0)  -->
<svg version="1.1" id="Capa_1" xmlns="http://www.w3.org/2000/svg" xmlns:xlink="http://www.w3.org/1999/xlink" x="0px" y="0px"
	 viewBox="0 0 468.293 468.293" style="enable-background:new 0 0 468.293 468.293;" xml:space="preserve">
<path style="fill:#64798A;" d="M234.784,125.664c-3.29,0-5.952-2.665-5.952-5.952v-21.08c0-13.128,10.678-23.809,23.809-23.809
	h21.356c5.696,0,10.329-4.633,10.329-10.329s-4.633-10.329-10.329-10.329h-79.622c-13.131,0-23.809-10.681-23.809-23.809V5.952
	c0-3.287,2.662-5.952,5.952-5.952c3.29,0,5.952,2.665,5.952,5.952v24.404c0,6.565,5.342,11.904,11.904,11.904h79.622
	c12.259,0,22.233,9.975,22.233,22.233s-9.975,22.233-22.233,22.233H252.64c-6.562,0-11.904,5.339-11.904,11.904v21.08
	C240.736,122.999,238.074,125.664,234.784,125.664z"/>
<path style="fill:#D5D6DB;" d="M298.873,119.713h-64.727v172.523h102.724c0.029-16.482,2.563-31.843,6.937-44.835
	c7.365-21.879,12.004-44.582,12.004-67.667v-3.081C355.812,145.205,330.32,119.713,298.873,119.713z"/>
<path style="fill:#E1E6E9;" d="M169.42,119.713c-31.446,0-56.939,25.492-56.939,56.939v3.084c0,23.085,4.639,45.787,12.004,67.666
	c4.374,12.993,6.908,28.353,6.937,44.835h102.725V119.713H169.42z"/>
<path style="fill:#D5D6DB;" d="M346.521,344.838c-4.838-11.534-8.079-25.477-9.198-40.697c-0.28-3.806-0.462-7.671-0.462-11.624
	c0-0.095,0.011-0.185,0.011-0.28h-96.134V119.713h-11.904v172.523h-97.411c0,0.096,0.011,0.185,0.011,0.28
	c0,3.953-0.183,7.818-0.462,11.624c-1.119,15.22-4.36,29.164-9.198,40.697c-5.98,14.259-9.291,29.467-9.291,44.929v0.001
	c0,43.369,35.157,78.526,78.526,78.526h86.278c43.369,0,78.526-35.157,78.526-78.526
	C355.812,374.303,352.501,359.096,346.521,344.838z"/>
<path style="fill:#64798A;" d="M234.146,238.396L234.146,238.396c-9.865,0-17.862-7.997-17.862-17.862v-47.633
	c0-9.865,7.997-17.862,17.862-17.862h0c9.865,0,17.862,7.997,17.862,17.862v47.633C252.009,230.399,244.011,238.396,234.146,238.396
	z"/>
<g>
</g>
<g>
</g>
<g>
</g>
<g>
</g>
<g>
</g>
<g>
</g>
<g>
</g>
<g>
</g>
<g>
</g>
<g>
</g>
<g>
</g>
<g>
</g>
<g>
</g>
<g>
</g>
<g>
</g>
</svg>
