<?xml version="1.0" encoding="iso-8859-1"?>
<!-- Generator: Adobe Illustrator 19.0.0, SVG Export Plug-In . SVG Version: 6.00 Build 0)  -->
<svg version="1.1" id="Capa_1" xmlns="http://www.w3.org/2000/svg" xmlns:xlink="http://www.w3.org/1999/xlink" x="0px" y="0px"
	 viewBox="0 0 512 512" style="enable-background:new 0 0 512 512;" xml:space="preserve">
<rect x="69.818" y="93.091" style="fill:#F6B545;" width="116.364" height="209.455"/>
<g>
	<path style="fill:#FFCB5B;" d="M209.455,58.182v11.636c0,12.8-10.473,23.273-23.273,23.273H69.818
		c-12.8,0-23.273-10.473-23.273-23.273V58.182c0-6.982,4.655-11.636,11.636-11.636h139.636
		C204.8,46.545,209.455,51.2,209.455,58.182z"/>
	<path style="fill:#FFCB5B;" d="M209.455,325.818v11.636c0,6.982-4.655,11.636-11.636,11.636H58.182
		c-6.982,0-11.636-4.655-11.636-11.636v-11.636c0-12.8,10.473-23.273,23.273-23.273h116.364
		C198.982,302.545,209.455,313.018,209.455,325.818z"/>
</g>
<g>
	<path style="fill:#B06328;" d="M202.473,395.636H53.527c-10.473,0-19.782,6.982-22.109,17.455l-8.145,29.091h209.455l-6.982-29.091
		C223.418,402.618,214.109,395.636,202.473,395.636z"/>
	<path style="fill:#B06328;" d="M512,174.545v46.545c0,12.8-10.473,23.273-23.273,23.273H267.636
		c-6.982,0-11.636-4.655-11.636-11.636v-69.818c0-6.982,4.655-11.636,11.636-11.636h221.091
		C501.527,151.273,512,161.745,512,174.545z"/>
</g>
<rect x="186.182" y="162.909" style="fill:#F19920;" width="69.818" height="69.818"/>
<path style="fill:#B06328;" d="M244.364,465.455H11.636C4.655,465.455,0,460.8,0,453.818l0,0c0-6.982,4.655-11.636,11.636-11.636
	h232.727c6.982,0,11.636,4.655,11.636,11.636l0,0C256,460.8,251.345,465.455,244.364,465.455z"/>
<path style="fill:#E78825;" d="M209.455,186.182v-23.273h-23.273v69.818h23.273H256v-34.909h-34.909
	C214.109,197.818,209.455,193.164,209.455,186.182z"/>
<path style="fill:#F19920;" d="M69.818,93.091v11.636h46.545c12.8,0,23.273,10.473,23.273,23.273v174.545h46.545V104.727V93.091
	H69.818z"/>
<path style="fill:#A35425;" d="M488.727,151.273v34.909c0,6.982-4.655,11.636-11.636,11.636H279.273
	c-6.982,0-11.636,4.655-11.636,11.636v34.909h221.091c12.8,0,23.273-10.473,23.273-23.273v-23.273v-23.273
	C512,161.745,501.527,151.273,488.727,151.273z"/>
<g>
	<path style="fill:#F6B545;" d="M186.182,302.545h-23.273c-6.982,0-11.636,4.655-11.636,11.636v11.636
		c0,6.982-4.655,11.636-11.636,11.636H46.545c0,6.982,4.655,11.636,11.636,11.636h139.636c6.982,0,11.636-4.655,11.636-11.636
		v-11.636C209.455,313.018,198.982,302.545,186.182,302.545z"/>
	<path style="fill:#F6B545;" d="M197.818,46.545h-34.909c-6.982,0-11.636,4.655-11.636,11.636v11.636
		c0,6.982-4.655,11.636-11.636,11.636h-89.6c3.491,6.982,11.636,11.636,19.782,11.636h116.364c12.8,0,23.273-10.473,23.273-23.273
		V58.182C209.455,51.2,204.8,46.545,197.818,46.545z"/>
</g>
<g>
	<path style="fill:#A35425;" d="M225.745,413.091c-2.327-10.473-11.636-17.455-22.109-17.455h-18.618
		c-6.982,0-12.8,5.818-11.636,12.8l1.164,9.309c1.164,6.982-4.655,12.8-11.636,12.8H25.6l-2.327,11.636h209.455L225.745,413.091z"/>
	<path style="fill:#A35425;" d="M244.364,442.182h-58.182c0,6.982-4.655,11.636-11.636,11.636H0c0,6.982,4.655,11.636,11.636,11.636
		h232.727c6.982,0,11.636-4.655,11.636-11.636C256,446.836,251.345,442.182,244.364,442.182z"/>
</g>
<g>
	<path style="fill:#FFCB5B;" d="M93.091,122.182v58.182c0,3.491-2.327,5.818-5.818,5.818l0,0c-3.491,0-5.818-2.327-5.818-5.818
		v-58.182c0-3.491,2.327-5.818,5.818-5.818l0,0C90.764,116.364,93.091,118.691,93.091,122.182z"/>
	<path style="fill:#FFCB5B;" d="M93.091,203.636v23.273c0,3.491-2.327,5.818-5.818,5.818l0,0c-3.491,0-5.818-2.327-5.818-5.818
		v-23.273c0-3.491,2.327-5.818,5.818-5.818l0,0C90.764,197.818,93.091,200.145,93.091,203.636z"/>
</g>
<g>
	<path style="fill:#FFE27A;" d="M87.273,69.818H64c-3.491,0-5.818-2.327-5.818-5.818l0,0c0-3.491,2.327-5.818,5.818-5.818h23.273
		c3.491,0,5.818,2.327,5.818,5.818l0,0C93.091,67.491,90.764,69.818,87.273,69.818z"/>
	<path style="fill:#FFE27A;" d="M87.273,325.818H64c-3.491,0-5.818-2.327-5.818-5.818l0,0c0-3.491,2.327-5.818,5.818-5.818h23.273
		c3.491,0,5.818,2.327,5.818,5.818l0,0C93.091,323.491,90.764,325.818,87.273,325.818z"/>
</g>
<g>
</g>
<g>
</g>
<g>
</g>
<g>
</g>
<g>
</g>
<g>
</g>
<g>
</g>
<g>
</g>
<g>
</g>
<g>
</g>
<g>
</g>
<g>
</g>
<g>
</g>
<g>
</g>
<g>
</g>
</svg>
