<?xml version="1.0" encoding="iso-8859-1"?>
<!-- Generator: Adobe Illustrator 19.0.0, SVG Export Plug-In . SVG Version: 6.00 Build 0)  -->
<svg version="1.1" id="Capa_1" xmlns="http://www.w3.org/2000/svg" xmlns:xlink="http://www.w3.org/1999/xlink" x="0px" y="0px"
	 viewBox="0 0 468.293 468.293" style="enable-background:new 0 0 468.293 468.293;" xml:space="preserve">
<path style="fill:#D5D6DB;" d="M455.805,397.912H12.488C5.59,397.912,0,392.321,0,385.424v6.244c0,6.897,5.59,12.488,12.488,12.488
	h443.317c6.896,0,12.488-5.591,12.488-12.488v-6.244C468.293,392.321,462.701,397.912,455.805,397.912z"/>
<path style="fill:#E1E6E9;" d="M455.805,179.376H12.488C5.59,179.376,0,184.966,0,191.864v193.561
	c0,6.897,5.59,12.488,12.488,12.488h443.317c6.896,0,12.488-5.591,12.488-12.488V191.864
	C468.293,184.966,462.701,179.376,455.805,179.376z"/>
<path style="fill:#2F4859;" d="M128.472,82.868h201.28c12.043,0,21.835,9.793,21.835,21.832s-9.793,21.832-21.835,21.832h-83.122
	c-12.049,0-21.854,9.805-21.854,19.024v33.819h18.732v-30.989c0-1.723,1.402-3.122,3.122-3.122h83.122
	c22.366,0,40.567-18.198,40.567-40.564s-18.201-40.564-40.567-40.564h-201.28c-5.171,0-9.366,4.192-9.366,9.366
	S123.301,82.868,128.472,82.868z"/>
<g>
	<path style="fill:#3A556A;" d="M71.315,235.417H58.827c-3.448,0-6.244-2.795-6.244-6.244v-12.488c0-3.448,2.795-6.244,6.244-6.244
		h12.488c3.448,0,6.244,2.795,6.244,6.244v12.488C77.559,232.621,74.763,235.417,71.315,235.417z"/>
	<path style="fill:#3A556A;" d="M113.584,235.417h-12.488c-3.448,0-6.244-2.795-6.244-6.244v-12.488
		c0-3.448,2.795-6.244,6.244-6.244h12.488c3.448,0,6.244,2.795,6.244,6.244v12.488C119.828,232.621,117.032,235.417,113.584,235.417
		z"/>
	<path style="fill:#3A556A;" d="M155.852,235.417h-12.488c-3.448,0-6.244-2.795-6.244-6.244v-12.488
		c0-3.448,2.796-6.244,6.244-6.244h12.488c3.448,0,6.244,2.795,6.244,6.244v12.488C162.096,232.621,159.301,235.417,155.852,235.417
		z"/>
	<path style="fill:#3A556A;" d="M198.121,235.417h-12.488c-3.448,0-6.244-2.795-6.244-6.244v-12.488
		c0-3.448,2.795-6.244,6.244-6.244h12.488c3.448,0,6.244,2.795,6.244,6.244v12.488C204.365,232.621,201.569,235.417,198.121,235.417
		z"/>
	<path style="fill:#3A556A;" d="M240.39,235.417h-12.488c-3.448,0-6.244-2.795-6.244-6.244v-12.488c0-3.448,2.795-6.244,6.244-6.244
		h12.488c3.448,0,6.244,2.795,6.244,6.244v12.488C246.634,232.621,243.838,235.417,240.39,235.417z"/>
	<path style="fill:#3A556A;" d="M282.659,235.417h-12.488c-3.448,0-6.244-2.795-6.244-6.244v-12.488
		c0-3.448,2.796-6.244,6.244-6.244h12.488c3.448,0,6.244,2.795,6.244,6.244v12.488C288.902,232.621,286.107,235.417,282.659,235.417
		z"/>
	<path style="fill:#3A556A;" d="M324.927,235.417h-12.488c-3.448,0-6.244-2.795-6.244-6.244v-12.488
		c0-3.448,2.796-6.244,6.244-6.244h12.488c3.448,0,6.244,2.795,6.244,6.244v12.488C331.171,232.621,328.376,235.417,324.927,235.417
		z"/>
	<path style="fill:#3A556A;" d="M367.196,235.417h-12.488c-3.448,0-6.244-2.795-6.244-6.244v-12.488
		c0-3.448,2.796-6.244,6.244-6.244h12.488c3.448,0,6.244,2.795,6.244,6.244v12.488C373.44,232.621,370.644,235.417,367.196,235.417z
		"/>
	<path style="fill:#3A556A;" d="M409.465,235.417h-12.488c-3.448,0-6.244-2.795-6.244-6.244v-12.488
		c0-3.448,2.796-6.244,6.244-6.244h12.488c3.448,0,6.244,2.795,6.244,6.244v12.488C415.709,232.621,412.913,235.417,409.465,235.417
		z"/>
	<path style="fill:#3A556A;" d="M71.315,327.199H58.827c-3.448,0-6.244-2.796-6.244-6.244v-12.488c0-3.448,2.795-6.244,6.244-6.244
		h12.488c3.448,0,6.244,2.796,6.244,6.244v12.488C77.559,324.404,74.763,327.199,71.315,327.199z"/>
	<path style="fill:#3A556A;" d="M113.584,327.199h-12.488c-3.448,0-6.244-2.796-6.244-6.244v-12.488
		c0-3.448,2.795-6.244,6.244-6.244h12.488c3.448,0,6.244,2.796,6.244,6.244v12.488C119.828,324.404,117.032,327.199,113.584,327.199
		z"/>
	<path style="fill:#3A556A;" d="M155.852,327.199h-12.488c-3.448,0-6.244-2.796-6.244-6.244v-12.488
		c0-3.448,2.796-6.244,6.244-6.244h12.488c3.448,0,6.244,2.796,6.244,6.244v12.488C162.096,324.404,159.301,327.199,155.852,327.199
		z"/>
	<path style="fill:#3A556A;" d="M198.121,327.199h-12.488c-3.448,0-6.244-2.796-6.244-6.244v-12.488
		c0-3.448,2.795-6.244,6.244-6.244h12.488c3.448,0,6.244,2.796,6.244,6.244v12.488C204.365,324.404,201.569,327.199,198.121,327.199
		z"/>
	<path style="fill:#3A556A;" d="M240.39,327.199h-12.488c-3.448,0-6.244-2.796-6.244-6.244v-12.488c0-3.448,2.795-6.244,6.244-6.244
		h12.488c3.448,0,6.244,2.796,6.244,6.244v12.488C246.634,324.404,243.838,327.199,240.39,327.199z"/>
	<path style="fill:#3A556A;" d="M282.659,327.199h-12.488c-3.448,0-6.244-2.796-6.244-6.244v-12.488
		c0-3.448,2.796-6.244,6.244-6.244h12.488c3.448,0,6.244,2.796,6.244,6.244v12.488C288.902,324.404,286.107,327.199,282.659,327.199
		z"/>
	<path style="fill:#3A556A;" d="M324.927,327.199h-12.488c-3.448,0-6.244-2.796-6.244-6.244v-12.488
		c0-3.448,2.796-6.244,6.244-6.244h12.488c3.448,0,6.244,2.796,6.244,6.244v12.488C331.171,324.404,328.376,327.199,324.927,327.199
		z"/>
	<path style="fill:#3A556A;" d="M367.196,327.199h-12.488c-3.448,0-6.244-2.796-6.244-6.244v-12.488
		c0-3.448,2.796-6.244,6.244-6.244h12.488c3.448,0,6.244,2.796,6.244,6.244v12.488C373.44,324.404,370.644,327.199,367.196,327.199z
		"/>
	<path style="fill:#3A556A;" d="M409.465,327.199h-12.488c-3.448,0-6.244-2.796-6.244-6.244v-12.488
		c0-3.448,2.796-6.244,6.244-6.244h12.488c3.448,0,6.244,2.796,6.244,6.244v12.488C415.709,324.404,412.913,327.199,409.465,327.199
		z"/>
	<path style="fill:#3A556A;" d="M71.315,373.091H58.827c-3.448,0-6.244-2.795-6.244-6.244v-12.488c0-3.448,2.795-6.244,6.244-6.244
		h12.488c3.448,0,6.244,2.795,6.244,6.244v12.488C77.559,370.295,74.763,373.091,71.315,373.091z"/>
	<path style="fill:#3A556A;" d="M113.584,373.091h-12.488c-3.448,0-6.244-2.795-6.244-6.244v-12.488
		c0-3.448,2.795-6.244,6.244-6.244h12.488c3.448,0,6.244,2.795,6.244,6.244v12.488C119.828,370.295,117.032,373.091,113.584,373.091
		z"/>
	<path style="fill:#3A556A;" d="M316.281,373.091H152.01c-3.448,0-6.244-2.795-6.244-6.244v-12.488c0-3.448,2.796-6.244,6.244-6.244
		h164.271c3.448,0,6.244,2.795,6.244,6.244v12.488C322.525,370.295,319.73,373.091,316.281,373.091z"/>
	<path style="fill:#3A556A;" d="M367.196,373.091h-12.488c-3.448,0-6.244-2.795-6.244-6.244v-12.488
		c0-3.448,2.796-6.244,6.244-6.244h12.488c3.448,0,6.244,2.795,6.244,6.244v12.488C373.44,370.295,370.644,373.091,367.196,373.091z
		"/>
	<path style="fill:#3A556A;" d="M409.465,373.091h-12.488c-3.448,0-6.244-2.795-6.244-6.244v-12.488
		c0-3.448,2.796-6.244,6.244-6.244h12.488c3.448,0,6.244,2.795,6.244,6.244v12.488C415.709,370.295,412.913,373.091,409.465,373.091
		z"/>
	<path style="fill:#3A556A;" d="M92.449,281.308H79.961c-3.448,0-6.244-2.796-6.244-6.244v-12.488c0-3.448,2.795-6.244,6.244-6.244
		h12.488c3.448,0,6.244,2.796,6.244,6.244v12.488C98.693,278.513,95.898,281.308,92.449,281.308z"/>
	<path style="fill:#3A556A;" d="M134.718,281.308H122.23c-3.448,0-6.244-2.796-6.244-6.244v-12.488c0-3.448,2.795-6.244,6.244-6.244
		h12.488c3.448,0,6.244,2.796,6.244,6.244v12.488C140.962,278.513,138.166,281.308,134.718,281.308z"/>
	<path style="fill:#3A556A;" d="M176.987,281.308h-12.488c-3.448,0-6.244-2.796-6.244-6.244v-12.488
		c0-3.448,2.795-6.244,6.244-6.244h12.488c3.448,0,6.244,2.796,6.244,6.244v12.488C183.231,278.513,180.435,281.308,176.987,281.308
		z"/>
	<path style="fill:#3A556A;" d="M219.255,281.308h-12.488c-3.448,0-6.244-2.796-6.244-6.244v-12.488
		c0-3.448,2.796-6.244,6.244-6.244h12.488c3.448,0,6.244,2.796,6.244,6.244v12.488C225.499,278.513,222.704,281.308,219.255,281.308
		z"/>
	<path style="fill:#3A556A;" d="M261.524,281.308h-12.488c-3.448,0-6.244-2.796-6.244-6.244v-12.488
		c0-3.448,2.796-6.244,6.244-6.244h12.488c3.448,0,6.244,2.796,6.244,6.244v12.488C267.768,278.513,264.973,281.308,261.524,281.308
		z"/>
	<path style="fill:#3A556A;" d="M303.793,281.308h-12.488c-3.448,0-6.244-2.796-6.244-6.244v-12.488
		c0-3.448,2.795-6.244,6.244-6.244h12.488c3.448,0,6.244,2.796,6.244,6.244v12.488C310.037,278.513,307.241,281.308,303.793,281.308
		z"/>
	<path style="fill:#3A556A;" d="M346.062,281.308h-12.488c-3.448,0-6.244-2.796-6.244-6.244v-12.488
		c0-3.448,2.796-6.244,6.244-6.244h12.488c3.448,0,6.244,2.796,6.244,6.244v12.488C352.306,278.513,349.51,281.308,346.062,281.308z
		"/>
	<path style="fill:#3A556A;" d="M388.33,281.308h-12.488c-3.448,0-6.244-2.796-6.244-6.244v-12.488c0-3.448,2.795-6.244,6.244-6.244
		h12.488c3.448,0,6.244,2.796,6.244,6.244v12.488C394.574,278.513,391.779,281.308,388.33,281.308z"/>
</g>
<g>
</g>
<g>
</g>
<g>
</g>
<g>
</g>
<g>
</g>
<g>
</g>
<g>
</g>
<g>
</g>
<g>
</g>
<g>
</g>
<g>
</g>
<g>
</g>
<g>
</g>
<g>
</g>
<g>
</g>
</svg>
