<?xml version="1.0" encoding="iso-8859-1"?>
<!-- Generator: Adobe Illustrator 19.0.0, SVG Export Plug-In . SVG Version: 6.00 Build 0)  -->
<svg version="1.1" id="Capa_1" xmlns="http://www.w3.org/2000/svg" xmlns:xlink="http://www.w3.org/1999/xlink" x="0px" y="0px"
	 viewBox="0 0 468.293 468.293" style="enable-background:new 0 0 468.293 468.293;" xml:space="preserve">
<path style="fill:#31978C;" d="M403.482,74.737L253.857,228.276h214.436C468.293,168.065,443.444,113.686,403.482,74.737z"/>
<path style="fill:#F6C358;" d="M373.118,63.452c-38.64-37.66-91.406-60.896-149.625-60.896c-59.913,0-114.06,24.597-152.968,64.211
	c50.034,48.423,152.968,150.224,152.968,150.224L373.118,63.452z"/>
<path style="fill:#E56353;" d="M61.468,101.077C23.466,139.768,0,192.784,0,251.301c0,118.43,96.006,214.436,214.436,214.436
	s214.436-96.006,214.436-214.436H214.436C214.436,251.301,111.501,149.5,61.468,101.077z"/>
<g>
</g>
<g>
</g>
<g>
</g>
<g>
</g>
<g>
</g>
<g>
</g>
<g>
</g>
<g>
</g>
<g>
</g>
<g>
</g>
<g>
</g>
<g>
</g>
<g>
</g>
<g>
</g>
<g>
</g>
</svg>
