<?xml version="1.0" encoding="iso-8859-1"?>
<!-- Generator: Adobe Illustrator 19.0.0, SVG Export Plug-In . SVG Version: 6.00 Build 0)  -->
<svg version="1.1" id="Capa_1" xmlns="http://www.w3.org/2000/svg" xmlns:xlink="http://www.w3.org/1999/xlink" x="0px" y="0px"
	 viewBox="0 0 468.293 468.293" style="enable-background:new 0 0 468.293 468.293;" xml:space="preserve">
<path style="fill:#64798A;" d="M179.755,417.036c-0.058,28.269-23.103,51.257-51.314,51.257H96.282
	c-28.327,0-51.372-23.045-51.372-51.373c0-0.232,0-0.522,0.058-0.754c1.858,0.406,3.773,0.638,5.747,0.754
	c1.973,0.116,3.889,0.116,5.805,0.058c0.058,21.942,17.821,39.705,39.763,39.705h32.159c21.826,0,39.647-17.763,39.705-39.647
	H179.755z"/>
<path style="fill:#44C4A1;" d="M460.534,150.828v231.379c0,19.214-15.615,34.829-34.829,34.829H152.067
	c-19.214,0-34.829-15.615-34.829-34.829V150.828c0-19.214,15.615-34.829,34.829-34.829h273.638
	C444.919,115.999,460.534,131.614,460.534,150.828z"/>
<path style="fill:#3EA69B;" d="M93.612,240.86v80.629c0,7.953,1.045,15.905,3.076,23.626c2.09,7.661,3.135,15.615,3.135,23.625
	v2.265c0,24.496-19.156,44.522-43.304,45.974c-1.916,0.058-3.831,0.058-5.805-0.058c-1.974-0.116-3.889-0.348-5.747-0.754
	c-21.536-4.296-37.209-24.207-37.209-46.729v-0.697c0-8.01,1.045-15.963,3.135-23.625c2.032-7.721,3.134-15.673,3.134-23.626V240.86
	c0-7.953-1.103-15.905-3.134-23.625c-2.09-7.721-3.135-15.615-3.135-23.626v-8.359c0-26.412,22.291-47.657,49.109-45.916
	c24.438,1.567,42.956,22.987,42.956,47.484v6.791c0,8.011-1.045,15.905-3.135,23.626C94.657,224.955,93.612,232.908,93.612,240.86z"
	/>
<g>
	<path style="fill:#64798A;" d="M380.547,190.685H197.232c-9.777,0-17.703-7.926-17.703-17.703v0
		c0-9.777,7.926-17.703,17.703-17.703h183.315c9.777,0,17.703,7.926,17.703,17.703v0
		C398.25,182.759,390.324,190.685,380.547,190.685z"/>
	<circle style="fill:#64798A;" cx="199.212" cy="244.261" r="17.414"/>
	<circle style="fill:#64798A;" cx="258.997" cy="244.261" r="17.414"/>
	<circle style="fill:#64798A;" cx="318.751" cy="244.261" r="17.414"/>
</g>
<circle style="fill:#27A2DB;" cx="378.568" cy="244.261" r="17.414"/>
<g>
	<circle style="fill:#64798A;" cx="199.212" cy="302.305" r="17.414"/>
	<circle style="fill:#64798A;" cx="258.997" cy="302.305" r="17.414"/>
	<circle style="fill:#64798A;" cx="318.751" cy="302.305" r="17.414"/>
</g>
<circle style="fill:#FCD462;" cx="378.568" cy="302.305" r="17.414"/>
<g>
	<circle style="fill:#64798A;" cx="199.212" cy="360.336" r="17.414"/>
	<circle style="fill:#64798A;" cx="258.997" cy="360.336" r="17.414"/>
	<circle style="fill:#64798A;" cx="318.751" cy="360.336" r="17.414"/>
</g>
<circle style="fill:#E56353;" cx="378.568" cy="360.336" r="17.414"/>
<path style="fill:#D5D6DB;" d="M378.744,190.685h-179.71V18.732C199.034,8.386,207.421,0,217.766,0h142.247
	c10.345,0,18.732,8.386,18.732,18.732V190.685z"/>
<g>
	<path style="fill:#64798A;" d="M341.132,48.073H236.646c-3.206,0-5.805-2.599-5.805-5.805v0c0-3.206,2.599-5.805,5.805-5.805
		h104.486c3.206,0,5.805,2.599,5.805,5.805v0C346.937,45.474,344.338,48.073,341.132,48.073z"/>
	<path style="fill:#64798A;" d="M341.132,83.456H236.646c-3.206,0-5.805-2.599-5.805-5.805v0c0-3.206,2.599-5.805,5.805-5.805
		h104.486c3.206,0,5.805,2.599,5.805,5.805v0C346.937,80.857,344.338,83.456,341.132,83.456z"/>
	<path style="fill:#64798A;" d="M341.132,118.838H236.646c-3.206,0-5.805-2.599-5.805-5.805v0c0-3.206,2.599-5.805,5.805-5.805
		h104.486c3.206,0,5.805,2.599,5.805,5.805v0C346.937,116.24,344.338,118.838,341.132,118.838z"/>
	<path style="fill:#64798A;" d="M341.132,154.221H236.646c-3.206,0-5.805-2.599-5.805-5.805v0c0-3.206,2.599-5.805,5.805-5.805
		h104.486c3.206,0,5.805,2.599,5.805,5.805v0C346.937,151.622,344.338,154.221,341.132,154.221z"/>
</g>
<g>
</g>
<g>
</g>
<g>
</g>
<g>
</g>
<g>
</g>
<g>
</g>
<g>
</g>
<g>
</g>
<g>
</g>
<g>
</g>
<g>
</g>
<g>
</g>
<g>
</g>
<g>
</g>
<g>
</g>
</svg>
