<?xml version="1.0" encoding="iso-8859-1"?>
<!-- Generator: Adobe Illustrator 19.0.0, SVG Export Plug-In . SVG Version: 6.00 Build 0)  -->
<svg version="1.1" id="Capa_1" xmlns="http://www.w3.org/2000/svg" xmlns:xlink="http://www.w3.org/1999/xlink" x="0px" y="0px"
	 viewBox="0 0 468.318 468.318" style="enable-background:new 0 0 468.318 468.318;" xml:space="preserve">
<path style="fill:#2D93BA;" d="M234.173,379.139c-83.378,0-151.21-67.832-151.21-151.21s67.832-151.21,151.21-151.21
	s151.21,67.832,151.21,151.21S317.551,379.139,234.173,379.139z M234.173,101.694c-69.607,0-126.235,56.628-126.235,126.235
	s56.628,126.235,126.235,126.235s126.235-56.628,126.235-126.235S303.779,101.694,234.173,101.694z"/>
<circle style="fill:#E56353;" cx="227.99" cy="355.678" r="100.152"/>
<circle style="fill:#D15241;" cx="227.99" cy="355.678" r="79.591"/>
<path style="fill:#E56353;" d="M224.774,415.989v-10.617c-13.293-1.355-25.224-6.64-35.782-15.849l10.617-12.653
	c8.144,7.078,16.524,11.292,25.165,12.653v-28.219c-10.961-2.616-18.986-6.06-24.076-10.327c-5.09-4.267-7.635-10.594-7.635-18.98
	s2.924-15.246,8.795-20.584c5.871-5.332,13.506-8.238,22.916-8.724v-7.274h9.304v7.416c10.665,0.781,20.75,4.415,30.254,10.913
	l-9.457,13.381c-6.404-4.557-13.328-7.368-20.797-8.44v27.343h0.438c11.15,2.622,19.341,6.161,24.573,10.617
	c5.244,4.462,7.86,10.937,7.86,19.418c0,8.487-3.007,15.399-9.02,20.726c-6.013,5.338-13.955,8.244-23.851,8.73v10.47H224.774z
	 M214.512,322.107c-2.474,2.178-3.705,4.894-3.705,8.144c0,3.249,0.971,5.818,2.912,7.706c1.929,1.894,5.622,3.711,11.055,5.457
	v-25.165C220.406,318.639,216.986,319.923,214.512,322.107z M245.133,385.883c2.711-2.225,4.072-5.036,4.072-8.434
	c0-3.391-1.065-6.084-3.196-8.073c-2.142-1.989-6.12-3.853-11.931-5.599v26.177C238.729,389.475,242.411,388.114,245.133,385.883z"
	/>
<circle style="fill:#44C4A1;" cx="100.152" cy="112.64" r="100.152"/>
<circle style="fill:#3EA69B;" cx="100.152" cy="112.64" r="79.591"/>
<path style="fill:#44C4A1;" d="M96.957,172.927V162.31c-13.293-1.355-25.224-6.64-35.782-15.849l10.617-12.653
	c8.144,7.078,16.524,11.292,25.165,12.653v-28.219c-10.961-2.616-18.986-6.06-24.076-10.327c-5.09-4.267-7.635-10.594-7.635-18.98
	s2.924-15.246,8.795-20.584c5.871-5.332,13.506-8.238,22.916-8.724v-7.274h9.304v7.416c10.665,0.781,20.75,4.415,30.254,10.913
	l-9.457,13.381c-6.404-4.557-13.328-7.368-20.797-8.44v27.343h0.438c11.15,2.622,19.341,6.161,24.573,10.617
	c5.244,4.462,7.86,10.937,7.86,19.418c0,8.487-3.007,15.399-9.02,20.726c-6.013,5.338-13.955,8.244-23.851,8.73v10.47H96.957z
	 M86.694,79.045c-2.474,2.178-3.705,4.894-3.705,8.144c0,3.249,0.971,5.818,2.912,7.706c1.929,1.894,5.622,3.711,11.055,5.457
	V75.186C92.589,75.577,89.168,76.861,86.694,79.045z M117.316,142.821c2.711-2.225,4.072-5.037,4.072-8.434
	c0-3.391-1.065-6.084-3.196-8.073c-2.142-1.989-6.12-3.853-11.931-5.599v26.177C110.912,146.413,114.593,145.052,117.316,142.821z"
	/>
<circle style="fill:#FCD462;" cx="368.165" cy="112.64" r="100.152"/>
<circle style="fill:#F6C358;" cx="368.165" cy="112.64" r="79.591"/>
<path style="fill:#FCD462;" d="M364.994,172.927V162.31c-13.293-1.355-25.224-6.64-35.782-15.849l10.617-12.653
	c8.144,7.078,16.524,11.292,25.165,12.653v-28.219c-10.961-2.616-18.986-6.06-24.076-10.327c-5.09-4.267-7.635-10.594-7.635-18.98
	s2.924-15.246,8.795-20.584c5.871-5.332,13.506-8.238,22.916-8.724v-7.274h9.304v7.416c10.665,0.781,20.75,4.415,30.254,10.913
	l-9.458,13.381c-6.404-4.557-13.328-7.368-20.797-8.44v27.343h0.438c11.15,2.622,19.341,6.161,24.573,10.617
	c5.244,4.462,7.86,10.937,7.86,19.418c0,8.487-3.007,15.399-9.02,20.726c-6.013,5.338-13.955,8.244-23.851,8.73v10.47H364.994z
	 M354.732,79.045c-2.474,2.178-3.705,4.894-3.705,8.144c0,3.249,0.971,5.818,2.912,7.706c1.929,1.894,5.622,3.711,11.055,5.457
	V75.186C360.626,75.577,357.206,76.861,354.732,79.045z M385.353,142.821c2.711-2.225,4.072-5.037,4.072-8.434
	c0-3.391-1.065-6.084-3.196-8.073c-2.142-1.989-6.12-3.853-11.931-5.599v26.177C378.95,146.413,382.631,145.052,385.353,142.821z"/>
<g>
</g>
<g>
</g>
<g>
</g>
<g>
</g>
<g>
</g>
<g>
</g>
<g>
</g>
<g>
</g>
<g>
</g>
<g>
</g>
<g>
</g>
<g>
</g>
<g>
</g>
<g>
</g>
<g>
</g>
</svg>
