<?xml version="1.0" encoding="iso-8859-1"?>
<!-- Generator: Adobe Illustrator 19.0.0, SVG Export Plug-In . SVG Version: 6.00 Build 0)  -->
<svg version="1.1" id="Capa_1" xmlns="http://www.w3.org/2000/svg" xmlns:xlink="http://www.w3.org/1999/xlink" x="0px" y="0px"
	 viewBox="0 0 468.293 468.293" style="enable-background:new 0 0 468.293 468.293;" xml:space="preserve">
<path style="fill:#27A2DB;" d="M443.317,319.663H24.976C11.182,319.663,0,308.481,0,294.687V45.226
	C0,31.432,11.182,20.25,24.976,20.25h418.341c13.794,0,24.976,11.182,24.976,24.976v249.461
	C468.293,308.481,457.111,319.663,443.317,319.663z"/>
<rect y="55.284" style="fill:#3A556A;" width="468.293" height="63.713"/>
<circle style="fill:#DC8744;" cx="84.917" cy="220.11" r="39.543"/>
<circle style="fill:#D15241;" cx="136.916" cy="220.11" r="39.543"/>
<g>
	<rect x="227.309" y="208.49" style="fill:#E1E6E9;" width="49.951" height="18.732"/>
	<rect x="300.157" y="208.49" style="fill:#E1E6E9;" width="49.951" height="18.732"/>
	<rect x="373.011" y="208.49" style="fill:#E1E6E9;" width="49.951" height="18.732"/>
</g>
<path style="fill:#FFFFFF;" d="M367.183,448.043c59.984-3.076,75.365-55.37,75.365-55.37v-74.727c0-6.04-4.317-11.274-10.275-12.26
	c-24.723-4.09-44.933-21.955-55.968-33.841c-4.947-5.329-13.296-5.329-18.243,0c-11.036,11.887-31.246,29.751-55.968,33.841
	c-5.959,0.986-10.275,6.22-10.275,12.26v74.727C291.818,392.672,307.199,444.966,367.183,448.043z"/>
<path style="fill:#E56353;" d="M367.183,429.282c-38.976-2.454-53.287-31.427-56.634-39.829v-66.357
	c23.78-5.497,43.207-20.348,56.634-33.732c13.427,13.387,32.86,28.235,56.634,33.732v66.381
	C420.555,397.678,406.275,426.818,367.183,429.282z"/>
<path style="fill:#FFFFFF;" d="M358.314,396.381c-1.629,0-3.262-0.594-4.613-1.783l-19.863-17.423
	c-3.243-2.843-3.806-8.082-1.259-11.702c2.547-3.619,7.243-4.249,10.486-1.403l15.284,13.408l32.999-28.496
	c3.267-2.819,7.948-2.146,10.476,1.492c2.523,3.641,1.925,8.877-1.337,11.693l-37.602,32.47
	C361.537,395.8,359.923,396.381,358.314,396.381z"/>
<g>
</g>
<g>
</g>
<g>
</g>
<g>
</g>
<g>
</g>
<g>
</g>
<g>
</g>
<g>
</g>
<g>
</g>
<g>
</g>
<g>
</g>
<g>
</g>
<g>
</g>
<g>
</g>
<g>
</g>
</svg>
