<?xml version="1.0" encoding="iso-8859-1"?>
<!-- Generator: Adobe Illustrator 19.0.0, SVG Export Plug-In . SVG Version: 6.00 Build 0)  -->
<svg version="1.1" id="Capa_1" xmlns="http://www.w3.org/2000/svg" xmlns:xlink="http://www.w3.org/1999/xlink" x="0px" y="0px"
	 viewBox="0 0 468.294 468.294" style="enable-background:new 0 0 468.294 468.294;" xml:space="preserve">
<g>
	<path style="fill:#E56353;" d="M468.291,78.297l0.003-62.556c0.002-1.028-0.102-2.056-0.302-3.069
		c-0.048-0.247-0.153-0.478-0.214-0.722c-0.185-0.746-0.377-1.493-0.671-2.211c-0.125-0.301-0.312-0.57-0.454-0.863
		c-0.305-0.626-0.594-1.257-0.986-1.847c-0.573-0.864-1.233-1.676-1.976-2.419c-0.744-0.744-1.556-1.403-2.419-1.976
		c-0.589-0.392-1.221-0.681-1.847-0.986c-0.292-0.142-0.561-0.329-0.863-0.454c-0.718-0.295-1.465-0.487-2.211-0.671
		c-0.244-0.061-0.475-0.166-0.722-0.214c-1.013-0.2-2.041-0.304-3.069-0.302l-62.562-0.003c-8.683-0.003-15.723,7.038-15.721,15.721
		c0,8.685,7.035,15.721,15.72,15.721l24.62,0.003l-80.413,80.413c-6.139,6.139-6.14,16.095,0,22.235
		c6.139,6.139,16.095,6.139,22.235,0l80.411-80.41l0,24.612c0,4.343,1.759,8.273,4.603,11.117c2.844,2.844,6.775,4.603,11.117,4.603
		C461.253,94.02,468.293,86.979,468.291,78.297z"/>
	<path style="fill:#E56353;" d="M78.294,468.292l-62.556,0.002c-1.028,0.002-2.056-0.102-3.069-0.302
		c-0.247-0.049-0.478-0.153-0.722-0.214c-0.746-0.185-1.493-0.377-2.211-0.671c-0.301-0.125-0.57-0.312-0.863-0.454
		c-0.626-0.305-1.257-0.594-1.847-0.986c-0.864-0.573-1.676-1.233-2.419-1.976c-0.744-0.744-1.403-1.556-1.976-2.419
		c-0.392-0.589-0.681-1.221-0.986-1.847c-0.142-0.293-0.329-0.562-0.454-0.863c-0.295-0.718-0.487-1.465-0.671-2.211
		c-0.061-0.244-0.166-0.475-0.214-0.722c-0.2-1.013-0.304-2.041-0.302-3.069l-0.003-62.562c-0.003-8.683,7.038-15.723,15.721-15.721
		c8.685,0,15.721,7.035,15.72,15.721l0.003,24.62l80.413-80.413c6.14-6.139,16.095-6.139,22.235,0
		c6.139,6.139,6.139,16.095,0,22.235l-80.411,80.41h24.612c4.343,0,8.273,1.759,11.117,4.603c2.844,2.844,4.603,6.775,4.603,11.117
		C94.017,461.254,86.976,468.294,78.294,468.292z"/>
</g>
<g>
	<path style="fill:#1C75A1;" d="M78.295,0.003L15.739,0c-1.028-0.002-2.056,0.102-3.069,0.302c-0.247,0.049-0.478,0.153-0.722,0.214
		c-0.746,0.185-1.493,0.377-2.211,0.671c-0.301,0.125-0.57,0.312-0.863,0.454C8.248,1.946,7.616,2.235,7.027,2.627
		C6.163,3.2,5.351,3.859,4.608,4.603C3.864,5.347,3.205,6.158,2.631,7.022C2.239,7.612,1.951,8.243,1.646,8.869
		C1.504,9.161,1.317,9.43,1.192,9.732c-0.295,0.718-0.487,1.465-0.671,2.211c-0.061,0.244-0.166,0.475-0.214,0.722
		c-0.2,1.013-0.304,2.041-0.302,3.069L0.001,78.296c-0.003,8.683,7.038,15.723,15.721,15.721c8.685,0,15.721-7.035,15.721-15.72
		l0.003-24.62l80.413,80.413c6.139,6.14,16.095,6.14,22.235,0c6.14-6.139,6.14-16.095,0-22.235l-80.41-80.411l24.612,0
		c4.343,0,8.273-1.759,11.117-4.603c2.844-2.844,4.603-6.775,4.603-11.117C94.018,7.041,86.978,0,78.295,0.003z"/>
	<path style="fill:#1C75A1;" d="M468.29,390l0.002,62.556c0.002,1.028-0.102,2.056-0.302,3.069
		c-0.049,0.247-0.153,0.478-0.214,0.722c-0.185,0.746-0.377,1.493-0.671,2.211c-0.125,0.301-0.312,0.57-0.454,0.863
		c-0.305,0.626-0.594,1.257-0.986,1.847c-0.573,0.864-1.233,1.676-1.976,2.419c-0.744,0.744-1.556,1.403-2.419,1.976
		c-0.589,0.392-1.221,0.681-1.847,0.986c-0.292,0.142-0.561,0.329-0.863,0.454c-0.718,0.295-1.465,0.487-2.211,0.671
		c-0.244,0.061-0.475,0.166-0.722,0.214c-1.013,0.2-2.041,0.304-3.069,0.302l-62.562,0.003c-8.683,0.003-15.723-7.038-15.721-15.721
		c0-8.685,7.035-15.72,15.721-15.72l24.62-0.003l-80.413-80.413c-6.139-6.139-6.139-16.095,0-22.235
		c6.139-6.139,16.095-6.139,22.235,0l80.41,80.411l0-24.612c0-4.343,1.759-8.273,4.603-11.117c2.844-2.844,6.775-4.603,11.117-4.603
		C461.252,374.276,468.293,381.317,468.29,390z"/>
</g>
<circle style="fill:#44C4A1;" cx="234.147" cy="234.147" r="157.221"/>
<circle style="fill:#31978C;" cx="234.147" cy="234.147" r="125.003"/>
<path style="fill:#44C4A1;" d="M229.13,328.811V312.14c-20.872-2.128-39.607-10.427-56.186-24.887l16.672-19.869
	c12.787,11.114,25.946,17.731,39.514,19.869v-44.309c-17.211-4.108-29.812-9.516-37.804-16.216
	c-7.992-6.7-11.988-16.635-11.988-29.803c0-13.168,4.591-23.939,13.81-32.321c9.219-8.373,21.207-12.936,35.983-13.698v-11.421
	h14.609v11.644c16.746,1.227,32.581,6.933,47.506,17.136l-14.85,21.012c-10.055-7.156-20.928-11.57-32.656-13.252v42.934h0.688
	c17.508,4.117,30.37,9.674,38.585,16.672c8.234,7.007,12.341,17.174,12.341,30.491c0,13.326-4.721,24.181-14.163,32.544
	c-9.442,8.382-21.913,12.945-37.451,13.707v16.439H229.13z M213.016,181.395c-3.885,3.42-5.817,7.685-5.817,12.787
	s1.524,9.135,4.572,12.1c3.03,2.974,8.828,5.827,17.359,8.568v-39.514C222.271,175.95,216.9,177.966,213.016,181.395z
	 M261.098,281.537c4.256-3.494,6.394-7.908,6.394-13.243c0-5.325-1.673-9.553-5.018-12.676c-3.364-3.122-9.609-6.05-18.735-8.791
	v41.103C251.043,287.178,256.823,285.041,261.098,281.537z"/>
<g>
</g>
<g>
</g>
<g>
</g>
<g>
</g>
<g>
</g>
<g>
</g>
<g>
</g>
<g>
</g>
<g>
</g>
<g>
</g>
<g>
</g>
<g>
</g>
<g>
</g>
<g>
</g>
<g>
</g>
</svg>
