<?xml version="1.0" encoding="iso-8859-1"?>
<!-- Generator: Adobe Illustrator 19.0.0, SVG Export Plug-In . SVG Version: 6.00 Build 0)  -->
<svg version="1.1" id="Capa_1" xmlns="http://www.w3.org/2000/svg" xmlns:xlink="http://www.w3.org/1999/xlink" x="0px" y="0px"
	 viewBox="0 0 468.293 468.293" style="enable-background:new 0 0 468.293 468.293;" xml:space="preserve">
<path style="fill:#FCD462;" d="M339.565,447.893H128.728V79.932c0-10.345,8.386-18.732,18.732-18.732h173.374
	c10.345,0,18.732,8.386,18.732,18.732V447.893z"/>
<g>
	<path style="fill:#F6C358;" d="M321.954,61.2H146.339V39.132c0-10.345,8.386-18.732,18.732-18.732h138.152
		c10.345,0,18.732,8.386,18.732,18.732V61.2z"/>
	<path style="fill:#F6C358;" d="M468.293,447.893H339.565V164.968h109.996c10.345,0,18.732,8.386,18.732,18.732V447.893z"/>
	<path style="fill:#F6C358;" d="M128.728,447.893H0V183.7c0-10.345,8.386-18.732,18.732-18.732h109.996V447.893z"/>
</g>
<g>
	<rect x="171.707" y="99.634" style="fill:#27A2DB;" width="25.837" height="38.756"/>
	<rect x="270.748" y="100.876" style="fill:#27A2DB;" width="25.837" height="38.756"/>
	<rect x="221.228" y="100.876" style="fill:#27A2DB;" width="25.837" height="38.756"/>
	<rect x="171.707" y="157.933" style="fill:#27A2DB;" width="25.837" height="38.756"/>
	<rect x="270.748" y="159.182" style="fill:#27A2DB;" width="25.837" height="38.756"/>
	<rect x="221.228" y="159.182" style="fill:#27A2DB;" width="25.837" height="38.756"/>
	<rect x="171.707" y="216.226" style="fill:#27A2DB;" width="25.837" height="38.756"/>
	<rect x="270.748" y="217.475" style="fill:#27A2DB;" width="25.837" height="38.756"/>
	<rect x="221.228" y="216.226" style="fill:#27A2DB;" width="25.837" height="38.756"/>
	<rect x="415.781" y="203.801" style="fill:#27A2DB;" width="25.837" height="38.756"/>
	<rect x="366.267" y="203.801" style="fill:#27A2DB;" width="25.837" height="38.756"/>
	<rect x="415.781" y="262.057" style="fill:#27A2DB;" width="25.837" height="38.756"/>
	<rect x="366.267" y="262.057" style="fill:#27A2DB;" width="25.837" height="38.756"/>
	<rect x="415.781" y="320.375" style="fill:#27A2DB;" width="25.837" height="38.756"/>
	<rect x="366.267" y="319.132" style="fill:#27A2DB;" width="25.837" height="38.756"/>
	<rect x="76.207" y="203.801" style="fill:#27A2DB;" width="25.837" height="38.756"/>
	<rect x="26.686" y="203.801" style="fill:#27A2DB;" width="25.837" height="38.756"/>
	<rect x="76.207" y="262.057" style="fill:#27A2DB;" width="25.837" height="38.756"/>
	<rect x="26.686" y="262.057" style="fill:#27A2DB;" width="25.837" height="38.756"/>
	<rect x="76.207" y="320.375" style="fill:#27A2DB;" width="25.837" height="38.756"/>
	<rect x="26.686" y="319.132" style="fill:#27A2DB;" width="25.837" height="38.756"/>
	<rect x="171.707" y="274.544" style="fill:#27A2DB;" width="25.837" height="38.756"/>
	<rect x="270.748" y="274.544" style="fill:#27A2DB;" width="25.837" height="38.756"/>
	<rect x="221.228" y="274.544" style="fill:#27A2DB;" width="25.837" height="38.756"/>
</g>
<g>
	<path style="fill:#DC8744;" d="M270.747,447.893h-73.202v-55.457c0-20.214,16.387-36.601,36.601-36.601h0
		c20.214,0,36.601,16.387,36.601,36.601V447.893z"/>
	<path style="fill:#DC8744;" d="M428.689,447.893h-49.52v-36.079c0-13.675,11.085-24.76,24.76-24.76h0
		c13.675,0,24.76,11.085,24.76,24.76V447.893z"/>
	<path style="fill:#DC8744;" d="M89.124,447.893h-49.52v-36.079c0-13.675,11.085-24.76,24.76-24.76h0
		c13.675,0,24.76,11.085,24.76,24.76V447.893z"/>
</g>
<g>
</g>
<g>
</g>
<g>
</g>
<g>
</g>
<g>
</g>
<g>
</g>
<g>
</g>
<g>
</g>
<g>
</g>
<g>
</g>
<g>
</g>
<g>
</g>
<g>
</g>
<g>
</g>
<g>
</g>
</svg>
