<?xml version="1.0" encoding="iso-8859-1"?>
<!-- Generator: Adobe Illustrator 19.0.0, SVG Export Plug-In . SVG Version: 6.00 Build 0)  -->
<svg version="1.1" id="Capa_1" xmlns="http://www.w3.org/2000/svg" xmlns:xlink="http://www.w3.org/1999/xlink" x="0px" y="0px"
	 viewBox="0 0 468.293 468.293" style="enable-background:new 0 0 468.293 468.293;" xml:space="preserve">
<path style="fill:#64798A;" d="M172.399,270.654c0,2.356-0.115,4.712-0.345,7.011c-3.505,44.307-40.571,79.189-85.854,79.189
	C38.617,356.853,0,318.235,0,270.654c0-47.64,38.617-86.199,86.199-86.199c9.482,0,18.619,1.551,27.124,4.368
	C147.688,200.142,172.399,232.496,172.399,270.654z"/>
<circle style="fill:#D5D6DB;" cx="86.216" cy="270.648" r="63.213"/>
<path style="fill:#3A556A;" d="M178.892,275.308c-2.126,1.322-4.425,2.069-6.839,2.356c0.23-2.299,0.345-4.654,0.345-7.011
	c0-38.158-24.711-70.511-59.076-81.832l10.919-22.124c5.459-11.034,17.872-15.631,28.618-12.299
	c5.689,1.724,10.057,6.322,12.47,11.781c1.149,2.586,2.413,6.437,3.735,11.091c2.873,10.114,6.149,24.136,9.137,37.985
	c3.506,15.976,6.609,31.779,8.39,40.973C187.972,263.528,185.271,271.401,178.892,275.308z"/>
<path style="fill:#64798A;" d="M468.293,270.654c0,47.582-38.618,86.199-86.199,86.199c-45.283,0-82.349-34.882-85.855-79.189
	c-0.23-2.299-0.345-4.654-0.345-7.011c0-38.158,24.71-70.511,59.075-81.832c8.505-2.817,17.642-4.368,27.124-4.368
	C429.675,184.454,468.293,223.014,468.293,270.654z"/>
<circle style="fill:#D5D6DB;" cx="382.064" cy="270.648" r="63.213"/>
<path style="fill:#3A556A;" d="M295.894,270.654c0,2.356,0.115,4.712,0.345,7.011c-2.414-0.287-4.712-1.035-6.896-2.356
	c-6.321-3.907-9.08-11.78-7.643-19.078c1.781-9.194,4.885-24.94,8.39-40.916c2.988-13.85,6.264-27.929,9.137-38.043
	c1.379-4.654,2.644-8.506,3.735-11.091c2.413-5.459,6.781-10.057,12.47-11.781c10.746-3.332,23.159,1.265,28.618,12.299
	l10.918,22.124C320.604,200.142,295.894,232.496,295.894,270.654z"/>
<g>
	<path style="fill:#64798A;" d="M201.71,192.235l-23.477,23.04c-2.997-13.861-6.306-27.91-9.178-38.025l20.48-4.371
		c0.063,0.188,0.125,0.375,0.188,0.563C192.157,180.746,196.278,187.177,201.71,192.235z"/>
	<path style="fill:#64798A;" d="M299.24,177.25c-2.872,10.115-6.181,24.226-9.178,38.088l-23.477-23.102
		c5.432-5.12,9.49-11.552,11.988-18.794c0.063-0.188,0.125-0.375,0.188-0.563L299.24,177.25z"/>
</g>
<path style="fill:#3A556A;" d="M281.07,158.394c0,5.057-0.749,9.989-2.31,14.485c-0.063,0.188-0.125,0.375-0.188,0.563
	c-2.498,7.242-6.556,13.674-11.988,18.794c-0.063,0.063-0.125,0.125-0.188,0.188c-8.429,7.992-19.793,12.862-32.281,12.862
	c-12.425,0-23.789-4.87-32.218-12.862c-0.063-0.063-0.125-0.125-0.188-0.188c-5.432-5.058-9.553-11.489-11.988-18.794
	c-0.063-0.188-0.125-0.375-0.188-0.563c-1.561-4.495-2.373-9.428-2.373-14.485c0-25.976,21.042-46.954,46.954-46.954
	S281.07,132.418,281.07,158.394z"/>
<path style="fill:#D5D6DB;" d="M234.133,189.141c-16.969,0-30.775-13.807-30.775-30.779c0-16.969,13.807-30.775,30.775-30.775
	c16.972,0,30.779,13.807,30.779,30.775C264.912,175.334,251.105,189.141,234.133,189.141z"/>
<g>
</g>
<g>
</g>
<g>
</g>
<g>
</g>
<g>
</g>
<g>
</g>
<g>
</g>
<g>
</g>
<g>
</g>
<g>
</g>
<g>
</g>
<g>
</g>
<g>
</g>
<g>
</g>
<g>
</g>
</svg>
