<?xml version="1.0" encoding="iso-8859-1"?>
<!-- Generator: Adobe Illustrator 19.0.0, SVG Export Plug-In . SVG Version: 6.00 Build 0)  -->
<svg version="1.1" id="Capa_1" xmlns="http://www.w3.org/2000/svg" xmlns:xlink="http://www.w3.org/1999/xlink" x="0px" y="0px"
	 viewBox="0 0 468.293 468.293" style="enable-background:new 0 0 468.293 468.293;" xml:space="preserve">
<path style="fill:#EBF0F3;" d="M447.42,153.239H20.873c-6.199,0-8.61-8.058-3.429-11.462L230.718,1.639
	c2.081-1.368,4.776-1.368,6.858,0l213.273,140.137C456.03,145.181,453.619,153.239,447.42,153.239z"/>
<g>
	<rect x="323.996" y="184.158" style="fill:#D5D6DB;" width="54.89" height="162.341"/>
	<rect x="206.704" y="184.158" style="fill:#D5D6DB;" width="54.89" height="162.341"/>
</g>
<g>
	<rect x="77.905" y="153.225" style="fill:#E1E6E9;" width="77.943" height="30.92"/>
	<rect x="77.905" y="346.499" style="fill:#E1E6E9;" width="77.943" height="30.92"/>
</g>
<rect x="89.431" y="184.158" style="fill:#D5D6DB;" width="54.89" height="162.341"/>
<g>
	<rect x="195.178" y="153.225" style="fill:#E1E6E9;" width="77.943" height="30.92"/>
	<rect x="195.178" y="346.499" style="fill:#E1E6E9;" width="77.943" height="30.92"/>
	<rect x="312.445" y="153.225" style="fill:#E1E6E9;" width="77.943" height="30.92"/>
	<rect x="312.445" y="346.499" style="fill:#E1E6E9;" width="77.943" height="30.92"/>
</g>
<path style="fill:#EBF0F3;" d="M419.066,422.414H49.227c-3.448,0-6.244-2.796-6.244-6.244v-32.777c0-3.448,2.795-6.244,6.244-6.244
	h369.839c3.448,0,6.244,2.796,6.244,6.244v32.777C425.31,419.619,422.514,422.414,419.066,422.414z"/>
<g>
	<path style="fill:#E1E6E9;" d="M462.049,467.679H6.244c-3.448,0-6.244-2.796-6.244-6.244v-32.777c0-3.448,2.795-6.244,6.244-6.244
		h455.805c3.448,0,6.244,2.795,6.244,6.244v32.777C468.293,464.884,465.497,467.679,462.049,467.679z"/>
	<circle style="fill:#E1E6E9;" cx="234.146" cy="85.879" r="33.205"/>
</g>
<g>
</g>
<g>
</g>
<g>
</g>
<g>
</g>
<g>
</g>
<g>
</g>
<g>
</g>
<g>
</g>
<g>
</g>
<g>
</g>
<g>
</g>
<g>
</g>
<g>
</g>
<g>
</g>
<g>
</g>
</svg>
