<?xml version="1.0" encoding="iso-8859-1"?>
<!-- Generator: Adobe Illustrator 19.0.0, SVG Export Plug-In . SVG Version: 6.00 Build 0)  -->
<svg version="1.1" id="Capa_1" xmlns="http://www.w3.org/2000/svg" xmlns:xlink="http://www.w3.org/1999/xlink" x="0px" y="0px"
	 viewBox="0 0 468.293 468.293" style="enable-background:new 0 0 468.293 468.293;" xml:space="preserve">
<path style="fill:#2F4859;" d="M443.317,216.897H24.976C11.182,216.897,0,205.715,0,191.922V77.485
	c0-13.794,11.182-24.976,24.976-24.976h418.341c13.794,0,24.976,11.182,24.976,24.976v114.437
	C468.293,205.715,457.111,216.897,443.317,216.897z"/>
<rect x="64.094" y="116.569" style="fill:#64798A;" width="340.105" height="36.29"/>
<path style="fill:#DC8744;" d="M335.869,415.775H132.424c-10.345,0-18.732-8.386-18.732-18.732V116.558h240.908v280.485
	C354.601,407.388,346.214,415.775,335.869,415.775z"/>
<rect x="256.868" y="116.569" style="fill:#FCD462;" width="51.618" height="299.214"/>
<circle style="fill:#D15241;" cx="173.58" cy="344.278" r="29.465"/>
<circle style="fill:#44C4A1;" cx="173.58" cy="303.387" r="29.465"/>
<g>
	<rect x="166.025" y="148.163" style="fill:#FCD462;" width="15.06" height="37.588"/>
	<rect x="166.025" y="205.045" style="fill:#FCD462;" width="15.06" height="37.588"/>
</g>
<g>
</g>
<g>
</g>
<g>
</g>
<g>
</g>
<g>
</g>
<g>
</g>
<g>
</g>
<g>
</g>
<g>
</g>
<g>
</g>
<g>
</g>
<g>
</g>
<g>
</g>
<g>
</g>
<g>
</g>
</svg>
