<?xml version="1.0" encoding="iso-8859-1"?>
<!-- Generator: Adobe Illustrator 19.0.0, SVG Export Plug-In . SVG Version: 6.00 Build 0)  -->
<svg version="1.1" id="Capa_1" xmlns="http://www.w3.org/2000/svg" xmlns:xlink="http://www.w3.org/1999/xlink" x="0px" y="0px"
	 viewBox="0 0 468.293 468.293" style="enable-background:new 0 0 468.293 468.293;" xml:space="preserve">
<path style="fill:#FCD462;" d="M131.122,468.293H24.976C11.182,468.293,0,457.111,0,443.317V24.976C0,11.182,11.182,0,24.976,0
	h106.146c13.794,0,24.976,11.182,24.976,24.976v418.341C156.098,457.111,144.916,468.293,131.122,468.293z"/>
<path style="fill:#44C4A1;" d="M287.22,468.293H181.073c-13.794,0-24.976-11.182-24.976-24.976V24.976
	C156.098,11.182,167.28,0,181.073,0H287.22c13.794,0,24.976,11.182,24.976,24.976v418.341
	C312.195,457.111,301.013,468.293,287.22,468.293z"/>
<path style="fill:#E56353;" d="M443.317,468.293H337.171c-13.794,0-24.976-11.182-24.976-24.976V24.976
	C312.195,11.182,323.377,0,337.171,0h106.146c13.794,0,24.976,11.182,24.976,24.976v418.341
	C468.293,457.111,457.111,468.293,443.317,468.293z"/>
<path style="fill:#F6C358;" d="M78.049,45.764c-24.139,0-43.707,19.568-43.707,43.707c0,24.139,19.569,43.707,43.707,43.707
	s43.707-19.569,43.707-43.707C121.756,65.332,102.188,45.764,78.049,45.764z M78.05,114.445c-13.774,0-24.976-11.204-24.976-24.976
	S64.276,64.494,78.05,64.494s24.976,11.204,24.976,24.976S91.825,114.445,78.05,114.445z"/>
<path style="fill:#DC8744;" d="M78.049,114.447c-13.774,0-24.976-11.204-24.976-24.976s11.201-24.976,24.976-24.976
	s24.976,11.204,24.976,24.976S91.823,114.447,78.049,114.447z"/>
<path style="fill:#E1E6E9;" d="M97.607,422.529H58.489c-10.345,0-18.732-8.386-18.732-18.732v-132.34
	c0-10.345,8.386-18.732,18.732-18.732h39.118c10.345,0,18.732,8.386,18.732,18.732v132.34
	C116.339,414.143,107.953,422.529,97.607,422.529z"/>
<g>
	<path style="fill:#2F4859;" d="M96.78,343.872H59.317c-3.448,0-6.244-2.795-6.244-6.244l0,0c0-3.448,2.795-6.244,6.244-6.244H96.78
		c3.448,0,6.244,2.796,6.244,6.244l0,0C103.024,341.076,100.229,343.872,96.78,343.872z"/>
	<path style="fill:#2F4859;" d="M96.78,375.091H59.317c-3.448,0-6.244-2.795-6.244-6.244l0,0c0-3.448,2.795-6.244,6.244-6.244H96.78
		c3.448,0,6.244,2.796,6.244,6.244l0,0C103.024,372.296,100.229,375.091,96.78,375.091z"/>
	<path style="fill:#2F4859;" d="M96.78,312.652H59.317c-3.448,0-6.244-2.795-6.244-6.244l0,0c0-3.448,2.795-6.244,6.244-6.244H96.78
		c3.448,0,6.244,2.796,6.244,6.244l0,0C103.024,309.857,100.229,312.652,96.78,312.652z"/>
</g>
<path style="fill:#31978C;" d="M234.146,114.447c-13.774,0-24.976-11.204-24.976-24.976s11.201-24.976,24.976-24.976
	s24.976,11.204,24.976,24.976S247.921,114.447,234.146,114.447z"/>
<path style="fill:#3EA69B;" d="M234.146,45.764c-24.139,0-43.707,19.568-43.707,43.707c0,24.139,19.569,43.707,43.707,43.707
	s43.707-19.569,43.707-43.707C277.854,65.332,258.285,45.764,234.146,45.764z M234.148,114.445
	c-13.774,0-24.976-11.204-24.976-24.976s11.201-24.976,24.976-24.976s24.976,11.204,24.976,24.976S247.922,114.445,234.148,114.445z
	"/>
<path style="fill:#E1E6E9;" d="M253.705,422.529h-39.118c-10.345,0-18.732-8.386-18.732-18.732v-132.34
	c0-10.345,8.386-18.732,18.732-18.732h39.118c10.345,0,18.732,8.386,18.732,18.732v132.34
	C272.437,414.143,264.05,422.529,253.705,422.529z"/>
<g>
	<path style="fill:#2F4859;" d="M252.878,343.872h-37.463c-3.448,0-6.244-2.795-6.244-6.244l0,0c0-3.448,2.795-6.244,6.244-6.244
		h37.463c3.448,0,6.244,2.796,6.244,6.244l0,0C259.122,341.076,256.326,343.872,252.878,343.872z"/>
	<path style="fill:#2F4859;" d="M252.878,375.091h-37.463c-3.448,0-6.244-2.795-6.244-6.244l0,0c0-3.448,2.795-6.244,6.244-6.244
		h37.463c3.448,0,6.244,2.796,6.244,6.244l0,0C259.122,372.296,256.326,375.091,252.878,375.091z"/>
	<path style="fill:#2F4859;" d="M252.878,312.652h-37.463c-3.448,0-6.244-2.795-6.244-6.244l0,0c0-3.448,2.795-6.244,6.244-6.244
		h37.463c3.448,0,6.244,2.796,6.244,6.244l0,0C259.122,309.857,256.326,312.652,252.878,312.652z"/>
</g>
<path style="fill:#CE412D;" d="M390.244,115.615c-13.774,0-24.976-11.204-24.976-24.976s11.201-24.976,24.976-24.976
	s24.976,11.204,24.976,24.976S404.018,115.615,390.244,115.615z"/>
<path style="fill:#D15241;" d="M390.244,46.932c-24.139,0-43.707,19.568-43.707,43.707c0,24.139,19.569,43.707,43.707,43.707
	c24.139,0,43.707-19.569,43.707-43.707C433.951,66.5,414.383,46.932,390.244,46.932z M390.245,115.613
	c-13.774,0-24.976-11.204-24.976-24.976s11.201-24.976,24.976-24.976c13.774,0,24.976,11.204,24.976,24.976
	S404.02,115.613,390.245,115.613z"/>
<path style="fill:#E1E6E9;" d="M409.803,423.697h-39.118c-10.345,0-18.732-8.386-18.732-18.732v-132.34
	c0-10.345,8.387-18.732,18.732-18.732h39.118c10.345,0,18.732,8.386,18.732,18.732v132.34
	C428.534,415.311,420.148,423.697,409.803,423.697z"/>
<g>
	<path style="fill:#2F4859;" d="M408.975,345.04h-37.463c-3.448,0-6.244-2.796-6.244-6.244l0,0c0-3.448,2.795-6.244,6.244-6.244
		h37.463c3.448,0,6.244,2.796,6.244,6.244l0,0C415.219,342.244,412.424,345.04,408.975,345.04z"/>
	<path style="fill:#2F4859;" d="M408.975,376.259h-37.463c-3.448,0-6.244-2.796-6.244-6.244l0,0c0-3.448,2.795-6.244,6.244-6.244
		h37.463c3.448,0,6.244,2.796,6.244,6.244l0,0C415.219,373.464,412.424,376.259,408.975,376.259z"/>
	<path style="fill:#2F4859;" d="M408.975,313.82h-37.463c-3.448,0-6.244-2.796-6.244-6.244l0,0c0-3.448,2.795-6.244,6.244-6.244
		h37.463c3.448,0,6.244,2.796,6.244,6.244l0,0C415.219,311.025,412.424,313.82,408.975,313.82z"/>
</g>
<g>
</g>
<g>
</g>
<g>
</g>
<g>
</g>
<g>
</g>
<g>
</g>
<g>
</g>
<g>
</g>
<g>
</g>
<g>
</g>
<g>
</g>
<g>
</g>
<g>
</g>
<g>
</g>
<g>
</g>
</svg>
