<?xml version="1.0" encoding="iso-8859-1"?>
<!-- Generator: Adobe Illustrator 19.0.0, SVG Export Plug-In . SVG Version: 6.00 Build 0)  -->
<svg version="1.1" id="Capa_1" xmlns="http://www.w3.org/2000/svg" xmlns:xlink="http://www.w3.org/1999/xlink" x="0px" y="0px"
	 viewBox="0 0 468.293 468.293" style="enable-background:new 0 0 468.293 468.293;" xml:space="preserve">
<path style="fill:#27A2DB;" d="M165.276,358.582l0-333.607C165.276,11.182,176.458,0,190.251,0l205.513,0
	c13.794,0,24.976,11.182,24.976,24.976l0,333.607c0,13.794-11.182,24.976-24.976,24.976H190.251
	C176.458,383.558,165.276,372.376,165.276,358.582z"/>
<rect x="339.806" style="fill:#3A556A;" width="52.187" height="383.563"/>
<circle style="fill:#E1E6E9;" cx="226.36" cy="65.342" r="32.387"/>
<circle style="fill:#44C4A1;" cx="226.36" cy="107.963" r="32.387"/>
<path style="fill:#D15241;" d="M163.043,467.801c1.394,0.656,3.072,0.656,4.466,0c120.558-56.706,115.459-135.233,115.459-135.233
	v-98.566c0-2.93-2.452-5.27-5.376-5.075c-41.64,2.774-95.379-39.978-109.044-51.495c-1.897-1.599-4.646-1.599-6.544,0
	C148.338,188.949,94.6,231.7,52.96,228.926c-2.924-0.195-5.376,2.144-5.376,5.075v98.566
	C47.584,332.568,42.485,411.095,163.043,467.801z"/>
<path style="fill:#E56353;" d="M167.648,444.975c-1.468,0.744-3.278,0.744-4.745,0C66.979,396.35,67.923,336.226,68.017,333.6
	l0.04-0.664l-0.014-79.756c0-2.524,1.845-4.606,4.333-5.027c34.449-5.83,69.543-29.087,89.791-44.566
	c1.848-1.413,4.367-1.413,6.215,0c20.249,15.482,55.347,38.74,89.797,44.566c2.488,0.421,4.334,2.502,4.334,5.026v80.051
	l0.045,0.659C262.632,336.233,263.571,396.35,167.648,444.975z"/>
<path style="fill:#FCD462;" d="M144.643,367.521c-2.182,0-4.313-0.74-6.033-2.116l-31.802-25.467
	c-4.162-3.332-4.836-9.408-1.504-13.57c3.337-4.162,9.408-4.831,13.57-1.504l24.119,19.316
	c13.707-17.388,46.277-56.265,71.065-66.455c4.94-2.036,10.572,0.33,12.599,5.255c2.027,4.93-0.325,10.572-5.256,12.599
	c-21.564,8.866-57.137,52.136-69.024,68.062c-1.565,2.098-3.912,3.469-6.509,3.799C145.459,367.493,145.049,367.521,144.643,367.521
	z"/>
<g>
</g>
<g>
</g>
<g>
</g>
<g>
</g>
<g>
</g>
<g>
</g>
<g>
</g>
<g>
</g>
<g>
</g>
<g>
</g>
<g>
</g>
<g>
</g>
<g>
</g>
<g>
</g>
<g>
</g>
</svg>
