<?xml version="1.0" encoding="iso-8859-1"?>
<!-- Generator: Adobe Illustrator 19.0.0, SVG Export Plug-In . SVG Version: 6.00 Build 0)  -->
<svg version="1.1" id="Capa_1" xmlns="http://www.w3.org/2000/svg" xmlns:xlink="http://www.w3.org/1999/xlink" x="0px" y="0px"
	 viewBox="0 0 468.293 468.293" style="enable-background:new 0 0 468.293 468.293;" xml:space="preserve">
<polygon style="fill:#FCD462;" points="219.984,270.823 140.731,262.69 35.977,351.964 117.191,360.298 "/>
<polygon style="fill:#F6C358;" points="219.984,270.823 263.795,325.002 126.306,437.707 117.191,360.298 "/>
<polygon style="fill:#DC8744;" points="117.191,360.298 35.977,351.964 0,418.446 126.306,437.707 "/>
<polygon style="fill:#FCD462;" points="394.449,288.725 315.196,280.593 210.442,369.867 291.657,378.201 "/>
<polygon style="fill:#F6C358;" points="394.449,288.725 438.26,342.905 300.771,455.609 291.657,378.201 "/>
<polygon style="fill:#DC8744;" points="291.657,378.201 210.442,369.867 174.465,436.349 300.771,455.609 "/>
<polygon style="fill:#FCD462;" points="348.292,182.721 269.039,174.588 164.284,263.862 245.499,272.196 "/>
<polygon style="fill:#F6C358;" points="348.292,182.721 392.102,236.9 254.614,349.605 245.499,272.196 "/>
<g>
	<polygon style="fill:#DC8744;" points="245.499,272.196 164.284,263.862 128.308,330.345 254.614,349.605 	"/>
	<path style="fill:#DC8744;" d="M266.706,115.517c-7.808,0-14.138-6.33-14.138-14.138V26.822c0-7.808,6.33-14.138,14.138-14.138
		c7.808,0,14.138,6.33,14.138,14.138v74.557C280.844,109.187,274.514,115.517,266.706,115.517z"/>
	<path style="fill:#DC8744;" d="M199.202,128.944c-7.213,2.988-15.485-0.438-18.473-7.652l-28.532-68.882
		c-2.988-7.213,0.438-15.485,7.652-18.473c7.213-2.988,15.485,0.438,18.473,7.652l28.532,68.882
		C209.841,117.685,206.415,125.957,199.202,128.944z"/>
	<path style="fill:#DC8744;" d="M141.974,167.183c-5.521,5.521-14.474,5.521-19.995,0l-52.72-52.72
		c-5.521-5.521-5.521-14.474,0-19.995c5.521-5.521,14.474-5.521,19.995,0l52.72,52.72
		C147.495,152.709,147.495,161.662,141.974,167.183z"/>
	<path style="fill:#DC8744;" d="M464.152,94.468c5.521,5.521,5.521,14.474,0,19.995l-52.72,52.72
		c-5.521,5.521-14.474,5.521-19.995,0c-5.521-5.521-5.521-14.474,0-19.995l52.72-52.72
		C449.678,88.947,458.631,88.947,464.152,94.468z"/>
	<path style="fill:#DC8744;" d="M373.563,33.938c7.213,2.988,10.639,11.259,7.652,18.473l-28.532,68.882
		c-2.988,7.213-11.259,10.639-18.473,7.652s-10.639-11.259-7.652-18.473L355.09,41.59C358.078,34.377,366.349,30.951,373.563,33.938
		z"/>
</g>
<g>
</g>
<g>
</g>
<g>
</g>
<g>
</g>
<g>
</g>
<g>
</g>
<g>
</g>
<g>
</g>
<g>
</g>
<g>
</g>
<g>
</g>
<g>
</g>
<g>
</g>
<g>
</g>
<g>
</g>
</svg>
