<?xml version="1.0" encoding="iso-8859-1"?>
<!-- Generator: Adobe Illustrator 19.0.0, SVG Export Plug-In . SVG Version: 6.00 Build 0)  -->
<svg version="1.1" id="Capa_1" xmlns="http://www.w3.org/2000/svg" xmlns:xlink="http://www.w3.org/1999/xlink" x="0px" y="0px"
	 viewBox="0 0 468.293 468.293" style="enable-background:new 0 0 468.293 468.293;" xml:space="preserve">
<path style="fill:#2D93BA;" d="M56.415,253.092c15.744,24.115,40.633,44.29,71.333,57.985l-7.566,26.505
	c-1.924,6.736,1.978,13.757,8.715,15.68l17.06,4.871c6.737,1.923,13.758-1.979,15.682-8.717l7.083-24.814
	c16.927,3.822,34.871,5.899,53.47,5.899c18.599,0,36.543-2.075,53.471-5.899l7.085,24.816c1.922,6.737,8.943,10.639,15.68,8.716
	l17.059-4.871c6.737-1.924,10.639-8.945,8.715-15.681l-7.566-26.505c25.12-11.206,46.318-26.764,61.824-45.254
	c-41.96,11.127-90.016,17.448-141.091,17.448C169.229,283.272,106.501,271.999,56.415,253.092z"/>
<path style="fill:#27A2DB;" d="M406.363,200.34h10.952c22.994,0,43.097-15.502,48.942-37.741l1.582-6.02
	c1.606-6.109-1.129-12.847-6.918-15.375c-7.393-3.228-15.516,0.922-17.472,8.357l-1.733,6.591
	c-2.914,11.087-12.937,18.816-24.401,18.816h-10.952c-0.485,0-0.946,0.09-1.417,0.144c-11.72-67.55-89.042-119.743-182.754-119.743
	c-8.006,0-15.876,0.423-23.612,1.162c-6.014-17.87-23.641-44.531-75.256-39.142c-5.832,0.609-7.908,7.977-3.37,11.691
	c9.221,7.546,20.454,20.168,24.839,39.003c-46.601,16.115-82.667,46.305-98.358,83.281l-31.195,6.281
	C6.376,159.43,0,167.218,0,176.261v33.35c0,9.043,6.377,16.832,15.242,18.617l31.194,6.28c2.722,6.415,6.082,12.616,9.979,18.585
	c50.085,18.907,112.813,30.18,180.953,30.18c51.074,0,99.131-6.321,141.091-17.448c16.086-19.18,26.043-41.516,27.747-65.5
	C406.261,200.325,406.31,200.34,406.363,200.34z"/>
<circle style="fill:#2F4859;" cx="123.067" cy="140.987" r="17.495"/>
<path style="fill:#F6C358;" d="M417.059,451.61H289.681c-13.794,0-24.976-11.182-24.976-24.976V312.765
	c0-6.897,5.591-12.488,12.488-12.488h152.354c6.897,0,12.488,5.591,12.488,12.488v113.869
	C442.035,440.428,430.853,451.61,417.059,451.61z"/>
<path style="fill:#D5D6DB;" d="M353.37,197.688L353.37,197.688c-36.712,0-66.473,29.761-66.473,66.473v36.115h20.961V264.16
	c0-25.095,20.418-45.513,45.513-45.513c25.095,0,45.513,20.418,45.513,45.513v36.117h20.96v-36.115
	C419.843,227.45,390.082,197.688,353.37,197.688z"/>
<g>
	<rect x="410.661" y="324.933" style="fill:#FCD462;" width="31.407" height="17.62"/>
	<rect x="410.661" y="353.03" style="fill:#FCD462;" width="31.407" height="17.62"/>
	<rect x="410.661" y="381.19" style="fill:#FCD462;" width="31.407" height="17.62"/>
	<rect x="410.661" y="409.35" style="fill:#FCD462;" width="31.407" height="17.62"/>
</g>
<path style="fill:#DC8744;" d="M368.98,376.075c0-8.621-6.989-15.61-15.61-15.61c-8.621,0-15.61,6.989-15.61,15.61
	c0,5.763,3.159,10.741,7.805,13.445v20.634c0,3.448,2.796,6.244,6.244,6.244h3.122c3.448,0,6.244-2.796,6.244-6.244V389.52
	C365.821,386.816,368.98,381.838,368.98,376.075z"/>
<g>
</g>
<g>
</g>
<g>
</g>
<g>
</g>
<g>
</g>
<g>
</g>
<g>
</g>
<g>
</g>
<g>
</g>
<g>
</g>
<g>
</g>
<g>
</g>
<g>
</g>
<g>
</g>
<g>
</g>
</svg>
