<?xml version="1.0" encoding="iso-8859-1"?>
<!-- Generator: Adobe Illustrator 19.0.0, SVG Export Plug-In . SVG Version: 6.00 Build 0)  -->
<svg version="1.1" id="Capa_1" xmlns="http://www.w3.org/2000/svg" xmlns:xlink="http://www.w3.org/1999/xlink" x="0px" y="0px"
	 viewBox="0 0 468.293 468.293" style="enable-background:new 0 0 468.293 468.293;" xml:space="preserve">
<rect x="326.07" y="332.724" transform="matrix(-0.7071 0.7071 -0.7071 -0.7071 836.103 359.4406)" style="fill:#E56353;" width="35.078" height="40.317"/>
<path style="fill:#D15241;" d="M454.917,436.829l-27.366,27.366c-5.771,5.771-15.237,5.398-20.536-0.811l-61.352-71.892
	c-3.159-3.702-2.941-9.209,0.5-12.65l23.4-23.4c3.441-3.441,8.949-3.658,12.65-0.5l71.892,61.352
	C460.315,421.592,460.689,431.058,454.917,436.829z"/>
<ellipse style="fill:#CE412D;" cx="231.178" cy="240.458" rx="144.359" ry="144.359"/>
<path style="fill:#EBF0F3;" d="M320.041,329.316c-49.012,49.012-128.756,49.012-177.765,0.003s-49.009-128.753,0.003-177.765
	c49.009-49.008,128.753-49.008,177.762,0S369.05,280.307,320.041,329.316z"/>
<g>
	<path style="fill:#E56353;" d="M226.512,328.093v-15.437c-19.326-1.979-36.674-9.655-52.025-23.061l15.437-18.397
		c11.84,10.291,24.025,16.435,36.588,18.397v-41.028c-15.936-3.803-27.604-8.794-35.004-15.007c-7.4-6.195-11.1-15.403-11.1-27.604
		c0-12.184,4.251-22.166,12.787-29.91c8.536-7.762,19.636-11.995,33.318-12.701v-10.567h13.527v10.79
		c15.506,1.119,30.168,6.419,43.988,15.85l-13.75,19.464c-9.31-6.626-19.378-10.722-30.237-12.27v39.754h0.637
		c16.211,3.803,28.12,8.966,35.727,15.437c7.624,6.488,11.427,15.902,11.427,28.241c0,12.339-4.371,22.372-13.114,30.134
		c-8.742,7.744-20.29,11.978-34.677,12.683v15.23H226.512z M211.592,191.587c-3.597,3.167-5.387,7.125-5.387,11.84
		c0,4.733,1.411,8.45,4.234,11.203c2.805,2.754,8.175,5.404,16.074,7.934v-36.588C220.162,186.544,215.188,188.42,211.592,191.587z
		 M256.113,284.312c3.941-3.235,5.92-7.331,5.92-12.27c0-4.922-1.549-8.846-4.647-11.737c-3.115-2.874-8.897-5.593-17.347-8.14
		v38.068C246.802,289.526,252.155,287.565,256.113,284.312z"/>
	<path style="fill:#E56353;" d="M229.621,58.014v-5.108c-6.395-0.655-12.136-3.195-17.216-7.631l5.108-6.088
		c3.918,3.406,7.95,5.439,12.107,6.088V31.698c-5.273-1.259-9.135-2.91-11.583-4.966c-2.449-2.05-3.673-5.097-3.673-9.135
		c0-4.032,1.407-7.335,4.231-9.898c2.825-2.568,6.498-3.969,11.025-4.203V0h4.476v3.571c5.131,0.37,9.983,2.124,14.556,5.245
		l-4.55,6.441c-3.081-2.193-6.412-3.548-10.006-4.06v13.155h0.211c5.365,1.259,9.305,2.967,11.823,5.108
		c2.523,2.147,3.781,5.262,3.781,9.345c0,4.083-1.447,7.403-4.34,9.972c-2.893,2.563-6.714,3.964-11.475,4.197v5.04H229.621z
		 M224.684,12.842c-1.19,1.048-1.782,2.358-1.782,3.918c0,1.566,0.467,2.796,1.401,3.707c0.928,0.911,2.705,1.788,5.319,2.625
		V10.985C227.52,11.173,225.874,11.794,224.684,12.842z M239.417,43.526c1.304-1.071,1.959-2.426,1.959-4.06
		c0-1.629-0.513-2.927-1.538-3.884c-1.031-0.951-2.944-1.851-5.74-2.694v12.597C236.336,45.252,238.107,44.603,239.417,43.526z"/>
	<path style="fill:#E56353;" d="M127.468,99.288V94.18c-6.395-0.655-12.136-3.195-17.216-7.631l5.108-6.088
		c3.918,3.406,7.95,5.439,12.107,6.088V72.972c-5.273-1.259-9.135-2.91-11.583-4.966c-2.449-2.05-3.673-5.097-3.673-9.135
		c0-4.032,1.407-7.335,4.231-9.898c2.825-2.568,6.498-3.969,11.025-4.203v-3.497h4.476v3.571c5.131,0.37,9.983,2.124,14.556,5.245
		l-4.55,6.441c-3.081-2.193-6.412-3.548-10.006-4.06v13.155h0.211c5.365,1.259,9.305,2.967,11.823,5.108
		c2.523,2.147,3.781,5.262,3.781,9.345c0,4.083-1.447,7.403-4.34,9.972c-2.893,2.563-6.714,3.964-11.475,4.197v5.04H127.468z
		 M122.53,54.116c-1.19,1.048-1.783,2.358-1.783,3.918c0,1.566,0.467,2.796,1.401,3.707c0.928,0.911,2.705,1.788,5.319,2.625V52.26
		C125.366,52.448,123.72,53.068,122.53,54.116z M137.263,84.8c1.304-1.071,1.959-2.426,1.959-4.06c0-1.629-0.513-2.927-1.538-3.884
		c-1.031-0.951-2.944-1.851-5.74-2.694V86.76C134.182,86.526,135.953,85.877,137.263,84.8z"/>
	<path style="fill:#E56353;" d="M45.246,221.162v-5.108c-6.395-0.655-12.136-3.195-17.216-7.631l5.108-6.088
		c3.918,3.406,7.95,5.439,12.107,6.088v-13.577c-5.273-1.259-9.135-2.91-11.583-4.966c-2.449-2.05-3.673-5.097-3.673-9.135
		c0-4.032,1.407-7.335,4.231-9.898c2.825-2.568,6.498-3.969,11.025-4.203v-3.497h4.476v3.571c5.131,0.37,9.983,2.124,14.556,5.245
		l-4.55,6.441c-3.081-2.193-6.412-3.548-10.006-4.06V187.5h0.211c5.365,1.259,9.305,2.967,11.823,5.108
		c2.523,2.147,3.781,5.262,3.781,9.345c0,4.083-1.447,7.403-4.34,9.972c-2.893,2.563-6.714,3.964-11.475,4.197v5.04H45.246z
		 M40.309,175.99c-1.19,1.048-1.783,2.358-1.783,3.918c0,1.566,0.467,2.796,1.401,3.707c0.928,0.911,2.705,1.788,5.319,2.625
		v-12.107C43.145,174.322,41.499,174.943,40.309,175.99z M55.042,206.675c1.304-1.071,1.959-2.426,1.959-4.06
		c0-1.629-0.513-2.927-1.538-3.884c-1.031-0.951-2.944-1.851-5.74-2.694v12.597C51.961,208.4,53.732,207.751,55.042,206.675z"/>
	<path style="fill:#E56353;" d="M26.493,94.295v-5.108c-6.395-0.655-12.136-3.195-17.216-7.631l5.108-6.088
		c3.918,3.406,7.95,5.439,12.107,6.088V67.978c-5.273-1.259-9.135-2.91-11.583-4.966c-2.449-2.05-3.673-5.097-3.673-9.135
		c0-4.032,1.407-7.335,4.231-9.898c2.825-2.568,6.498-3.969,11.025-4.203v-3.497h4.476v3.571c5.131,0.37,9.983,2.124,14.556,5.245
		l-4.55,6.441c-3.081-2.193-6.412-3.548-10.006-4.06v13.155h0.211c5.365,1.259,9.305,2.967,11.823,5.108
		c2.523,2.147,3.781,5.262,3.781,9.345c0,4.083-1.447,7.403-4.34,9.972c-2.893,2.563-6.714,3.964-11.475,4.197v5.04H26.493z
		 M21.556,49.123c-1.19,1.048-1.783,2.358-1.783,3.918c0,1.566,0.467,2.796,1.401,3.707c0.928,0.911,2.705,1.788,5.319,2.625V47.266
		C24.392,47.454,22.746,48.075,21.556,49.123z M36.288,79.807c1.304-1.071,1.959-2.426,1.959-4.06c0-1.629-0.513-2.927-1.538-3.884
		c-1.031-0.951-2.944-1.851-5.74-2.694v12.597C33.207,81.532,34.978,80.883,36.288,79.807z"/>
	<path style="fill:#E56353;" d="M45.246,365.507v-5.108c-6.395-0.655-12.136-3.195-17.216-7.631l5.108-6.088
		c3.918,3.406,7.95,5.439,12.107,6.088v-13.577c-5.273-1.259-9.135-2.91-11.583-4.966c-2.449-2.05-3.673-5.097-3.673-9.135
		c0-4.032,1.407-7.335,4.231-9.898c2.825-2.568,6.498-3.969,11.025-4.203v-3.497h4.476v3.571c5.131,0.37,9.983,2.124,14.556,5.245
		l-4.55,6.441c-3.081-2.193-6.412-3.548-10.006-4.06v13.155h0.211c5.365,1.259,9.305,2.967,11.823,5.108
		c2.523,2.147,3.781,5.262,3.781,9.345s-1.447,7.403-4.34,9.972c-2.893,2.563-6.714,3.964-11.475,4.197v5.04H45.246z
		 M40.309,320.335c-1.19,1.048-1.783,2.358-1.783,3.918c0,1.566,0.467,2.796,1.401,3.707c0.928,0.911,2.705,1.788,5.319,2.625
		v-12.107C43.145,318.667,41.499,319.287,40.309,320.335z M55.042,351.019c1.304-1.071,1.959-2.426,1.959-4.06
		c0-1.629-0.513-2.927-1.538-3.884c-1.031-0.951-2.944-1.851-5.74-2.694v12.597C51.961,352.745,53.732,352.096,55.042,351.019z"/>
</g>
<g>
</g>
<g>
</g>
<g>
</g>
<g>
</g>
<g>
</g>
<g>
</g>
<g>
</g>
<g>
</g>
<g>
</g>
<g>
</g>
<g>
</g>
<g>
</g>
<g>
</g>
<g>
</g>
<g>
</g>
</svg>
