<svg height="512" viewBox="0 0 64 64" width="512" xmlns="http://www.w3.org/2000/svg"><g id="Stroke_copy_2" data-name="Stroke copy 2"><circle cx="24" cy="24" fill="#aae1f9" r="21"/><path d="m31 35a21 21 0 0 1 -20-27.5 21 21 0 1 0 33 23 20.87 20.87 0 0 1 -13 4.5z" fill="#57b7eb"/><path d="m7.76 10.68a21 21 0 0 0 -4.76 13.32c0 .41 0 .81.06 1.21l7.63-5.54z" fill="#4891d3"/><path d="m6.33 35.33a21 21 0 0 0 12.36 9l-2.92-9z" fill="#4891d3"/><path d="m41.67 35.33h-9.44l-2.92 9a21 21 0 0 0 12.36-9z" fill="#4891d3"/><path d="m18.4 30.77.4 1.23h1.42c-.63-.38-1.22-.79-1.82-1.23z" fill="#4891d3"/><path d="m24 16-8.41 6.11 3.21 9.89h10.4l3.21-9.89z" fill="#57b7eb"/><path d="m31.63 4.45a20.8 20.8 0 0 0 -15.26 0l7.63 5.55z" fill="#57b7eb"/><path d="m44.94 25.21c0-.4.06-.8.06-1.21a21 21 0 0 0 -4.76-13.32l-2.93 9z" fill="#57b7eb"/><g fill="#cc5144"><path d="m21 61a1 1 0 0 1 -1-1v-3a1 1 0 0 1 2 0v3a1 1 0 0 1 -1 1z"/><path d="m25 61a1 1 0 0 1 -1-1v-3a1 1 0 0 1 2 0v3a1 1 0 0 1 -1 1z"/><path d="m32 61a1 1 0 0 1 -1-1v-3a1 1 0 0 1 2 0v3a1 1 0 0 1 -1 1z"/><path d="m36 61a1 1 0 0 1 -1-1v-3a1 1 0 0 1 2 0v3a1 1 0 0 1 -1 1z"/><path d="m54 61a1 1 0 0 1 -1-1v-3a1 1 0 0 1 2 0v3a1 1 0 0 1 -1 1z"/><path d="m58 61a1 1 0 0 1 -1-1v-3a1 1 0 0 1 2 0v3a1 1 0 0 1 -1 1z"/><path d="m43 61a1 1 0 0 1 -1-1v-3a1 1 0 0 1 2 0v3a1 1 0 0 1 -1 1z"/><path d="m47 61a1 1 0 0 1 -1-1v-3a1 1 0 0 1 2 0v3a1 1 0 0 1 -1 1z"/><path d="m19 54h40v4h-40z"/></g><path d="m43 40a4 4 0 0 1 -4 4h-10a10 10 0 0 0 -10 10h40v-14z" fill="#f89c8d"/><path d="m40 50a12 12 0 0 1 -10.38-6h-.62a10 10 0 0 0 -10 10h40v-4z" fill="#f8664f"/><path d="m54 45h5a0 0 0 0 1 0 0v9a0 0 0 0 1 0 0h-14a0 0 0 0 1 0 0 9 9 0 0 1 9-9z" fill="#f9e109"/><path d="m45 54h14v-4h-13a9 9 0 0 0 -1 4z" fill="#fcbc04"/><path d="m31 48a1 1 0 0 1 -1-1v-3a1 1 0 0 1 2 0v3a1 1 0 0 1 -1 1z" fill="#f9e109"/><path d="m35 48a1 1 0 0 1 -1-1v-3a1 1 0 0 1 2 0v3a1 1 0 0 1 -1 1z" fill="#f9e109"/><path d="m39 48a1 1 0 0 1 -1-1v-3a1 1 0 0 1 2 0v3a1 1 0 0 1 -1 1z" fill="#f9e109"/><path d="m31 48a1 1 0 0 0 1-1v-.1a12.38 12.38 0 0 1 -2-2.33v2.43a1 1 0 0 0 1 1z" fill="#fcbc04"/></g></svg>